M48
; DRILL file {KiCad (5.1.10-1-10_14)} date Sunday, December 12, 2021 at 10:40:59 PM
; FORMAT={-:-/ absolute / inch / decimal}
; #@! TF.CreationDate,2021-12-12T22:40:59-05:00
; #@! TF.GenerationSoftware,Kicad,Pcbnew,(5.1.10-1-10_14)
FMAT,2
INCH
T1C0.0295
T2C0.0315
T3C0.0354
T4C0.0394
T5C0.0433
T6C0.0512
%
G90
G05
T1
X3.3543Y-4.6756
X3.3543Y-4.7256
X3.3543Y-4.7756
X3.622Y-3.9764
X3.622Y-4.0264
X3.622Y-4.0764
X4.0551Y-3.9764
X4.0551Y-4.0264
X4.0551Y-4.0764
T2
X1.752Y-4.0157
X1.752Y-4.3157
X1.752Y-4.4488
X1.752Y-4.6457
X1.9291Y-4.0157
X1.9291Y-4.3157
X1.9638Y-4.5709
X1.9638Y-4.7047
X2.0465Y-4.0157
X2.185Y-4.1929
X2.2638Y-4.5709
X2.2638Y-4.7047
X2.3465Y-4.0157
X2.3819Y-4.1929
X2.4409Y-4.5669
X2.4409Y-4.8669
X2.4961Y-4.3346
X2.5394Y-4.189
X2.5543Y-3.9961
X2.5591Y-3.5276
X2.5591Y-3.8276
X2.6378Y-4.5669
X2.6378Y-4.8669
X2.6929Y-4.3346
X2.7559Y-3.622
X2.7559Y-3.8189
X2.7984Y-2.7205
X2.8394Y-4.189
X2.8543Y-3.9961
X2.9488Y-3.7598
X2.9606Y-3.3024
X2.9606Y-3.6024
X2.9724Y-4.1142
X2.9724Y-4.311
X3.0748Y-4.5787
X3.0748Y-4.8787
X3.0984Y-2.7205
X3.1102Y-3.937
X3.1102Y-4.037
X3.1102Y-4.137
X3.1102Y-4.237
X3.1378Y-3.3031
X3.1378Y-3.6031
X3.1457Y-3.7598
X3.2315Y-2.563
X3.2315Y-2.7205
X3.4102Y-3.937
X3.4102Y-4.037
X3.4102Y-4.137
X3.4102Y-4.237
X3.4213Y-3.3031
X3.4213Y-3.6031
X3.5315Y-2.563
X3.5315Y-2.7205
X3.6929Y-2.5669
X3.7913Y-2.5669
X3.8583Y-3.8772
X3.8583Y-4.1772
X4.0551Y-4.1882
X4.0551Y-4.4882
X4.0843Y-4.6843
X4.1827Y-4.6843
X4.2126Y-3.739
X4.2126Y-3.8374
X4.2323Y-4.1929
X4.2323Y-4.4929
T3
X2.8134Y-4.5669
X2.9134Y-4.5669
T4
X1.761Y-4.9976
X1.861Y-4.9976
X2.1791Y-4.9988
X2.2791Y-4.9988
X2.3791Y-4.9988
X2.5276Y-3.1614
X2.5406Y-4.9988
X2.6406Y-4.9988
X2.8228Y-3.1614
X3.1339Y-3.0315
X3.3307Y-3.0315
X3.4646Y-5.0
X3.748Y-4.4882
X3.748Y-4.685
X3.9075Y-5.0
X4.0748Y-5.0
T5
X2.9346Y-2.3661
X3.0512Y-4.4291
X3.3346Y-2.3661
X3.4512Y-4.4291
T6
X1.8327Y-3.5906
X2.0295Y-3.5906
X2.2264Y-3.5906
X3.7642Y-3.5906
X3.961Y-3.5906
X4.1579Y-3.5906
T2
G00X2.4764Y-2.4016
M15
G01X2.4764Y-2.4882
M16
G05
G00X2.7087Y-2.3346
M15
G01X2.622Y-2.3346
M16
G05
G00X2.7165Y-2.563
M15
G01X2.6142Y-2.563
M16
G05
T0
M30
