%TF.GenerationSoftware,KiCad,Pcbnew,(5.1.10-1-10_14)*%
%TF.CreationDate,2021-12-12T22:41:03-05:00*%
%TF.ProjectId,Valve Wizard Cab Sim,56616c76-6520-4576-997a-617264204361,rev?*%
%TF.SameCoordinates,Original*%
%TF.FileFunction,Other,User*%
%FSLAX46Y46*%
G04 Gerber Fmt 4.6, Leading zero omitted, Abs format (unit mm)*
G04 Created by KiCad (PCBNEW (5.1.10-1-10_14)) date 2021-12-12 22:41:03*
%MOMM*%
%LPD*%
G01*
G04 APERTURE LIST*
%TA.AperFunction,Profile*%
%ADD10C,0.100000*%
%TD*%
%ADD11C,0.050000*%
G04 APERTURE END LIST*
D10*
X112000000Y-57000000D02*
X112000000Y-131000000D01*
X39000000Y-57000000D02*
X112000000Y-57000000D01*
X39000000Y-131000000D02*
X39000000Y-57000000D01*
X112000000Y-131000000D02*
X39000000Y-131000000D01*
D11*
X120400000Y-32000000D02*
X120400000Y-146140000D01*
X32000000Y-146140000D02*
X120400000Y-146140000D01*
X32000000Y-32000000D02*
X120400000Y-32000000D01*
X32000000Y-32000000D02*
X32000000Y-146140000D01*
%TO.C,U1*%
X88150000Y-98400000D02*
X77450000Y-98400000D01*
X88150000Y-109200000D02*
X88150000Y-98400000D01*
X77450000Y-109200000D02*
X88150000Y-109200000D01*
X77450000Y-98400000D02*
X77450000Y-109200000D01*
%TO.C,J4*%
X42930000Y-128740000D02*
X49080000Y-128740000D01*
X49080000Y-128740000D02*
X49080000Y-125140000D01*
X49080000Y-125140000D02*
X42930000Y-125140000D01*
X42930000Y-125140000D02*
X42930000Y-128740000D01*
%TO.C,J7*%
X105300000Y-125200000D02*
X101700000Y-125200000D01*
X105300000Y-128800000D02*
X105300000Y-125200000D01*
X101700000Y-128800000D02*
X105300000Y-128800000D01*
X101700000Y-125200000D02*
X101700000Y-128800000D01*
%TO.C,J6*%
X62730000Y-128770000D02*
X68880000Y-128770000D01*
X68880000Y-128770000D02*
X68880000Y-125170000D01*
X68880000Y-125170000D02*
X62730000Y-125170000D01*
X62730000Y-125170000D02*
X62730000Y-128770000D01*
%TO.C,J5*%
X86200000Y-125200000D02*
X86200000Y-128800000D01*
X86200000Y-128800000D02*
X89800000Y-128800000D01*
X89800000Y-128800000D02*
X89800000Y-125200000D01*
X89800000Y-125200000D02*
X86200000Y-125200000D01*
%TO.C,J2*%
X97450000Y-125200000D02*
X97450000Y-128800000D01*
X97450000Y-128800000D02*
X101050000Y-128800000D01*
X101050000Y-128800000D02*
X101050000Y-125200000D01*
X101050000Y-125200000D02*
X97450000Y-125200000D01*
%TO.C,J1*%
X62230000Y-125170000D02*
X53580000Y-125170000D01*
X53580000Y-125170000D02*
X53580000Y-128770000D01*
X53580000Y-128770000D02*
X62230000Y-128770000D01*
X62230000Y-128770000D02*
X62230000Y-125170000D01*
%TO.C,C12*%
X108390000Y-118980000D02*
G75*
G03*
X108390000Y-118980000I-3400000J0D01*
G01*
%TO.C,C7*%
X68500000Y-90750000D02*
X68500000Y-98250000D01*
X71500000Y-90750000D02*
X68500000Y-90750000D01*
X71500000Y-98250000D02*
X71500000Y-90750000D01*
X68500000Y-98250000D02*
X71500000Y-98250000D01*
%TO.C,C8*%
X81150000Y-94000000D02*
X73650000Y-94000000D01*
X81150000Y-97000000D02*
X81150000Y-94000000D01*
X73650000Y-97000000D02*
X81150000Y-97000000D01*
X73650000Y-94000000D02*
X73650000Y-97000000D01*
%TO.C,C5*%
X46000000Y-119250000D02*
X46000000Y-111750000D01*
X43000000Y-119250000D02*
X46000000Y-119250000D01*
X43000000Y-111750000D02*
X43000000Y-119250000D01*
X46000000Y-111750000D02*
X43000000Y-111750000D01*
%TO.C,R18*%
X79600000Y-124970000D02*
X79600000Y-115250000D01*
X76600000Y-124970000D02*
X79600000Y-124970000D01*
X76600000Y-115250000D02*
X76600000Y-124970000D01*
X79600000Y-115250000D02*
X76600000Y-115250000D01*
%TO.C,R17*%
X106000000Y-105450000D02*
X106000000Y-115170000D01*
X109000000Y-105450000D02*
X106000000Y-105450000D01*
X109000000Y-115170000D02*
X109000000Y-105450000D01*
X106000000Y-115170000D02*
X109000000Y-115170000D01*
%TO.C,R16*%
X101500000Y-105330000D02*
X101500000Y-115050000D01*
X104500000Y-105330000D02*
X101500000Y-105330000D01*
X104500000Y-115050000D02*
X104500000Y-105330000D01*
X101500000Y-115050000D02*
X104500000Y-115050000D01*
%TO.C,R15*%
X96500000Y-97430000D02*
X96500000Y-107150000D01*
X99500000Y-97430000D02*
X96500000Y-97430000D01*
X99500000Y-107150000D02*
X99500000Y-97430000D01*
X96500000Y-107150000D02*
X99500000Y-107150000D01*
%TO.C,R14*%
X78200000Y-82850000D02*
X78200000Y-92570000D01*
X81200000Y-82850000D02*
X78200000Y-82850000D01*
X81200000Y-92570000D02*
X81200000Y-82850000D01*
X78200000Y-92570000D02*
X81200000Y-92570000D01*
%TO.C,R13*%
X76700000Y-92550000D02*
X76700000Y-82830000D01*
X73700000Y-92550000D02*
X76700000Y-92550000D01*
X73700000Y-82830000D02*
X73700000Y-92550000D01*
X76700000Y-82830000D02*
X73700000Y-82830000D01*
%TO.C,R12*%
X63500000Y-88550000D02*
X63500000Y-98270000D01*
X66500000Y-88550000D02*
X63500000Y-88550000D01*
X66500000Y-98270000D02*
X66500000Y-88550000D01*
X63500000Y-98270000D02*
X66500000Y-98270000D01*
%TO.C,R11*%
X46000000Y-110670000D02*
X46000000Y-100950000D01*
X43000000Y-110670000D02*
X46000000Y-110670000D01*
X43000000Y-100950000D02*
X43000000Y-110670000D01*
X46000000Y-100950000D02*
X43000000Y-100950000D01*
%TO.C,R10*%
X63830000Y-103000000D02*
X73550000Y-103000000D01*
X63830000Y-100000000D02*
X63830000Y-103000000D01*
X73550000Y-100000000D02*
X63830000Y-100000000D01*
X73550000Y-103000000D02*
X73550000Y-100000000D01*
%TO.C,R9*%
X73170000Y-104900000D02*
X63450000Y-104900000D01*
X73170000Y-107900000D02*
X73170000Y-104900000D01*
X63450000Y-107900000D02*
X73170000Y-107900000D01*
X63450000Y-104900000D02*
X63450000Y-107900000D01*
%TO.C,R8*%
X47500000Y-100950000D02*
X47500000Y-110670000D01*
X50500000Y-100950000D02*
X47500000Y-100950000D01*
X50500000Y-110670000D02*
X50500000Y-100950000D01*
X47500000Y-110670000D02*
X50500000Y-110670000D01*
%TO.C,R7*%
X60650000Y-100500000D02*
X50930000Y-100500000D01*
X60650000Y-103500000D02*
X60650000Y-100500000D01*
X50930000Y-103500000D02*
X60650000Y-103500000D01*
X50930000Y-100500000D02*
X50930000Y-103500000D01*
%TO.C,R6*%
X85400000Y-82850000D02*
X85400000Y-92570000D01*
X88400000Y-82850000D02*
X85400000Y-82850000D01*
X88400000Y-92570000D02*
X88400000Y-82850000D01*
X85400000Y-92570000D02*
X88400000Y-92570000D01*
%TO.C,R5*%
X63500000Y-124670000D02*
X63500000Y-114950000D01*
X60500000Y-124670000D02*
X63500000Y-124670000D01*
X60500000Y-114950000D02*
X60500000Y-124670000D01*
X63500000Y-114950000D02*
X60500000Y-114950000D01*
%TO.C,R4*%
X65500000Y-114950000D02*
X65500000Y-124670000D01*
X68500000Y-114950000D02*
X65500000Y-114950000D01*
X68500000Y-124670000D02*
X68500000Y-114950000D01*
X65500000Y-124670000D02*
X68500000Y-124670000D01*
%TO.C,R3*%
X81030000Y-70600000D02*
X90750000Y-70600000D01*
X81030000Y-67600000D02*
X81030000Y-70600000D01*
X90750000Y-67600000D02*
X81030000Y-67600000D01*
X90750000Y-70600000D02*
X90750000Y-67600000D01*
%TO.C,R2*%
X90750000Y-63600000D02*
X81030000Y-63600000D01*
X90750000Y-66600000D02*
X90750000Y-63600000D01*
X81030000Y-66600000D02*
X90750000Y-66600000D01*
X81030000Y-63600000D02*
X81030000Y-66600000D01*
%TO.C,R1*%
X70030000Y-70600000D02*
X79750000Y-70600000D01*
X70030000Y-67600000D02*
X70030000Y-70600000D01*
X79750000Y-67600000D02*
X70030000Y-67600000D01*
X79750000Y-70600000D02*
X79750000Y-67600000D01*
%TO.C,Q3*%
X87210000Y-117300000D02*
X87210000Y-122760000D01*
X87210000Y-117300000D02*
X82470000Y-117300000D01*
X82470000Y-122760000D02*
X87210000Y-122760000D01*
X82470000Y-122760000D02*
X82470000Y-117300000D01*
%TO.C,Q2*%
X100990000Y-105000000D02*
X100990000Y-99540000D01*
X100990000Y-105000000D02*
X105730000Y-105000000D01*
X105730000Y-99540000D02*
X100990000Y-99540000D01*
X105730000Y-99540000D02*
X105730000Y-105000000D01*
%TO.C,Q1*%
X89990000Y-105000000D02*
X89990000Y-99540000D01*
X89990000Y-105000000D02*
X94730000Y-105000000D01*
X94730000Y-99540000D02*
X89990000Y-99540000D01*
X94730000Y-99540000D02*
X94730000Y-105000000D01*
%TO.C,D3*%
X75160000Y-113750000D02*
X70310000Y-113750000D01*
X75160000Y-118250000D02*
X75160000Y-113750000D01*
X70310000Y-118250000D02*
X75160000Y-118250000D01*
X70310000Y-113750000D02*
X70310000Y-118250000D01*
%TO.C,C9*%
X62550000Y-83400000D02*
X73360000Y-83400000D01*
X62550000Y-77200000D02*
X62550000Y-83400000D01*
X73360000Y-77200000D02*
X62550000Y-77200000D01*
X73360000Y-83400000D02*
X73360000Y-77200000D01*
%TO.C,C6*%
X69450000Y-108600000D02*
X62350000Y-108600000D01*
X69450000Y-111600000D02*
X69450000Y-108600000D01*
X62350000Y-111600000D02*
X69450000Y-111600000D01*
X62350000Y-108600000D02*
X62350000Y-111600000D01*
%TO.C,C4*%
X54450000Y-108000000D02*
X61550000Y-108000000D01*
X54450000Y-105000000D02*
X54450000Y-108000000D01*
X61550000Y-105000000D02*
X54450000Y-105000000D01*
X61550000Y-108000000D02*
X61550000Y-105000000D01*
%TO.C,J3*%
X61500000Y-64600000D02*
X62700000Y-64600000D01*
X61500000Y-59600000D02*
X62700000Y-59600000D01*
X61500000Y-64600000D02*
X61500000Y-59600000D01*
X62700000Y-64600000D02*
X62700000Y-66500000D01*
X72700000Y-51000000D02*
X62700000Y-51000000D01*
X72700000Y-66500000D02*
X72700000Y-51000000D01*
X62700000Y-66500000D02*
X72700000Y-66500000D01*
X62700000Y-51000000D02*
X62700000Y-59600000D01*
%TO.C,D5*%
X58550000Y-114850000D02*
X48830000Y-114850000D01*
X58550000Y-117350000D02*
X58550000Y-114850000D01*
X48830000Y-117350000D02*
X58550000Y-117350000D01*
X48830000Y-114850000D02*
X48830000Y-117350000D01*
%TO.C,D4*%
X48830000Y-120750000D02*
X58550000Y-120750000D01*
X48830000Y-118250000D02*
X48830000Y-120750000D01*
X58550000Y-118250000D02*
X48830000Y-118250000D01*
X58550000Y-120750000D02*
X58550000Y-118250000D01*
%TO.C,D2*%
X89010000Y-110900000D02*
X76150000Y-110900000D01*
X89010000Y-114100000D02*
X89010000Y-110900000D01*
X76150000Y-114100000D02*
X89010000Y-114100000D01*
X76150000Y-110900000D02*
X76150000Y-114100000D01*
%TO.C,D1*%
X86050000Y-58500000D02*
X73190000Y-58500000D01*
X86050000Y-61700000D02*
X86050000Y-58500000D01*
X73190000Y-61700000D02*
X86050000Y-61700000D01*
X73190000Y-58500000D02*
X73190000Y-61700000D01*
%TO.C,C11*%
X100450000Y-116500000D02*
G75*
G03*
X100450000Y-116500000I-5250000J0D01*
G01*
%TO.C,C10*%
X110400000Y-96220000D02*
G75*
G03*
X110400000Y-96220000I-3400000J0D01*
G01*
%TO.C,C3*%
X74000000Y-103450000D02*
X74000000Y-110550000D01*
X77000000Y-103450000D02*
X74000000Y-103450000D01*
X77000000Y-110550000D02*
X77000000Y-103450000D01*
X74000000Y-110550000D02*
X77000000Y-110550000D01*
%TO.C,C2*%
X98450000Y-65200000D02*
G75*
G03*
X98450000Y-65200000I-3400000J0D01*
G01*
%TO.C,C1*%
X87350000Y-77000000D02*
G75*
G03*
X87350000Y-77000000I-5250000J0D01*
G01*
%TD*%
M02*
