%TF.GenerationSoftware,KiCad,Pcbnew,(5.1.10-1-10_14)*%
%TF.CreationDate,2021-12-12T22:41:03-05:00*%
%TF.ProjectId,Valve Wizard Cab Sim,56616c76-6520-4576-997a-617264204361,rev?*%
%TF.SameCoordinates,Original*%
%TF.FileFunction,Soldermask,Bot*%
%TF.FilePolarity,Negative*%
%FSLAX46Y46*%
G04 Gerber Fmt 4.6, Leading zero omitted, Abs format (unit mm)*
G04 Created by KiCad (PCBNEW (5.1.10-1-10_14)) date 2021-12-12 22:41:03*
%MOMM*%
%LPD*%
G01*
G04 APERTURE LIST*
%TA.AperFunction,Profile*%
%ADD10C,0.100000*%
%TD*%
%ADD11O,2.400000X1.600000*%
%ADD12R,2.400000X1.600000*%
%ADD13O,1.700000X1.700000*%
%ADD14R,1.700000X1.700000*%
%ADD15C,2.500000*%
%ADD16C,1.600000*%
%ADD17R,1.600000X1.600000*%
%ADD18O,1.600000X1.600000*%
%ADD19R,1.500000X1.050000*%
%ADD20O,1.500000X1.050000*%
%ADD21C,1.800000*%
%ADD22R,1.800000X1.800000*%
%ADD23C,2.000000*%
%ADD24R,4.400000X1.800000*%
%ADD25O,4.000000X1.800000*%
%ADD26O,1.800000X4.000000*%
%ADD27O,2.200000X2.200000*%
%ADD28R,2.200000X2.200000*%
%ADD29R,2.000000X2.000000*%
G04 APERTURE END LIST*
D10*
X112000000Y-57000000D02*
X112000000Y-131000000D01*
X39000000Y-57000000D02*
X112000000Y-57000000D01*
X39000000Y-131000000D02*
X39000000Y-57000000D01*
X112000000Y-131000000D02*
X39000000Y-131000000D01*
D11*
%TO.C,U1*%
X86620000Y-100000000D03*
X79000000Y-107620000D03*
X86620000Y-102540000D03*
X79000000Y-105080000D03*
X86620000Y-105080000D03*
X79000000Y-102540000D03*
X86620000Y-107620000D03*
D12*
X79000000Y-100000000D03*
%TD*%
D13*
%TO.C,J4*%
X47270000Y-126940000D03*
D14*
X44730000Y-126940000D03*
%TD*%
%TO.C,J7*%
X103500000Y-127000000D03*
%TD*%
D15*
%TO.C,RV2*%
X105610000Y-91200000D03*
X100610000Y-91200000D03*
X95610000Y-91200000D03*
%TD*%
%TO.C,RV1*%
X56550000Y-91200000D03*
X51550000Y-91200000D03*
X46550000Y-91200000D03*
%TD*%
D13*
%TO.C,J6*%
X67070000Y-126970000D03*
D14*
X64530000Y-126970000D03*
%TD*%
%TO.C,J5*%
X88000000Y-127000000D03*
%TD*%
%TO.C,J2*%
X99250000Y-127000000D03*
%TD*%
D13*
%TO.C,J1*%
X55350000Y-126970000D03*
X57890000Y-126970000D03*
D14*
X60430000Y-126970000D03*
%TD*%
D16*
%TO.C,C12*%
X103740000Y-118980000D03*
D17*
X106240000Y-118980000D03*
%TD*%
D16*
%TO.C,C7*%
X70000000Y-92000000D03*
X70000000Y-97000000D03*
%TD*%
%TO.C,C8*%
X79900000Y-95500000D03*
X74900000Y-95500000D03*
%TD*%
%TO.C,C5*%
X44500000Y-118000000D03*
X44500000Y-113000000D03*
%TD*%
D18*
%TO.C,R18*%
X78100000Y-123920000D03*
D16*
X78100000Y-116300000D03*
%TD*%
D18*
%TO.C,R17*%
X107500000Y-106500000D03*
D16*
X107500000Y-114120000D03*
%TD*%
D18*
%TO.C,R16*%
X103000000Y-106380000D03*
D16*
X103000000Y-114000000D03*
%TD*%
D18*
%TO.C,R15*%
X98000000Y-98480000D03*
D16*
X98000000Y-106100000D03*
%TD*%
D18*
%TO.C,R14*%
X79700000Y-83900000D03*
D16*
X79700000Y-91520000D03*
%TD*%
D18*
%TO.C,R13*%
X75200000Y-91500000D03*
D16*
X75200000Y-83880000D03*
%TD*%
D18*
%TO.C,R12*%
X65000000Y-89600000D03*
D16*
X65000000Y-97220000D03*
%TD*%
D18*
%TO.C,R11*%
X44500000Y-109620000D03*
D16*
X44500000Y-102000000D03*
%TD*%
D18*
%TO.C,R10*%
X64880000Y-101500000D03*
D16*
X72500000Y-101500000D03*
%TD*%
D18*
%TO.C,R9*%
X72120000Y-106400000D03*
D16*
X64500000Y-106400000D03*
%TD*%
D18*
%TO.C,R8*%
X49000000Y-102000000D03*
D16*
X49000000Y-109620000D03*
%TD*%
D18*
%TO.C,R7*%
X59600000Y-102000000D03*
D16*
X51980000Y-102000000D03*
%TD*%
D18*
%TO.C,R6*%
X86900000Y-83900000D03*
D16*
X86900000Y-91520000D03*
%TD*%
D18*
%TO.C,R5*%
X62000000Y-123620000D03*
D16*
X62000000Y-116000000D03*
%TD*%
D18*
%TO.C,R4*%
X67000000Y-116000000D03*
D16*
X67000000Y-123620000D03*
%TD*%
D18*
%TO.C,R3*%
X82080000Y-69100000D03*
D16*
X89700000Y-69100000D03*
%TD*%
D18*
%TO.C,R2*%
X89700000Y-65100000D03*
D16*
X82080000Y-65100000D03*
%TD*%
D18*
%TO.C,R1*%
X71080000Y-69100000D03*
D16*
X78700000Y-69100000D03*
%TD*%
D19*
%TO.C,Q3*%
X85200000Y-121300000D03*
D20*
X85200000Y-118760000D03*
X85200000Y-120030000D03*
%TD*%
D19*
%TO.C,Q2*%
X103000000Y-101000000D03*
D20*
X103000000Y-103540000D03*
X103000000Y-102270000D03*
%TD*%
D19*
%TO.C,Q1*%
X92000000Y-101000000D03*
D20*
X92000000Y-103540000D03*
X92000000Y-102270000D03*
%TD*%
D21*
%TO.C,D3*%
X74000000Y-116000000D03*
D22*
X71460000Y-116000000D03*
%TD*%
D23*
%TO.C,C9*%
X64200000Y-80300000D03*
X71700000Y-80300000D03*
%TD*%
D16*
%TO.C,C6*%
X68400000Y-110100000D03*
X63400000Y-110100000D03*
%TD*%
%TO.C,C4*%
X55500000Y-106500000D03*
X60500000Y-106500000D03*
%TD*%
D24*
%TO.C,J3*%
X67700000Y-65100000D03*
D25*
X67700000Y-59300000D03*
D26*
X62900000Y-62100000D03*
%TD*%
D18*
%TO.C,D5*%
X57500000Y-116100000D03*
D17*
X49880000Y-116100000D03*
%TD*%
D18*
%TO.C,D4*%
X49880000Y-119500000D03*
D17*
X57500000Y-119500000D03*
%TD*%
D27*
%TO.C,D2*%
X87660000Y-112500000D03*
D28*
X77500000Y-112500000D03*
%TD*%
D27*
%TO.C,D1*%
X84700000Y-60100000D03*
D28*
X74540000Y-60100000D03*
%TD*%
D23*
%TO.C,C11*%
X95200000Y-119000000D03*
D29*
X95200000Y-114000000D03*
%TD*%
D16*
%TO.C,C10*%
X107000000Y-97470000D03*
D17*
X107000000Y-94970000D03*
%TD*%
D16*
%TO.C,C3*%
X75500000Y-104500000D03*
X75500000Y-109500000D03*
%TD*%
%TO.C,C2*%
X96300000Y-65200000D03*
D17*
X93800000Y-65200000D03*
%TD*%
D23*
%TO.C,C1*%
X79600000Y-77000000D03*
D29*
X84600000Y-77000000D03*
%TD*%
M02*
