%TF.GenerationSoftware,KiCad,Pcbnew,(5.1.10-1-10_14)*%
%TF.CreationDate,2021-12-12T22:41:03-05:00*%
%TF.ProjectId,Valve Wizard Cab Sim,56616c76-6520-4576-997a-617264204361,rev?*%
%TF.SameCoordinates,Original*%
%TF.FileFunction,Copper,L1,Top*%
%TF.FilePolarity,Positive*%
%FSLAX46Y46*%
G04 Gerber Fmt 4.6, Leading zero omitted, Abs format (unit mm)*
G04 Created by KiCad (PCBNEW (5.1.10-1-10_14)) date 2021-12-12 22:41:03*
%MOMM*%
%LPD*%
G01*
G04 APERTURE LIST*
%TA.AperFunction,NonConductor*%
%ADD10C,0.300000*%
%TD*%
%TA.AperFunction,NonConductor*%
%ADD11C,0.150000*%
%TD*%
%TA.AperFunction,Profile*%
%ADD12C,0.100000*%
%TD*%
%TA.AperFunction,ComponentPad*%
%ADD13O,2.400000X1.600000*%
%TD*%
%TA.AperFunction,ComponentPad*%
%ADD14R,2.400000X1.600000*%
%TD*%
%TA.AperFunction,ComponentPad*%
%ADD15O,1.700000X1.700000*%
%TD*%
%TA.AperFunction,ComponentPad*%
%ADD16R,1.700000X1.700000*%
%TD*%
%TA.AperFunction,ComponentPad*%
%ADD17C,2.500000*%
%TD*%
%TA.AperFunction,ComponentPad*%
%ADD18C,1.600000*%
%TD*%
%TA.AperFunction,ComponentPad*%
%ADD19R,1.600000X1.600000*%
%TD*%
%TA.AperFunction,ComponentPad*%
%ADD20O,1.600000X1.600000*%
%TD*%
%TA.AperFunction,ComponentPad*%
%ADD21R,1.500000X1.050000*%
%TD*%
%TA.AperFunction,ComponentPad*%
%ADD22O,1.500000X1.050000*%
%TD*%
%TA.AperFunction,ComponentPad*%
%ADD23C,1.800000*%
%TD*%
%TA.AperFunction,ComponentPad*%
%ADD24R,1.800000X1.800000*%
%TD*%
%TA.AperFunction,ComponentPad*%
%ADD25C,2.000000*%
%TD*%
%TA.AperFunction,ComponentPad*%
%ADD26R,4.400000X1.800000*%
%TD*%
%TA.AperFunction,ComponentPad*%
%ADD27O,4.000000X1.800000*%
%TD*%
%TA.AperFunction,ComponentPad*%
%ADD28O,1.800000X4.000000*%
%TD*%
%TA.AperFunction,ComponentPad*%
%ADD29O,2.200000X2.200000*%
%TD*%
%TA.AperFunction,ComponentPad*%
%ADD30R,2.200000X2.200000*%
%TD*%
%TA.AperFunction,ComponentPad*%
%ADD31R,2.000000X2.000000*%
%TD*%
%TA.AperFunction,Conductor*%
%ADD32C,1.200000*%
%TD*%
%TA.AperFunction,Conductor*%
%ADD33C,1.000000*%
%TD*%
%TA.AperFunction,Conductor*%
%ADD34C,0.800000*%
%TD*%
%TA.AperFunction,Conductor*%
%ADD35C,1.500000*%
%TD*%
G04 APERTURE END LIST*
D10*
X65107142Y-67250000D02*
X64964285Y-67178571D01*
X64750000Y-67178571D01*
X64535714Y-67250000D01*
X64392857Y-67392857D01*
X64321428Y-67535714D01*
X64250000Y-67821428D01*
X64250000Y-68035714D01*
X64321428Y-68321428D01*
X64392857Y-68464285D01*
X64535714Y-68607142D01*
X64750000Y-68678571D01*
X64892857Y-68678571D01*
X65107142Y-68607142D01*
X65178571Y-68535714D01*
X65178571Y-68035714D01*
X64892857Y-68035714D01*
X65821428Y-68678571D02*
X65821428Y-67178571D01*
X66678571Y-68678571D01*
X66678571Y-67178571D01*
X67392857Y-68678571D02*
X67392857Y-67178571D01*
X67750000Y-67178571D01*
X67964285Y-67250000D01*
X68107142Y-67392857D01*
X68178571Y-67535714D01*
X68250000Y-67821428D01*
X68250000Y-68035714D01*
X68178571Y-68321428D01*
X68107142Y-68464285D01*
X67964285Y-68607142D01*
X67750000Y-68678571D01*
X67392857Y-68678571D01*
X70678571Y-59107142D02*
X71821428Y-59107142D01*
X71250000Y-59678571D02*
X71250000Y-58535714D01*
X54892857Y-59892857D02*
X55107142Y-59964285D01*
X55178571Y-60035714D01*
X55250000Y-60178571D01*
X55250000Y-60392857D01*
X55178571Y-60535714D01*
X55107142Y-60607142D01*
X54964285Y-60678571D01*
X54392857Y-60678571D01*
X54392857Y-59178571D01*
X54892857Y-59178571D01*
X55035714Y-59250000D01*
X55107142Y-59321428D01*
X55178571Y-59464285D01*
X55178571Y-59607142D01*
X55107142Y-59750000D01*
X55035714Y-59821428D01*
X54892857Y-59892857D01*
X54392857Y-59892857D01*
X55821428Y-60250000D02*
X56535714Y-60250000D01*
X55678571Y-60678571D02*
X56178571Y-59178571D01*
X56678571Y-60678571D01*
X56964285Y-59178571D02*
X57821428Y-59178571D01*
X57392857Y-60678571D02*
X57392857Y-59178571D01*
X59464285Y-60107142D02*
X60607142Y-60107142D01*
X60035714Y-60678571D02*
X60035714Y-59535714D01*
X100000000Y-123178571D02*
X100285714Y-123178571D01*
X100428571Y-123250000D01*
X100571428Y-123392857D01*
X100642857Y-123678571D01*
X100642857Y-124178571D01*
X100571428Y-124464285D01*
X100428571Y-124607142D01*
X100285714Y-124678571D01*
X100000000Y-124678571D01*
X99857142Y-124607142D01*
X99714285Y-124464285D01*
X99642857Y-124178571D01*
X99642857Y-123678571D01*
X99714285Y-123392857D01*
X99857142Y-123250000D01*
X100000000Y-123178571D01*
X101285714Y-123178571D02*
X101285714Y-124392857D01*
X101357142Y-124535714D01*
X101428571Y-124607142D01*
X101571428Y-124678571D01*
X101857142Y-124678571D01*
X102000000Y-124607142D01*
X102071428Y-124535714D01*
X102142857Y-124392857D01*
X102142857Y-123178571D01*
X102642857Y-123178571D02*
X103500000Y-123178571D01*
X103071428Y-124678571D02*
X103071428Y-123178571D01*
D11*
X63023809Y-129428571D02*
X62690476Y-129428571D01*
X62690476Y-129952380D02*
X62690476Y-128952380D01*
X63166666Y-128952380D01*
X63500000Y-129904761D02*
X63642857Y-129952380D01*
X63880952Y-129952380D01*
X63976190Y-129904761D01*
X64023809Y-129857142D01*
X64071428Y-129761904D01*
X64071428Y-129666666D01*
X64023809Y-129571428D01*
X63976190Y-129523809D01*
X63880952Y-129476190D01*
X63690476Y-129428571D01*
X63595238Y-129380952D01*
X63547619Y-129333333D01*
X63500000Y-129238095D01*
X63500000Y-129142857D01*
X63547619Y-129047619D01*
X63595238Y-129000000D01*
X63690476Y-128952380D01*
X63928571Y-128952380D01*
X64071428Y-129000000D01*
X64261904Y-130047619D02*
X65023809Y-130047619D01*
X65261904Y-129952380D02*
X65261904Y-128952380D01*
X65738095Y-129952380D02*
X65738095Y-128952380D01*
X66309523Y-129952380D01*
X66309523Y-128952380D01*
X54964285Y-128952380D02*
X55535714Y-128952380D01*
X55250000Y-129952380D02*
X55250000Y-128952380D01*
X59214285Y-129952380D02*
X59214285Y-128952380D01*
X59690476Y-129952380D02*
X59690476Y-128952380D01*
X60261904Y-129952380D01*
X60261904Y-128952380D01*
X60500000Y-130047619D02*
X61261904Y-130047619D01*
X61357142Y-128952380D02*
X61928571Y-128952380D01*
X61642857Y-129952380D02*
X61642857Y-128952380D01*
X67511904Y-129428571D02*
X67178571Y-129428571D01*
X67178571Y-129952380D02*
X67178571Y-128952380D01*
X67654761Y-128952380D01*
X67988095Y-129904761D02*
X68130952Y-129952380D01*
X68369047Y-129952380D01*
X68464285Y-129904761D01*
X68511904Y-129857142D01*
X68559523Y-129761904D01*
X68559523Y-129666666D01*
X68511904Y-129571428D01*
X68464285Y-129523809D01*
X68369047Y-129476190D01*
X68178571Y-129428571D01*
X68083333Y-129380952D01*
X68035714Y-129333333D01*
X67988095Y-129238095D01*
X67988095Y-129142857D01*
X68035714Y-129047619D01*
X68083333Y-129000000D01*
X68178571Y-128952380D01*
X68416666Y-128952380D01*
X68559523Y-129000000D01*
X68750000Y-130047619D02*
X69511904Y-130047619D01*
X69750000Y-129952380D02*
X69750000Y-128952380D01*
X70321428Y-129952380D01*
X70321428Y-128952380D01*
X71369047Y-129857142D02*
X71321428Y-129904761D01*
X71178571Y-129952380D01*
X71083333Y-129952380D01*
X70940476Y-129904761D01*
X70845238Y-129809523D01*
X70797619Y-129714285D01*
X70750000Y-129523809D01*
X70750000Y-129380952D01*
X70797619Y-129190476D01*
X70845238Y-129095238D01*
X70940476Y-129000000D01*
X71083333Y-128952380D01*
X71178571Y-128952380D01*
X71321428Y-129000000D01*
X71369047Y-129047619D01*
X57464285Y-129904761D02*
X57607142Y-129952380D01*
X57845238Y-129952380D01*
X57940476Y-129904761D01*
X57988095Y-129857142D01*
X58035714Y-129761904D01*
X58035714Y-129666666D01*
X57988095Y-129571428D01*
X57940476Y-129523809D01*
X57845238Y-129476190D01*
X57654761Y-129428571D01*
X57559523Y-129380952D01*
X57511904Y-129333333D01*
X57464285Y-129238095D01*
X57464285Y-129142857D01*
X57511904Y-129047619D01*
X57559523Y-129000000D01*
X57654761Y-128952380D01*
X57892857Y-128952380D01*
X58035714Y-129000000D01*
D10*
X46928571Y-129607142D02*
X48071428Y-129607142D01*
X44178571Y-129607142D02*
X45321428Y-129607142D01*
X44750000Y-130178571D02*
X44750000Y-129035714D01*
D11*
X97238095Y-128952380D02*
X97428571Y-128952380D01*
X97523809Y-129000000D01*
X97619047Y-129095238D01*
X97666666Y-129285714D01*
X97666666Y-129619047D01*
X97619047Y-129809523D01*
X97523809Y-129904761D01*
X97428571Y-129952380D01*
X97238095Y-129952380D01*
X97142857Y-129904761D01*
X97047619Y-129809523D01*
X97000000Y-129619047D01*
X97000000Y-129285714D01*
X97047619Y-129095238D01*
X97142857Y-129000000D01*
X97238095Y-128952380D01*
X98095238Y-128952380D02*
X98095238Y-129761904D01*
X98142857Y-129857142D01*
X98190476Y-129904761D01*
X98285714Y-129952380D01*
X98476190Y-129952380D01*
X98571428Y-129904761D01*
X98619047Y-129857142D01*
X98666666Y-129761904D01*
X98666666Y-128952380D01*
X99000000Y-128952380D02*
X99571428Y-128952380D01*
X99285714Y-129952380D02*
X99285714Y-128952380D01*
X99666666Y-130047619D02*
X100428571Y-130047619D01*
X100523809Y-128952380D02*
X101095238Y-128952380D01*
X100809523Y-129952380D02*
X100809523Y-128952380D01*
X87666666Y-129428571D02*
X87333333Y-129428571D01*
X87333333Y-129952380D02*
X87333333Y-128952380D01*
X87809523Y-128952380D01*
X88142857Y-129904761D02*
X88285714Y-129952380D01*
X88523809Y-129952380D01*
X88619047Y-129904761D01*
X88666666Y-129857142D01*
X88714285Y-129761904D01*
X88714285Y-129666666D01*
X88666666Y-129571428D01*
X88619047Y-129523809D01*
X88523809Y-129476190D01*
X88333333Y-129428571D01*
X88238095Y-129380952D01*
X88190476Y-129333333D01*
X88142857Y-129238095D01*
X88142857Y-129142857D01*
X88190476Y-129047619D01*
X88238095Y-129000000D01*
X88333333Y-128952380D01*
X88571428Y-128952380D01*
X88714285Y-129000000D01*
D10*
X109596428Y-59337857D02*
X108096428Y-59837857D01*
X109596428Y-60337857D01*
X108096428Y-61480714D02*
X108882142Y-61480714D01*
X109025000Y-61409285D01*
X109096428Y-61266428D01*
X109096428Y-60980714D01*
X109025000Y-60837857D01*
X108167857Y-61480714D02*
X108096428Y-61337857D01*
X108096428Y-60980714D01*
X108167857Y-60837857D01*
X108310714Y-60766428D01*
X108453571Y-60766428D01*
X108596428Y-60837857D01*
X108667857Y-60980714D01*
X108667857Y-61337857D01*
X108739285Y-61480714D01*
X108096428Y-62409285D02*
X108167857Y-62266428D01*
X108310714Y-62195000D01*
X109596428Y-62195000D01*
X109096428Y-62837857D02*
X108096428Y-63195000D01*
X109096428Y-63552142D01*
X108167857Y-64695000D02*
X108096428Y-64552142D01*
X108096428Y-64266428D01*
X108167857Y-64123571D01*
X108310714Y-64052142D01*
X108882142Y-64052142D01*
X109025000Y-64123571D01*
X109096428Y-64266428D01*
X109096428Y-64552142D01*
X109025000Y-64695000D01*
X108882142Y-64766428D01*
X108739285Y-64766428D01*
X108596428Y-64052142D01*
X109596428Y-66409285D02*
X108096428Y-66766428D01*
X109167857Y-67052142D01*
X108096428Y-67337857D01*
X109596428Y-67695000D01*
X108096428Y-68266428D02*
X109096428Y-68266428D01*
X109596428Y-68266428D02*
X109525000Y-68195000D01*
X109453571Y-68266428D01*
X109525000Y-68337857D01*
X109596428Y-68266428D01*
X109453571Y-68266428D01*
X109096428Y-68837857D02*
X109096428Y-69623571D01*
X108096428Y-68837857D01*
X108096428Y-69623571D01*
X108096428Y-70837857D02*
X108882142Y-70837857D01*
X109025000Y-70766428D01*
X109096428Y-70623571D01*
X109096428Y-70337857D01*
X109025000Y-70195000D01*
X108167857Y-70837857D02*
X108096428Y-70695000D01*
X108096428Y-70337857D01*
X108167857Y-70195000D01*
X108310714Y-70123571D01*
X108453571Y-70123571D01*
X108596428Y-70195000D01*
X108667857Y-70337857D01*
X108667857Y-70695000D01*
X108739285Y-70837857D01*
X108096428Y-71552142D02*
X109096428Y-71552142D01*
X108810714Y-71552142D02*
X108953571Y-71623571D01*
X109025000Y-71695000D01*
X109096428Y-71837857D01*
X109096428Y-71980714D01*
X108096428Y-73123571D02*
X109596428Y-73123571D01*
X108167857Y-73123571D02*
X108096428Y-72980714D01*
X108096428Y-72695000D01*
X108167857Y-72552142D01*
X108239285Y-72480714D01*
X108382142Y-72409285D01*
X108810714Y-72409285D01*
X108953571Y-72480714D01*
X109025000Y-72552142D01*
X109096428Y-72695000D01*
X109096428Y-72980714D01*
X109025000Y-73123571D01*
X108239285Y-75837857D02*
X108167857Y-75766428D01*
X108096428Y-75552142D01*
X108096428Y-75409285D01*
X108167857Y-75195000D01*
X108310714Y-75052142D01*
X108453571Y-74980714D01*
X108739285Y-74909285D01*
X108953571Y-74909285D01*
X109239285Y-74980714D01*
X109382142Y-75052142D01*
X109525000Y-75195000D01*
X109596428Y-75409285D01*
X109596428Y-75552142D01*
X109525000Y-75766428D01*
X109453571Y-75837857D01*
X108096428Y-77123571D02*
X108882142Y-77123571D01*
X109025000Y-77052142D01*
X109096428Y-76909285D01*
X109096428Y-76623571D01*
X109025000Y-76480714D01*
X108167857Y-77123571D02*
X108096428Y-76980714D01*
X108096428Y-76623571D01*
X108167857Y-76480714D01*
X108310714Y-76409285D01*
X108453571Y-76409285D01*
X108596428Y-76480714D01*
X108667857Y-76623571D01*
X108667857Y-76980714D01*
X108739285Y-77123571D01*
X108096428Y-77837857D02*
X109596428Y-77837857D01*
X109025000Y-77837857D02*
X109096428Y-77980714D01*
X109096428Y-78266428D01*
X109025000Y-78409285D01*
X108953571Y-78480714D01*
X108810714Y-78552142D01*
X108382142Y-78552142D01*
X108239285Y-78480714D01*
X108167857Y-78409285D01*
X108096428Y-78266428D01*
X108096428Y-77980714D01*
X108167857Y-77837857D01*
X108167857Y-80266428D02*
X108096428Y-80480714D01*
X108096428Y-80837857D01*
X108167857Y-80980714D01*
X108239285Y-81052142D01*
X108382142Y-81123571D01*
X108525000Y-81123571D01*
X108667857Y-81052142D01*
X108739285Y-80980714D01*
X108810714Y-80837857D01*
X108882142Y-80552142D01*
X108953571Y-80409285D01*
X109025000Y-80337857D01*
X109167857Y-80266428D01*
X109310714Y-80266428D01*
X109453571Y-80337857D01*
X109525000Y-80409285D01*
X109596428Y-80552142D01*
X109596428Y-80909285D01*
X109525000Y-81123571D01*
X108096428Y-81766428D02*
X109096428Y-81766428D01*
X109596428Y-81766428D02*
X109525000Y-81695000D01*
X109453571Y-81766428D01*
X109525000Y-81837857D01*
X109596428Y-81766428D01*
X109453571Y-81766428D01*
X108096428Y-82480714D02*
X109096428Y-82480714D01*
X108953571Y-82480714D02*
X109025000Y-82552142D01*
X109096428Y-82695000D01*
X109096428Y-82909285D01*
X109025000Y-83052142D01*
X108882142Y-83123571D01*
X108096428Y-83123571D01*
X108882142Y-83123571D02*
X109025000Y-83195000D01*
X109096428Y-83337857D01*
X109096428Y-83552142D01*
X109025000Y-83695000D01*
X108882142Y-83766428D01*
X108096428Y-83766428D01*
X105546428Y-59552142D02*
X107046428Y-59552142D01*
X107046428Y-60123571D01*
X106975000Y-60266428D01*
X106903571Y-60337857D01*
X106760714Y-60409285D01*
X106546428Y-60409285D01*
X106403571Y-60337857D01*
X106332142Y-60266428D01*
X106260714Y-60123571D01*
X106260714Y-59552142D01*
X105689285Y-61909285D02*
X105617857Y-61837857D01*
X105546428Y-61623571D01*
X105546428Y-61480714D01*
X105617857Y-61266428D01*
X105760714Y-61123571D01*
X105903571Y-61052142D01*
X106189285Y-60980714D01*
X106403571Y-60980714D01*
X106689285Y-61052142D01*
X106832142Y-61123571D01*
X106975000Y-61266428D01*
X107046428Y-61480714D01*
X107046428Y-61623571D01*
X106975000Y-61837857D01*
X106903571Y-61909285D01*
X106332142Y-63052142D02*
X106260714Y-63266428D01*
X106189285Y-63337857D01*
X106046428Y-63409285D01*
X105832142Y-63409285D01*
X105689285Y-63337857D01*
X105617857Y-63266428D01*
X105546428Y-63123571D01*
X105546428Y-62552142D01*
X107046428Y-62552142D01*
X107046428Y-63052142D01*
X106975000Y-63195000D01*
X106903571Y-63266428D01*
X106760714Y-63337857D01*
X106617857Y-63337857D01*
X106475000Y-63266428D01*
X106403571Y-63195000D01*
X106332142Y-63052142D01*
X106332142Y-62552142D01*
X106546428Y-65052142D02*
X105546428Y-65409285D01*
X106546428Y-65766428D01*
X105546428Y-67123571D02*
X105546428Y-66266428D01*
X105546428Y-66695000D02*
X107046428Y-66695000D01*
X106832142Y-66552142D01*
X106689285Y-66409285D01*
X106617857Y-66266428D01*
X105689285Y-67766428D02*
X105617857Y-67837857D01*
X105546428Y-67766428D01*
X105617857Y-67695000D01*
X105689285Y-67766428D01*
X105546428Y-67766428D01*
X107046428Y-68766428D02*
X107046428Y-68909285D01*
X106975000Y-69052142D01*
X106903571Y-69123571D01*
X106760714Y-69195000D01*
X106475000Y-69266428D01*
X106117857Y-69266428D01*
X105832142Y-69195000D01*
X105689285Y-69123571D01*
X105617857Y-69052142D01*
X105546428Y-68909285D01*
X105546428Y-68766428D01*
X105617857Y-68623571D01*
X105689285Y-68552142D01*
X105832142Y-68480714D01*
X106117857Y-68409285D01*
X106475000Y-68409285D01*
X106760714Y-68480714D01*
X106903571Y-68552142D01*
X106975000Y-68623571D01*
X107046428Y-68766428D01*
D12*
X112000000Y-57000000D02*
X112000000Y-131000000D01*
X39000000Y-57000000D02*
X112000000Y-57000000D01*
X39000000Y-131000000D02*
X39000000Y-57000000D01*
X112000000Y-131000000D02*
X39000000Y-131000000D01*
D13*
%TO.P,U1,8*%
%TO.N,9V*%
X86620000Y-100000000D03*
%TO.P,U1,4*%
%TO.N,IN_S*%
X79000000Y-107620000D03*
%TO.P,U1,7*%
%TO.N,Net-(Q1-Pad2)*%
X86620000Y-102540000D03*
%TO.P,U1,3*%
%TO.N,Net-(C3-Pad2)*%
X79000000Y-105080000D03*
%TO.P,U1,6*%
%TO.N,Net-(Q1-Pad3)*%
X86620000Y-105080000D03*
%TO.P,U1,2*%
%TO.N,Net-(C4-Pad1)*%
X79000000Y-102540000D03*
%TO.P,U1,5*%
%TO.N,Net-(RV2-Pad2)*%
X86620000Y-107620000D03*
D14*
%TO.P,U1,1*%
%TO.N,Net-(C6-Pad2)*%
X79000000Y-100000000D03*
%TD*%
D15*
%TO.P,J4,2*%
%TO.N,IN_R*%
X47270000Y-126940000D03*
D16*
%TO.P,J4,1*%
%TO.N,Net-(J3-Pad3)*%
X44730000Y-126940000D03*
%TD*%
%TO.P,J7,1*%
%TO.N,Net-(C12-Pad1)*%
X103500000Y-127000000D03*
%TD*%
D17*
%TO.P,RV2,3*%
%TO.N,Net-(C10-Pad1)*%
X105610000Y-91200000D03*
%TO.P,RV2,2*%
%TO.N,Net-(RV2-Pad2)*%
X100610000Y-91200000D03*
%TO.P,RV2,1*%
%TO.N,Net-(C8-Pad2)*%
X95610000Y-91200000D03*
%TD*%
%TO.P,RV1,3*%
%TO.N,Net-(R12-Pad2)*%
X56550000Y-91200000D03*
%TO.P,RV1,2*%
%TO.N,Net-(C4-Pad2)*%
X51550000Y-91200000D03*
%TO.P,RV1,1*%
%TO.N,Net-(R11-Pad1)*%
X46550000Y-91200000D03*
%TD*%
D15*
%TO.P,J6,2*%
%TO.N,FS_NC1*%
X67070000Y-126970000D03*
D16*
%TO.P,J6,1*%
%TO.N,FS_IN*%
X64530000Y-126970000D03*
%TD*%
%TO.P,J5,1*%
%TO.N,FS_NC2*%
X88000000Y-127000000D03*
%TD*%
%TO.P,J2,1*%
%TO.N,FS_IN2*%
X99250000Y-127000000D03*
%TD*%
D15*
%TO.P,J1,3*%
%TO.N,IN_R*%
X55350000Y-126970000D03*
%TO.P,J1,2*%
%TO.N,IN_S*%
X57890000Y-126970000D03*
D16*
%TO.P,J1,1*%
%TO.N,FS_IN*%
X60430000Y-126970000D03*
%TD*%
D18*
%TO.P,C12,2*%
%TO.N,IN_S*%
X103740000Y-118980000D03*
D19*
%TO.P,C12,1*%
%TO.N,Net-(C12-Pad1)*%
X106240000Y-118980000D03*
%TD*%
D18*
%TO.P,C7,2*%
%TO.N,IN_S*%
X70000000Y-92000000D03*
%TO.P,C7,1*%
%TO.N,Net-(C7-Pad1)*%
X70000000Y-97000000D03*
%TD*%
%TO.P,C8,2*%
%TO.N,Net-(C8-Pad2)*%
X79900000Y-95500000D03*
%TO.P,C8,1*%
%TO.N,Net-(C6-Pad2)*%
X74900000Y-95500000D03*
%TD*%
%TO.P,C5,2*%
%TO.N,IN_S*%
X44500000Y-118000000D03*
%TO.P,C5,1*%
%TO.N,Net-(C5-Pad1)*%
X44500000Y-113000000D03*
%TD*%
D20*
%TO.P,R18,2*%
%TO.N,Net-(Q3-Pad1)*%
X78100000Y-123920000D03*
D18*
%TO.P,R18,1*%
%TO.N,Net-(D2-Pad1)*%
X78100000Y-116300000D03*
%TD*%
D20*
%TO.P,R17,2*%
%TO.N,IN_S*%
X107500000Y-106500000D03*
D18*
%TO.P,R17,1*%
%TO.N,FS_IN2*%
X107500000Y-114120000D03*
%TD*%
D20*
%TO.P,R16,2*%
%TO.N,Net-(Q1-Pad3)*%
X103000000Y-106380000D03*
D18*
%TO.P,R16,1*%
%TO.N,Net-(C11-Pad1)*%
X103000000Y-114000000D03*
%TD*%
D20*
%TO.P,R15,2*%
%TO.N,Net-(Q1-Pad2)*%
X98000000Y-98480000D03*
D18*
%TO.P,R15,1*%
%TO.N,Net-(Q1-Pad3)*%
X98000000Y-106100000D03*
%TD*%
D20*
%TO.P,R14,2*%
%TO.N,Net-(C9-Pad1)*%
X79700000Y-83900000D03*
D18*
%TO.P,R14,1*%
%TO.N,Net-(C8-Pad2)*%
X79700000Y-91520000D03*
%TD*%
D20*
%TO.P,R13,2*%
%TO.N,Net-(C6-Pad2)*%
X75200000Y-91500000D03*
D18*
%TO.P,R13,1*%
%TO.N,Net-(C9-Pad1)*%
X75200000Y-83880000D03*
%TD*%
D20*
%TO.P,R12,2*%
%TO.N,Net-(R12-Pad2)*%
X65000000Y-89600000D03*
D18*
%TO.P,R12,1*%
%TO.N,Net-(C7-Pad1)*%
X65000000Y-97220000D03*
%TD*%
D20*
%TO.P,R11,2*%
%TO.N,Net-(C5-Pad1)*%
X44500000Y-109620000D03*
D18*
%TO.P,R11,1*%
%TO.N,Net-(R11-Pad1)*%
X44500000Y-102000000D03*
%TD*%
D20*
%TO.P,R10,2*%
%TO.N,Net-(C7-Pad1)*%
X64880000Y-101500000D03*
D18*
%TO.P,R10,1*%
%TO.N,Net-(C6-Pad2)*%
X72500000Y-101500000D03*
%TD*%
D20*
%TO.P,R9,2*%
%TO.N,Net-(C4-Pad2)*%
X72120000Y-106400000D03*
D18*
%TO.P,R9,1*%
%TO.N,Net-(C7-Pad1)*%
X64500000Y-106400000D03*
%TD*%
D20*
%TO.P,R8,2*%
%TO.N,Net-(C5-Pad1)*%
X49000000Y-102000000D03*
D18*
%TO.P,R8,1*%
%TO.N,Net-(C4-Pad2)*%
X49000000Y-109620000D03*
%TD*%
D20*
%TO.P,R7,2*%
%TO.N,Net-(C4-Pad1)*%
X59600000Y-102000000D03*
D18*
%TO.P,R7,1*%
%TO.N,Net-(C5-Pad1)*%
X51980000Y-102000000D03*
%TD*%
D20*
%TO.P,R6,2*%
%TO.N,4.5V*%
X86900000Y-83900000D03*
D18*
%TO.P,R6,1*%
%TO.N,Net-(C3-Pad2)*%
X86900000Y-91520000D03*
%TD*%
D20*
%TO.P,R5,2*%
%TO.N,FS_NC1*%
X62000000Y-123620000D03*
D18*
%TO.P,R5,1*%
%TO.N,Net-(C3-Pad1)*%
X62000000Y-116000000D03*
%TD*%
D20*
%TO.P,R4,2*%
%TO.N,IN_S*%
X67000000Y-116000000D03*
D18*
%TO.P,R4,1*%
%TO.N,FS_NC1*%
X67000000Y-123620000D03*
%TD*%
D20*
%TO.P,R3,2*%
%TO.N,IN_S*%
X82080000Y-69100000D03*
D18*
%TO.P,R3,1*%
%TO.N,4.5V*%
X89700000Y-69100000D03*
%TD*%
D20*
%TO.P,R2,2*%
%TO.N,4.5V*%
X89700000Y-65100000D03*
D18*
%TO.P,R2,1*%
%TO.N,9V*%
X82080000Y-65100000D03*
%TD*%
D20*
%TO.P,R1,2*%
%TO.N,Net-(J3-Pad2)*%
X71080000Y-69100000D03*
D18*
%TO.P,R1,1*%
%TO.N,9V*%
X78700000Y-69100000D03*
%TD*%
D21*
%TO.P,Q3,1*%
%TO.N,Net-(Q3-Pad1)*%
X85200000Y-121300000D03*
D22*
%TO.P,Q3,3*%
%TO.N,Net-(D3-Pad2)*%
X85200000Y-118760000D03*
%TO.P,Q3,2*%
%TO.N,FS_NC2*%
X85200000Y-120030000D03*
%TD*%
D21*
%TO.P,Q2,1*%
%TO.N,IN_S*%
X103000000Y-101000000D03*
D22*
%TO.P,Q2,3*%
%TO.N,Net-(Q1-Pad3)*%
X103000000Y-103540000D03*
%TO.P,Q2,2*%
%TO.N,Net-(Q1-Pad2)*%
X103000000Y-102270000D03*
%TD*%
D21*
%TO.P,Q1,1*%
%TO.N,9V*%
X92000000Y-101000000D03*
D22*
%TO.P,Q1,3*%
%TO.N,Net-(Q1-Pad3)*%
X92000000Y-103540000D03*
%TO.P,Q1,2*%
%TO.N,Net-(Q1-Pad2)*%
X92000000Y-102270000D03*
%TD*%
D23*
%TO.P,D3,2*%
%TO.N,Net-(D3-Pad2)*%
X74000000Y-116000000D03*
D24*
%TO.P,D3,1*%
%TO.N,IN_S*%
X71460000Y-116000000D03*
%TD*%
D25*
%TO.P,C9,2*%
%TO.N,IN_S*%
X64200000Y-80300000D03*
%TO.P,C9,1*%
%TO.N,Net-(C9-Pad1)*%
X71700000Y-80300000D03*
%TD*%
D18*
%TO.P,C6,2*%
%TO.N,Net-(C6-Pad2)*%
X68400000Y-110100000D03*
%TO.P,C6,1*%
%TO.N,Net-(C4-Pad2)*%
X63400000Y-110100000D03*
%TD*%
%TO.P,C4,2*%
%TO.N,Net-(C4-Pad2)*%
X55500000Y-106500000D03*
%TO.P,C4,1*%
%TO.N,Net-(C4-Pad1)*%
X60500000Y-106500000D03*
%TD*%
D26*
%TO.P,J3,1*%
%TO.N,IN_S*%
X67700000Y-65100000D03*
D27*
%TO.P,J3,2*%
%TO.N,Net-(J3-Pad2)*%
X67700000Y-59300000D03*
D28*
%TO.P,J3,3*%
%TO.N,Net-(J3-Pad3)*%
X62900000Y-62100000D03*
%TD*%
D20*
%TO.P,D5,2*%
%TO.N,Net-(C3-Pad1)*%
X57500000Y-116100000D03*
D19*
%TO.P,D5,1*%
%TO.N,IN_S*%
X49880000Y-116100000D03*
%TD*%
D20*
%TO.P,D4,2*%
%TO.N,IN_S*%
X49880000Y-119500000D03*
D19*
%TO.P,D4,1*%
%TO.N,Net-(C3-Pad1)*%
X57500000Y-119500000D03*
%TD*%
D29*
%TO.P,D2,2*%
%TO.N,FS_NC2*%
X87660000Y-112500000D03*
D30*
%TO.P,D2,1*%
%TO.N,Net-(D2-Pad1)*%
X77500000Y-112500000D03*
%TD*%
D29*
%TO.P,D1,2*%
%TO.N,IN_S*%
X84700000Y-60100000D03*
D30*
%TO.P,D1,1*%
%TO.N,9V*%
X74540000Y-60100000D03*
%TD*%
D25*
%TO.P,C11,2*%
%TO.N,FS_IN2*%
X95200000Y-119000000D03*
D31*
%TO.P,C11,1*%
%TO.N,Net-(C11-Pad1)*%
X95200000Y-114000000D03*
%TD*%
D18*
%TO.P,C10,2*%
%TO.N,IN_S*%
X107000000Y-97470000D03*
D19*
%TO.P,C10,1*%
%TO.N,Net-(C10-Pad1)*%
X107000000Y-94970000D03*
%TD*%
D18*
%TO.P,C3,2*%
%TO.N,Net-(C3-Pad2)*%
X75500000Y-104500000D03*
%TO.P,C3,1*%
%TO.N,Net-(C3-Pad1)*%
X75500000Y-109500000D03*
%TD*%
%TO.P,C2,2*%
%TO.N,IN_S*%
X96300000Y-65200000D03*
D19*
%TO.P,C2,1*%
%TO.N,4.5V*%
X93800000Y-65200000D03*
%TD*%
D25*
%TO.P,C1,2*%
%TO.N,IN_S*%
X79600000Y-77000000D03*
D31*
%TO.P,C1,1*%
%TO.N,9V*%
X84600000Y-77000000D03*
%TD*%
D32*
%TO.N,9V*%
X74540000Y-60100000D02*
X74540000Y-64940000D01*
X74540000Y-64940000D02*
X78700000Y-69100000D01*
X82080000Y-65100000D02*
X82080000Y-65720000D01*
X82080000Y-65720000D02*
X78700000Y-69100000D01*
X78700000Y-69100000D02*
X78800000Y-69200000D01*
X84600000Y-85300000D02*
X84600000Y-77000000D01*
X89600000Y-90300000D02*
X84600000Y-85300000D01*
X89600000Y-100000000D02*
X89600000Y-90300000D01*
X84600000Y-75000000D02*
X84600000Y-77100000D01*
X78700000Y-69100000D02*
X84600000Y-75000000D01*
X91120000Y-100000000D02*
X91960000Y-100840000D01*
X89600000Y-100000000D02*
X91120000Y-100000000D01*
X86600000Y-100000000D02*
X86700000Y-100000000D01*
X86620000Y-100000000D02*
X89600000Y-100000000D01*
D33*
%TO.N,4.5V*%
X89700000Y-69100000D02*
X89700000Y-65200000D01*
X89700000Y-65200000D02*
X89800000Y-65100000D01*
X89700000Y-69200000D02*
X89900000Y-69000000D01*
X89600000Y-81200000D02*
X89600000Y-69000000D01*
X86900000Y-83900000D02*
X89600000Y-81200000D01*
X93800000Y-65200000D02*
X89800000Y-65200000D01*
%TO.N,Net-(C3-Pad2)*%
X76100000Y-105100000D02*
X79000000Y-105100000D01*
X75500000Y-104500000D02*
X76100000Y-105100000D01*
X86800000Y-91700000D02*
X86800000Y-91600000D01*
%TO.N,Net-(C3-Pad1)*%
X57500000Y-119500000D02*
X57500000Y-116000000D01*
X57500000Y-116000000D02*
X62000000Y-116000000D01*
X71300000Y-113600000D02*
X75500000Y-109400000D01*
X64400000Y-113600000D02*
X71300000Y-113600000D01*
X62000000Y-116000000D02*
X64400000Y-113600000D01*
%TO.N,Net-(C4-Pad2)*%
X55340000Y-109600000D02*
X55320000Y-109620000D01*
X62900000Y-109600000D02*
X55340000Y-109600000D01*
X63400000Y-110100000D02*
X62900000Y-109600000D01*
X56180000Y-109620000D02*
X56200000Y-109600000D01*
X49000000Y-109620000D02*
X56180000Y-109620000D01*
X72100000Y-109800000D02*
X72100000Y-106300000D01*
X69900000Y-112000000D02*
X72100000Y-109800000D01*
X65300000Y-112000000D02*
X69900000Y-112000000D01*
X63400000Y-110100000D02*
X65300000Y-112000000D01*
X55400000Y-95040000D02*
X51560000Y-91200000D01*
X55400000Y-109600000D02*
X55400000Y-95040000D01*
X55420000Y-109620000D02*
X55400000Y-109600000D01*
%TO.N,Net-(C4-Pad1)*%
X59600000Y-102000000D02*
X60500000Y-102900000D01*
X60500000Y-103860000D02*
X60500000Y-106500000D01*
X60500000Y-102900000D02*
X60500000Y-103860000D01*
X72880000Y-103890000D02*
X60530000Y-103890000D01*
X78480000Y-102200000D02*
X74570000Y-102200000D01*
X60530000Y-103890000D02*
X60500000Y-103860000D01*
X74570000Y-102200000D02*
X72880000Y-103890000D01*
X78800000Y-102520000D02*
X78480000Y-102200000D01*
X79000000Y-102540000D02*
X78720000Y-102260000D01*
X79070000Y-102520000D02*
X78800000Y-102520000D01*
%TO.N,Net-(C5-Pad1)*%
X48900000Y-102100000D02*
X51900000Y-102100000D01*
X44500000Y-106500000D02*
X48900000Y-102100000D01*
X51900000Y-102100000D02*
X52000000Y-102000000D01*
X44500000Y-113000000D02*
X44500000Y-106500000D01*
%TO.N,Net-(C6-Pad2)*%
X79000000Y-99500000D02*
X75000000Y-95500000D01*
X75000000Y-95300000D02*
X74900000Y-95400000D01*
X75000000Y-91700000D02*
X75000000Y-95300000D01*
X75200000Y-91500000D02*
X75000000Y-91700000D01*
X79000000Y-100000000D02*
X79000000Y-99500000D01*
X79000000Y-100000000D02*
X73900000Y-100000000D01*
X73900000Y-100000000D02*
X72600000Y-101300000D01*
%TO.N,Net-(C7-Pad1)*%
X64880000Y-101500000D02*
X64880000Y-97320000D01*
X64880000Y-97320000D02*
X65200000Y-97000000D01*
X65200000Y-97000000D02*
X70100000Y-97000000D01*
%TO.N,Net-(C8-Pad2)*%
X79700000Y-95300000D02*
X79900000Y-95500000D01*
X79700000Y-91520000D02*
X79700000Y-95300000D01*
D34*
%TO.N,Net-(C9-Pad1)*%
X75100000Y-83900000D02*
X71500000Y-80300000D01*
X79700000Y-83900000D02*
X75100000Y-83900000D01*
D33*
%TO.N,Net-(C10-Pad1)*%
X107000000Y-92590000D02*
X107000000Y-95000000D01*
X105610000Y-91200000D02*
X107000000Y-92590000D01*
%TO.N,Net-(C11-Pad1)*%
X103000000Y-114000000D02*
X95200000Y-114000000D01*
D34*
X95200000Y-114000000D02*
X95200000Y-114100000D01*
D33*
%TO.N,Net-(D2-Pad1)*%
X77500000Y-112500000D02*
X77500000Y-115700000D01*
X77500000Y-115700000D02*
X78000000Y-116200000D01*
%TO.N,Net-(D3-Pad2)*%
X74000000Y-116000000D02*
X76700000Y-118700000D01*
X76700000Y-118700000D02*
X85100000Y-118700000D01*
%TO.N,Net-(J3-Pad2)*%
X67700000Y-59300000D02*
X71000000Y-62600000D01*
X71000000Y-62600000D02*
X71000000Y-69100000D01*
D35*
%TO.N,Net-(J3-Pad3)*%
X42000000Y-124000000D02*
X44500000Y-126500000D01*
X42000000Y-77380000D02*
X42000000Y-124000000D01*
X57280000Y-62100000D02*
X42000000Y-77380000D01*
X62900000Y-62100000D02*
X57280000Y-62100000D01*
D33*
%TO.N,Net-(Q1-Pad3)*%
X91990000Y-104990000D02*
X92100000Y-105100000D01*
D34*
X103000000Y-103630000D02*
X103000000Y-106300000D01*
X103010000Y-103620000D02*
X103000000Y-103630000D01*
X91990000Y-103510000D02*
X91990000Y-104990000D01*
X92000000Y-103500000D02*
X91990000Y-103510000D01*
D33*
X102800000Y-106100000D02*
X97900000Y-106100000D01*
X103000000Y-106300000D02*
X102800000Y-106100000D01*
X97900000Y-106100000D02*
X96900000Y-105100000D01*
X93000000Y-105100000D02*
X86600000Y-105100000D01*
X96900000Y-105100000D02*
X93000000Y-105100000D01*
%TO.N,Net-(Q1-Pad2)*%
X98000000Y-98480000D02*
X98000000Y-102000000D01*
D34*
X92000000Y-102270000D02*
X92110000Y-102380000D01*
X92110000Y-102380000D02*
X92010000Y-102280000D01*
X92190000Y-102300000D02*
X92110000Y-102380000D01*
X102970000Y-102300000D02*
X92190000Y-102300000D01*
X103000000Y-102270000D02*
X102970000Y-102300000D01*
X86850000Y-102310000D02*
X91990000Y-102310000D01*
X86745010Y-102414990D02*
X86850000Y-102310000D01*
X91990000Y-102310000D02*
X92000000Y-102300000D01*
D33*
X86620000Y-102540000D02*
X86745010Y-102414990D01*
%TO.N,Net-(Q3-Pad1)*%
X78100000Y-123920000D02*
X82680000Y-123920000D01*
X82680000Y-123920000D02*
X85200000Y-121400000D01*
%TO.N,Net-(R11-Pad1)*%
X44500000Y-94000000D02*
X44500000Y-102000000D01*
X44500000Y-93500000D02*
X44500000Y-94000000D01*
X46570000Y-91430000D02*
X44500000Y-93500000D01*
X46570000Y-91180000D02*
X46570000Y-91430000D01*
%TO.N,Net-(R12-Pad2)*%
X63340000Y-91250000D02*
X64990000Y-89600000D01*
X56560000Y-91250000D02*
X63340000Y-91250000D01*
D34*
%TO.N,FS_IN2*%
X95150000Y-118960000D02*
X95220000Y-118890000D01*
D33*
X105100000Y-116500000D02*
X107500000Y-114100000D01*
X97800000Y-116500000D02*
X105100000Y-116500000D01*
X94840000Y-119460000D02*
X97800000Y-116500000D01*
D34*
X95150000Y-122150000D02*
X95150000Y-119000000D01*
X99250000Y-126250000D02*
X95150000Y-122150000D01*
X99250000Y-127000000D02*
X99250000Y-126250000D01*
D33*
%TO.N,FS_NC2*%
X87580000Y-112400000D02*
X87700000Y-112400000D01*
D34*
X87560000Y-120030000D02*
X87660000Y-119930000D01*
X85200000Y-120030000D02*
X87560000Y-120030000D01*
D33*
X87660000Y-112500000D02*
X87660000Y-119930000D01*
X87660000Y-126660000D02*
X88000000Y-127000000D01*
X87660000Y-119930000D02*
X87660000Y-126660000D01*
%TO.N,FS_IN*%
X60310000Y-127010000D02*
X64570000Y-127010000D01*
%TO.N,FS_NC1*%
X62000000Y-123620000D02*
X66980000Y-123620000D01*
X66980000Y-123620000D02*
X67060000Y-123700000D01*
X67200000Y-123800000D02*
X67000000Y-123800000D01*
X67040000Y-127000000D02*
X67040000Y-123660000D01*
X67040000Y-123660000D02*
X67100000Y-123600000D01*
%TO.N,IN_R*%
X55230000Y-127010000D02*
X47340000Y-127010000D01*
D34*
%TO.N,Net-(C12-Pad1)*%
X106300000Y-119340000D02*
X106080000Y-119120000D01*
X103500000Y-126250000D02*
X103500000Y-127000000D01*
X106240000Y-123510000D02*
X103500000Y-126250000D01*
X106240000Y-118980000D02*
X106240000Y-123510000D01*
%TD*%
M02*
