<?xml version="1.0" standalone="no"?>
 <!DOCTYPE svg PUBLIC "-//W3C//DTD SVG 1.1//EN" 
 "http://www.w3.org/Graphics/SVG/1.1/DTD/svg11.dtd"> 
<svg
  xmlns:svg="http://www.w3.org/2000/svg"
  xmlns="http://www.w3.org/2000/svg"
  xmlns:xlink="http://www.w3.org/1999/xlink"
  version="1.1"
  width="29.700220cm" height="21.000720cm" viewBox="0 0 116930 82680">
<title>SVG Picture created as Valve Wizard Cab Sim 3-Dwgs_User.svg date 2021/12/23 13:47:49 </title>
  <desc>Picture generated by PCBNEW </desc>
<g style="fill:#000000; fill-opacity:1;stroke:#000000; stroke-opacity:1;
stroke-linecap:round; stroke-linejoin:round;"
 transform="translate(0 0) scale(1 1)">
</g>
<g style="fill:#000000; fill-opacity:0.0; 
stroke:#000000; stroke-width:-0.000393701; stroke-opacity:1; 
stroke-linecap:round; stroke-linejoin:round;">
</g>
<g style="fill:#000000; fill-opacity:0.0; 
stroke:#000000; stroke-width:118.11; stroke-opacity:1; 
stroke-linecap:round; stroke-linejoin:round;">
<text x="20570.9" y="31791.3"
textLength="4424.45" font-size="1049.87" lengthAdjust="spacingAndGlyphs"
text-anchor="middle" opacity="0">Cabinet</text>
<path d="M18996 31678
L18958 31716
L18846 31753
L18771 31753
L18658 31716
L18583 31641
L18546 31566
L18508 31416
L18508 31303
L18546 31153
L18583 31078
L18658 31003
L18771 30966
L18846 30966
L18958 31003
L18996 31041
" />
<path d="M19670 31753
L19670 31341
L19633 31266
L19558 31228
L19408 31228
L19333 31266
" />
<path d="M19670 31716
L19595 31753
L19408 31753
L19333 31716
L19296 31641
L19296 31566
L19333 31491
L19408 31453
L19595 31453
L19670 31416
" />
<path d="M20045 31753
L20045 30966
" />
<path d="M20045 31266
L20120 31228
L20270 31228
L20345 31266
L20383 31303
L20420 31378
L20420 31603
L20383 31678
L20345 31716
L20270 31753
L20120 31753
L20045 31716
" />
<path d="M20758 31753
L20758 31228
" />
<path d="M20758 30966
L20720 31003
L20758 31041
L20795 31003
L20758 30966
L20758 31041
" />
<path d="M21133 31228
L21133 31753
" />
<path d="M21133 31303
L21170 31266
L21245 31228
L21358 31228
L21433 31266
L21470 31341
L21470 31753
" />
<path d="M22145 31716
L22070 31753
L21920 31753
L21845 31716
L21808 31641
L21808 31341
L21845 31266
L21920 31228
L22070 31228
L22145 31266
L22183 31341
L22183 31416
L21808 31491
" />
<path d="M22408 31228
L22708 31228
" />
<path d="M22520 30966
L22520 31641
L22558 31716
L22633 31753
L22708 31753
" />
<text x="39960.6" y="31692.9"
textLength="4390.51" font-size="1049.87" lengthAdjust="spacingAndGlyphs"
text-anchor="middle" opacity="0">Volume</text>
<path d="M37917 30868
L38179 31655
L38442 30868
" />
<path d="M38817 31655
L38742 31617
L38704 31580
L38667 31505
L38667 31280
L38704 31205
L38742 31167
L38817 31130
L38929 31130
L39004 31167
L39041 31205
L39079 31280
L39079 31505
L39041 31580
L39004 31617
L38929 31655
L38817 31655
" />
<path d="M39529 31655
L39454 31617
L39416 31542
L39416 30868
" />
<path d="M40166 31130
L40166 31655
" />
<path d="M39829 31130
L39829 31542
L39866 31617
L39941 31655
L40054 31655
L40129 31617
L40166 31580
" />
<path d="M40541 31655
L40541 31130
" />
<path d="M40541 31205
L40579 31167
L40654 31130
L40766 31130
L40841 31167
L40879 31242
L40879 31655
" />
<path d="M40879 31242
L40916 31167
L40991 31130
L41104 31130
L41179 31167
L41216 31242
L41216 31655
" />
<path d="M41891 31617
L41816 31655
L41666 31655
L41591 31617
L41554 31542
L41554 31242
L41591 31167
L41666 31130
L41816 31130
L41891 31167
L41929 31242
L41929 31317
L41554 31392
" />
<text x="14173.2" y="53937"
textLength="2403.26" font-size="1049.87" lengthAdjust="spacingAndGlyphs"
text-anchor="middle" opacity="0">OUT</text>
<path d="M13385 53112
L13535 53112
L13610 53149
L13685 53224
L13723 53374
L13723 53637
L13685 53787
L13610 53862
L13535 53899
L13385 53899
L13310 53862
L13235 53787
L13198 53637
L13198 53374
L13235 53224
L13310 53149
L13385 53112
" />
<path d="M14060 53112
L14060 53749
L14098 53824
L14135 53862
L14210 53899
L14360 53899
L14435 53862
L14473 53824
L14510 53749
L14510 53112
" />
<path d="M14773 53112
L15223 53112
" />
<path d="M14998 53899
L14998 53112
" />
<text x="46063" y="53937"
textLength="1353.39" font-size="1049.87" lengthAdjust="spacingAndGlyphs"
text-anchor="middle" opacity="0">IN</text>
<path d="M45650 53899
L45650 53112
" />
<path d="M46025 53899
L46025 53112
L46475 53899
L46475 53112
" />
</g>
<g style="fill:#000000; fill-opacity:0.0; 
stroke:#000000; stroke-width:39.3701; stroke-opacity:1; 
stroke-linecap:round; stroke-linejoin:round;">
</g>
<g style="fill:#000000; fill-opacity:1.0; 
stroke:#000000; stroke-width:39.3701; stroke-opacity:1; 
stroke-linecap:round; stroke-linejoin:round;">
<path style="fill:#000000; fill-opacity:1.0; 
stroke:#000000; stroke-width:39.3701; stroke-opacity:1; 
stroke-linecap:round; stroke-linejoin:round;fill-rule:evenodd;"
d="M 46850.4,51574.8
45669.3,52755.9
45669.3,50393.7
Z" /> 
<path style="fill:#000000; fill-opacity:1.0; 
stroke:#000000; stroke-width:39.3701; stroke-opacity:1; 
stroke-linecap:round; stroke-linejoin:round;fill-rule:evenodd;"
d="M 14566.9,52755.9
13385.8,51574.8
14566.9,50393.7
Z" /> 
</g>
<g style="fill:#000000; fill-opacity:0.0; 
stroke:#000000; stroke-width:39.3701; stroke-opacity:1; 
stroke-linecap:round; stroke-linejoin:round;">
</g>
<g style="fill:#000000; fill-opacity:0.0; 
stroke:#000000; stroke-width:98.4252; stroke-opacity:1; 
stroke-linecap:round; stroke-linejoin:round;">
<text x="30315" y="52755.9"
textLength="3753.09" font-size="1049.87" lengthAdjust="spacingAndGlyphs"
text-anchor="middle" opacity="0">12mm</text>
<path d="M29115 52718
L28665 52718
" />
<path d="M28890 52718
L28890 51931
L28815 52043
L28740 52118
L28665 52155
" />
<path d="M29415 52005
L29452 51968
L29527 51931
L29715 51931
L29790 51968
L29827 52005
L29865 52080
L29865 52155
L29827 52268
L29377 52718
L29865 52718
" />
<path d="M30202 52718
L30202 52193
" />
<path d="M30202 52268
L30239 52230
L30314 52193
L30427 52193
L30502 52230
L30539 52305
L30539 52718
" />
<path d="M30539 52305
L30577 52230
L30652 52193
L30764 52193
L30839 52230
L30877 52305
L30877 52718
" />
<path d="M31252 52718
L31252 52193
" />
<path d="M31252 52268
L31289 52230
L31364 52193
L31477 52193
L31552 52230
L31589 52305
L31589 52718
" />
<path d="M31589 52305
L31627 52230
L31702 52193
L31814 52193
L31889 52230
L31927 52305
L31927 52718
" />
</g>
<g style="fill:#000000; fill-opacity:0.0; 
stroke:#000000; stroke-width:59.0551; stroke-opacity:1; 
stroke-linecap:round; stroke-linejoin:round;">
<circle cx="30255" cy="51573.1" r="2362.2" /> 
</g>
<g style="fill:#000000; fill-opacity:0.0; 
stroke:#000000; stroke-width:39.3701; stroke-opacity:1; 
stroke-linecap:round; stroke-linejoin:round;">
<path d="M44384 16132
L44384 45266
" />
<path d="M15644 16132
L44384 16132
" />
<path d="M15644 45266
L15644 16132
" />
<path d="M44384 45266
L15644 45266
" />
</g>
<g style="fill:#000000; fill-opacity:0.0; 
stroke:#000000; stroke-width:19.685; stroke-opacity:1; 
stroke-linecap:round; stroke-linejoin:round;">
<path d="M47720 12598
L47720 58267
" />
<path d="M12287 58267
L47720 58267
" />
<path d="M12287 12598
L47720 12598
" />
<path d="M12287 12598
L12287 58267
" />
<g >
</g>
<g >
</g>
<g >
</g>
<g >
</g>
<g >
</g>
<g style="fill:#000000; fill-opacity:0.0; 
stroke:#000000; stroke-width:19.685; stroke-opacity:1; 
stroke-linecap:round; stroke-linejoin:round;">
</g>
<g style="fill:#000000; fill-opacity:0.0; 
stroke:#000000; stroke-width:39.3701; stroke-opacity:1; 
stroke-linecap:round; stroke-linejoin:round;">
<circle cx="39896.6" cy="25640.7" r="177.165" /> 
</g>
<g >
</g>
<g style="fill:#000000; fill-opacity:0.0; 
stroke:#000000; stroke-width:39.3701; stroke-opacity:1; 
stroke-linecap:round; stroke-linejoin:round;">
<circle cx="20605.2" cy="25668.3" r="177.165" /> 
</g>
<g >
</g>
<g >
</g>
<g >
</g>
<g >
</g>
<g >
</g>
<g >
</g>
<g >
</g>
<g >
</g>
<g >
</g>
<g >
</g>
<g >
</g>
<g >
</g>
<g >
</g>
<g >
</g>
<g >
</g>
<g >
</g>
<g >
</g>
<g >
</g>
<g >
</g>
<g >
</g>
<g >
</g>
<g >
</g>
<g >
</g>
<g >
</g>
<g >
</g>
<g >
</g>
<g >
</g>
<g >
</g>
<g >
</g>
<g >
</g>
<g >
</g>
<g >
</g>
<g >
</g>
<g >
</g>
<g >
</g>
<g >
</g>
<g >
</g>
<g >
</g>
<g >
</g>
<g >
</g>
<g >
</g>
<g >
</g>
<g >
</g>
<g >
</g>
<g >
</g>
<g >
</g>
<g >
</g>
</g> 
</svg>
