%TF.GenerationSoftware,KiCad,Pcbnew,(6.0.0-0)*%
%TF.CreationDate,2022-01-31T16:21:47-05:00*%
%TF.ProjectId,Valve Wizard Cab Sim,56616c76-6520-4576-997a-617264204361,rev?*%
%TF.SameCoordinates,PX187ff90PY69be500*%
%TF.FileFunction,AssemblyDrawing,Bot*%
%FSLAX46Y46*%
G04 Gerber Fmt 4.6, Leading zero omitted, Abs format (unit mm)*
G04 Created by KiCad (PCBNEW (6.0.0-0)) date 2022-01-31 16:21:47*
%MOMM*%
%LPD*%
G01*
G04 APERTURE LIST*
%TA.AperFunction,Profile*%
%ADD10C,0.100000*%
%TD*%
%ADD11C,0.150000*%
%TA.AperFunction,Profile*%
%ADD12C,0.500000*%
%TD*%
%ADD13C,0.100000*%
G04 APERTURE END LIST*
D10*
X5360000Y11071320D02*
G75*
G03*
X8360000Y8071320I3000001J1D01*
G01*
X95150000Y67390000D02*
G75*
G03*
X94640000Y67900000I-510002J-2D01*
G01*
X5900624Y67700072D02*
G75*
G03*
X5390624Y67190072I2J-510002D01*
G01*
X5360000Y11071320D02*
X5390624Y67190072D01*
X16910624Y78900073D02*
G75*
G03*
X16400624Y78410696I-1J-510434D01*
G01*
X84098752Y78389376D02*
G75*
G03*
X83588752Y78899376I-510002J-2D01*
G01*
X92140000Y8071320D02*
X8360000Y8071320D01*
X5900624Y67700072D02*
G75*
G03*
X16400624Y78410696I-473508J10966267D01*
G01*
X92140000Y8071320D02*
G75*
G03*
X95140000Y11071320I-1J3000001D01*
G01*
X84098752Y78389376D02*
G75*
G03*
X94640000Y67900000I10950523J463299D01*
G01*
X95150000Y67390000D02*
X95140000Y11071320D01*
X16910624Y78900072D02*
X83588752Y78899376D01*
D11*
%TO.C,RV2*%
X71135238Y50937723D02*
X71468571Y51413913D01*
X71706666Y50937723D02*
X71706666Y51937723D01*
X71325714Y51937723D01*
X71230476Y51890103D01*
X71182857Y51842484D01*
X71135238Y51747246D01*
X71135238Y51604389D01*
X71182857Y51509151D01*
X71230476Y51461532D01*
X71325714Y51413913D01*
X71706666Y51413913D01*
X70849523Y51937723D02*
X70516190Y50937723D01*
X70182857Y51937723D01*
X69897142Y51842484D02*
X69849523Y51890103D01*
X69754285Y51937723D01*
X69516190Y51937723D01*
X69420952Y51890103D01*
X69373333Y51842484D01*
X69325714Y51747246D01*
X69325714Y51652008D01*
X69373333Y51509151D01*
X69944761Y50937723D01*
X69325714Y50937723D01*
%TO.C,RV1*%
X19715238Y50947620D02*
X20048571Y51423810D01*
X20286666Y50947620D02*
X20286666Y51947620D01*
X19905714Y51947620D01*
X19810476Y51900000D01*
X19762857Y51852381D01*
X19715238Y51757143D01*
X19715238Y51614286D01*
X19762857Y51519048D01*
X19810476Y51471429D01*
X19905714Y51423810D01*
X20286666Y51423810D01*
X19429523Y51947620D02*
X19096190Y50947620D01*
X18762857Y51947620D01*
X17905714Y50947620D02*
X18477142Y50947620D01*
X18191428Y50947620D02*
X18191428Y51947620D01*
X18286666Y51804762D01*
X18381904Y51709524D01*
X18477142Y51661905D01*
D12*
%TO.C,RV2*%
X68940000Y53020103D02*
X72140000Y53020103D01*
X72140000Y53020103D02*
X72140000Y53620103D01*
X72140000Y53620103D02*
X68940000Y53620103D01*
X68940000Y53620103D02*
X68940000Y53020103D01*
G36*
X68940000Y53020103D02*
G01*
X72140000Y53020103D01*
X72140000Y53620103D01*
X68940000Y53620103D01*
X68940000Y53020103D01*
G37*
X68940000Y61420103D02*
X72140000Y61420103D01*
X72140000Y61420103D02*
X72140000Y62020103D01*
X72140000Y62020103D02*
X68940000Y62020103D01*
X68940000Y62020103D02*
X68940000Y61420103D01*
G36*
X68940000Y61420103D02*
G01*
X72140000Y61420103D01*
X72140000Y62020103D01*
X68940000Y62020103D01*
X68940000Y61420103D01*
G37*
D13*
X65690000Y51500103D02*
X65690000Y63500103D01*
X75390000Y63500103D02*
X75390000Y51500103D01*
X65690000Y62390103D02*
X75390000Y62390103D01*
X75390000Y51500103D02*
X65690000Y51500103D01*
X73540000Y57360103D02*
G75*
G03*
X73540000Y57360103I-3000000J0D01*
G01*
%TO.C,D3*%
X50045000Y23033810D02*
X50045000Y25366190D01*
X50045000Y23033810D02*
G75*
G03*
X50044445Y25365476I1500000J1166190D01*
G01*
X53045000Y24200000D02*
G75*
G03*
X53045000Y24200000I-1500000J0D01*
G01*
D12*
%TO.C,RV1*%
X17520000Y61430000D02*
X20720000Y61430000D01*
X20720000Y61430000D02*
X20720000Y62030000D01*
X20720000Y62030000D02*
X17520000Y62030000D01*
X17520000Y62030000D02*
X17520000Y61430000D01*
G36*
X17520000Y61430000D02*
G01*
X20720000Y61430000D01*
X20720000Y62030000D01*
X17520000Y62030000D01*
X17520000Y61430000D01*
G37*
X17520000Y53030000D02*
X20720000Y53030000D01*
X20720000Y53030000D02*
X20720000Y53630000D01*
X20720000Y53630000D02*
X17520000Y53630000D01*
X17520000Y53630000D02*
X17520000Y53030000D01*
G36*
X17520000Y53030000D02*
G01*
X20720000Y53030000D01*
X20720000Y53630000D01*
X17520000Y53630000D01*
X17520000Y53030000D01*
G37*
D13*
X23970000Y63510000D02*
X23970000Y51510000D01*
X14270000Y51510000D02*
X14270000Y63510000D01*
X14270000Y62400000D02*
X23970000Y62400000D01*
X23970000Y51510000D02*
X14270000Y51510000D01*
X22120000Y57370000D02*
G75*
G03*
X22120000Y57370000I-3000000J0D01*
G01*
%TD*%
M02*
