%TF.GenerationSoftware,KiCad,Pcbnew,(6.0.0-0)*%
%TF.CreationDate,2022-01-31T16:21:46-05:00*%
%TF.ProjectId,Valve Wizard Cab Sim,56616c76-6520-4576-997a-617264204361,rev?*%
%TF.SameCoordinates,PX187ff90PY69be500*%
%TF.FileFunction,Other,User*%
%FSLAX46Y46*%
G04 Gerber Fmt 4.6, Leading zero omitted, Abs format (unit mm)*
G04 Created by KiCad (PCBNEW (6.0.0-0)) date 2022-01-31 16:21:46*
%MOMM*%
%LPD*%
G01*
G04 APERTURE LIST*
%TA.AperFunction,Profile*%
%ADD10C,0.100000*%
%TD*%
%ADD11C,0.050000*%
%TA.AperFunction,Profile*%
%ADD12C,0.500000*%
%TD*%
G04 APERTURE END LIST*
D10*
X5360000Y11071320D02*
G75*
G03*
X8360000Y8071320I3000001J1D01*
G01*
X95150000Y67390000D02*
G75*
G03*
X94640000Y67900000I-510002J-2D01*
G01*
X5900624Y67700072D02*
G75*
G03*
X5390624Y67190072I2J-510002D01*
G01*
X5360000Y11071320D02*
X5390624Y67190072D01*
X16910624Y78900073D02*
G75*
G03*
X16400624Y78410696I-1J-510434D01*
G01*
X84098752Y78389376D02*
G75*
G03*
X83588752Y78899376I-510002J-2D01*
G01*
X92140000Y8071320D02*
X8360000Y8071320D01*
X5900624Y67700072D02*
G75*
G03*
X16400624Y78410696I-473508J10966267D01*
G01*
X92140000Y8071320D02*
G75*
G03*
X95140000Y11071320I-1J3000001D01*
G01*
X84098752Y78389376D02*
G75*
G03*
X94640000Y67900000I10950523J463299D01*
G01*
X95150000Y67390000D02*
X95140000Y11071320D01*
X16910624Y78900072D02*
X83588752Y78899376D01*
D11*
%TO.C,R17*%
X57000000Y19470000D02*
X57000000Y17230000D01*
X52100000Y17230000D02*
X52100000Y19470000D01*
X57000000Y17230000D02*
X52100000Y17230000D01*
X52100000Y19470000D02*
X57000000Y19470000D01*
%TO.C,R4*%
X42340000Y23905000D02*
X44580000Y23905000D01*
X44580000Y23905000D02*
X44580000Y19005000D01*
X42340000Y19005000D02*
X42340000Y23905000D01*
X44580000Y19005000D02*
X42340000Y19005000D01*
%TO.C,R10*%
X33910000Y48250000D02*
X38810000Y48250000D01*
X38810000Y48250000D02*
X38810000Y46010000D01*
X38810000Y46010000D02*
X33910000Y46010000D01*
X33910000Y46010000D02*
X33910000Y48250000D01*
%TO.C,C6*%
X43260000Y42570000D02*
X43260000Y50270000D01*
X40260000Y42570000D02*
X43260000Y42570000D01*
X40260000Y50270000D02*
X40260000Y42570000D01*
X43260000Y50270000D02*
X40260000Y50270000D01*
%TO.C,C14*%
X44915000Y27185000D02*
X44915000Y25725000D01*
X44915000Y25725000D02*
X41955000Y25725000D01*
X41955000Y25725000D02*
X41955000Y27185000D01*
X41955000Y27185000D02*
X44915000Y27185000D01*
%TO.C,J5*%
X36600000Y16860000D02*
X36600000Y10600000D01*
X36600000Y10600000D02*
X42750000Y10600000D01*
X42750000Y10600000D02*
X42750000Y16860000D01*
X42750000Y16860000D02*
X36600000Y16860000D01*
%TO.C,R2*%
X30960000Y68260000D02*
X26060000Y68260000D01*
X26060000Y68260000D02*
X26060000Y70500000D01*
X26060000Y70500000D02*
X30960000Y70500000D01*
X30960000Y70500000D02*
X30960000Y68260000D01*
%TO.C,R1*%
X42790000Y76580000D02*
X45030000Y76580000D01*
X45030000Y71680000D02*
X42790000Y71680000D01*
X45030000Y76580000D02*
X45030000Y71680000D01*
X42790000Y71680000D02*
X42790000Y76580000D01*
%TO.C,D5*%
X36560000Y19105000D02*
X38860000Y19105000D01*
X38860000Y23805000D02*
X38860000Y19105000D01*
X36560000Y19105000D02*
X36560000Y23805000D01*
X36560000Y23805000D02*
X38860000Y23805000D01*
%TO.C,C9*%
X59160000Y39530000D02*
X59160000Y47230000D01*
X56160000Y39530000D02*
X59160000Y39530000D01*
X56160000Y47230000D02*
X56160000Y39530000D01*
X59160000Y47230000D02*
X56160000Y47230000D01*
%TO.C,C1*%
X53300000Y54750000D02*
G75*
G03*
X53300000Y54750000I-5250000J0D01*
G01*
%TO.C,R5*%
X41830000Y23905000D02*
X41830000Y19005000D01*
X39590000Y23905000D02*
X41830000Y23905000D01*
X39590000Y19005000D02*
X39590000Y23905000D01*
X41830000Y19005000D02*
X39590000Y19005000D01*
%TO.C,R12*%
X28210000Y48510000D02*
X28210000Y50750000D01*
X33110000Y48510000D02*
X28210000Y48510000D01*
X28210000Y50750000D02*
X33110000Y50750000D01*
X33110000Y50750000D02*
X33110000Y48510000D01*
%TO.C,J4*%
X8900000Y17060000D02*
X8900000Y10800000D01*
X15050000Y17060000D02*
X8900000Y17060000D01*
X8900000Y10800000D02*
X15050000Y10800000D01*
X15050000Y10800000D02*
X15050000Y17060000D01*
%TO.C,R14*%
X54530000Y44780000D02*
X54530000Y39880000D01*
X54530000Y39880000D02*
X52290000Y39880000D01*
X52290000Y44780000D02*
X54530000Y44780000D01*
X52290000Y39880000D02*
X52290000Y44780000D01*
%TO.C,C2*%
X37335000Y62311000D02*
X37335000Y66011000D01*
X37335000Y66011000D02*
X45175000Y66011000D01*
X45175000Y66011000D02*
X45175000Y62311000D01*
X45175000Y62311000D02*
X37335000Y62311000D01*
%TO.C,R6*%
X33770000Y33160000D02*
X33770000Y38060000D01*
X36010000Y33160000D02*
X33770000Y33160000D01*
X33770000Y38060000D02*
X36010000Y38060000D01*
X36010000Y38060000D02*
X36010000Y33160000D01*
%TO.C,D2*%
X61565000Y30583000D02*
X59265000Y30583000D01*
X59265000Y25883000D02*
X59265000Y30583000D01*
X61565000Y30583000D02*
X61565000Y25883000D01*
X61565000Y25883000D02*
X59265000Y25883000D01*
%TO.C,J2*%
X58950000Y10600000D02*
X58950000Y16860000D01*
X52800000Y10600000D02*
X58950000Y10600000D01*
X58950000Y16860000D02*
X52800000Y16860000D01*
X52800000Y16860000D02*
X52800000Y10600000D01*
%TO.C,C8*%
X49120000Y40510000D02*
X49120000Y44270000D01*
X51080000Y40510000D02*
X49120000Y40510000D01*
X49120000Y44270000D02*
X51080000Y44270000D01*
X51080000Y44270000D02*
X51080000Y40510000D01*
%TO.C,R7*%
X28710000Y44342500D02*
X33610000Y44342500D01*
X28710000Y42102500D02*
X28710000Y44342500D01*
X33610000Y42102500D02*
X28710000Y42102500D01*
X33610000Y44342500D02*
X33610000Y42102500D01*
%TO.C,R18*%
X54540000Y28476000D02*
X54540000Y33376000D01*
X56780000Y28476000D02*
X54540000Y28476000D01*
X54540000Y33376000D02*
X56780000Y33376000D01*
X56780000Y33376000D02*
X56780000Y28476000D01*
%TO.C,R3*%
X26060000Y70710000D02*
X26060000Y72950000D01*
X30960000Y72950000D02*
X30960000Y70710000D01*
X30960000Y70710000D02*
X26060000Y70710000D01*
X26060000Y72950000D02*
X30960000Y72950000D01*
%TO.C,Q3*%
X60033000Y21306000D02*
X60033000Y25146000D01*
X56633000Y21306000D02*
X60033000Y21306000D01*
X60033000Y25146000D02*
X56633000Y25146000D01*
X56633000Y25146000D02*
X56633000Y21306000D01*
%TO.C,C4*%
X35510000Y46010000D02*
X35510000Y44250000D01*
X35510000Y44250000D02*
X34810000Y44250000D01*
X34810000Y46010000D02*
X35510000Y46010000D01*
X34810000Y44250000D02*
X34810000Y46010000D01*
%TO.C,U1*%
X36710000Y27280000D02*
X46510000Y27280000D01*
X46510000Y37980000D02*
X36710000Y37980000D01*
X46510000Y27280000D02*
X46510000Y37980000D01*
X36710000Y37980000D02*
X36710000Y27280000D01*
%TO.C,R9*%
X33870000Y50710000D02*
X38770000Y50710000D01*
X38770000Y48470000D02*
X33870000Y48470000D01*
X38770000Y50710000D02*
X38770000Y48470000D01*
X33870000Y48470000D02*
X33870000Y50710000D01*
%TO.C,J11*%
X70955000Y20654000D02*
X70965000Y25189000D01*
X94990000Y35384000D02*
X94990000Y25184000D01*
X92095000Y35364000D02*
X92095000Y40049000D01*
X92095000Y35364000D02*
X92137330Y35364292D01*
X94990000Y25184000D02*
X92075000Y25184000D01*
X70685000Y40049000D02*
X70695000Y35519000D01*
X94990000Y25184000D02*
X94990000Y25184000D01*
X70955000Y20654000D02*
X92085000Y20649000D01*
X92085000Y20649000D02*
X92075000Y25184000D01*
X92095000Y40049000D02*
X70685000Y40049000D01*
X68125000Y35524000D02*
X68120000Y25184000D01*
X68125000Y35524000D02*
X70695000Y35519000D01*
X92095000Y35364000D02*
X92095000Y35364000D01*
X94990000Y25184000D02*
X94990000Y25184000D01*
X92137330Y35364292D02*
X94990000Y35384000D01*
X68120000Y25184000D02*
X70965000Y25189000D01*
%TO.C,C12*%
X84621000Y19958000D02*
X84621000Y10958000D01*
X92321000Y10958000D02*
X92321000Y19958000D01*
X84621000Y10958000D02*
X92321000Y10958000D01*
X92321000Y19958000D02*
X84621000Y19958000D01*
%TO.C,R8*%
X28710000Y46750000D02*
X33610000Y46750000D01*
X33610000Y46750000D02*
X33610000Y44510000D01*
X33610000Y44510000D02*
X28710000Y44510000D01*
X28710000Y44510000D02*
X28710000Y46750000D01*
%TO.C,C10*%
X71210000Y48020000D02*
X74910000Y48020000D01*
X74910000Y40180000D02*
X71210000Y40180000D01*
X71210000Y40180000D02*
X71210000Y48020000D01*
X74910000Y48020000D02*
X74910000Y40180000D01*
%TO.C,R11*%
X28130000Y50020000D02*
X28130000Y45120000D01*
X25890000Y45120000D02*
X25890000Y50020000D01*
X28130000Y45120000D02*
X25890000Y45120000D01*
X25890000Y50020000D02*
X28130000Y50020000D01*
%TO.C,R16*%
X62790000Y32680000D02*
X62790000Y37580000D01*
X65030000Y37580000D02*
X65030000Y32680000D01*
X62790000Y37580000D02*
X65030000Y37580000D01*
X65030000Y32680000D02*
X62790000Y32680000D01*
%TO.C,J6*%
X44040000Y16880000D02*
X44040000Y10620000D01*
X50190000Y10620000D02*
X50190000Y16880000D01*
X44040000Y10620000D02*
X50190000Y10620000D01*
X50190000Y16880000D02*
X44040000Y16880000D01*
%TO.C,C3*%
X34097500Y31030000D02*
X34097500Y31730000D01*
X35857500Y31730000D02*
X35857500Y31030000D01*
X34097500Y31730000D02*
X35857500Y31730000D01*
X35857500Y31030000D02*
X34097500Y31030000D01*
%TO.C,R13*%
X52290000Y34380000D02*
X52290000Y39280000D01*
X54530000Y39280000D02*
X54530000Y34380000D01*
X54530000Y34380000D02*
X52290000Y34380000D01*
X52290000Y39280000D02*
X54530000Y39280000D01*
%TO.C,C13*%
X50402500Y36050000D02*
X46642500Y36050000D01*
X46642500Y38010000D02*
X50402500Y38010000D01*
X46642500Y36050000D02*
X46642500Y38010000D01*
X50402500Y38010000D02*
X50402500Y36050000D01*
%TO.C,C11*%
X71199000Y17840000D02*
G75*
G03*
X71199000Y17840000I-5250000J0D01*
G01*
%TO.C,R15*%
X49413000Y29847000D02*
X49413000Y34747000D01*
X51653000Y34747000D02*
X51653000Y29847000D01*
X51653000Y29847000D02*
X49413000Y29847000D01*
X49413000Y34747000D02*
X51653000Y34747000D01*
%TO.C,C7*%
X33410000Y60730000D02*
X30410000Y60730000D01*
X30410000Y53030000D02*
X33410000Y53030000D01*
X33410000Y53030000D02*
X33410000Y60730000D01*
X30410000Y60730000D02*
X30410000Y53030000D01*
%TO.C,J3*%
X46835000Y64900000D02*
X46835000Y63100000D01*
X46835000Y63100000D02*
X56835000Y63100000D01*
X46835000Y78800000D02*
X46835000Y70100000D01*
X45535000Y64900000D02*
X45535000Y70100000D01*
X45535000Y70100000D02*
X46835000Y70100000D01*
X45535000Y64900000D02*
X46835000Y64900000D01*
X56835000Y63100000D02*
X56835000Y78800000D01*
X56835000Y78800000D02*
X46835000Y78800000D01*
%TO.C,D4*%
X33560000Y19105000D02*
X33560000Y23805000D01*
X35860000Y23805000D02*
X33560000Y23805000D01*
X35860000Y19105000D02*
X33560000Y19105000D01*
X35860000Y23805000D02*
X35860000Y19105000D01*
%TO.C,C5*%
X16660000Y43272500D02*
X24360000Y43272500D01*
X24360000Y43272500D02*
X24360000Y46272500D01*
X24360000Y46272500D02*
X16660000Y46272500D01*
X16660000Y46272500D02*
X16660000Y43272500D01*
%TO.C,D1*%
X41060000Y77330000D02*
X41060000Y70330000D01*
X41060000Y70330000D02*
X37560000Y70330000D01*
X37560000Y70330000D02*
X37560000Y77330000D01*
X37560000Y77330000D02*
X41060000Y77330000D01*
%TO.C,J1*%
X24510000Y10620000D02*
X30660000Y10620000D01*
X30660000Y16880000D02*
X24510000Y16880000D01*
X24510000Y16880000D02*
X24510000Y10620000D01*
X30660000Y10620000D02*
X30660000Y16880000D01*
%TO.C,Q2*%
X59615000Y37003000D02*
X59615000Y33803000D01*
X62415000Y37003000D02*
X59615000Y37003000D01*
X62415000Y37003000D02*
X62415000Y33803000D01*
X59615000Y33803000D02*
X62415000Y33803000D01*
%TO.C,J10*%
X29795000Y20699000D02*
X29785000Y25229000D01*
X5490000Y25364000D02*
X5490000Y35564000D01*
X8395000Y40099000D02*
X8405000Y35564000D01*
X5490000Y35564000D02*
X5490000Y35564000D01*
X32355000Y25224000D02*
X29785000Y25229000D01*
X32360000Y35564000D02*
X29515000Y35559000D01*
X32355000Y25224000D02*
X32360000Y35564000D01*
X8385000Y25384000D02*
X8385000Y25384000D01*
X5490000Y35564000D02*
X8405000Y35564000D01*
X29525000Y40094000D02*
X29515000Y35559000D01*
X8342670Y25383708D02*
X5490000Y25364000D01*
X29525000Y40094000D02*
X8395000Y40099000D01*
X8385000Y25384000D02*
X8385000Y20699000D01*
X8385000Y20699000D02*
X29795000Y20699000D01*
X8385000Y25384000D02*
X8342670Y25383708D01*
X5490000Y35564000D02*
X5490000Y35564000D01*
D12*
%TO.C,RV2*%
X68940000Y53020103D02*
X72140000Y53020103D01*
X72140000Y53020103D02*
X72140000Y53620103D01*
X72140000Y53620103D02*
X68940000Y53620103D01*
X68940000Y53620103D02*
X68940000Y53020103D01*
G36*
X68940000Y53020103D02*
G01*
X72140000Y53020103D01*
X72140000Y53620103D01*
X68940000Y53620103D01*
X68940000Y53020103D01*
G37*
X68940000Y61420103D02*
X72140000Y61420103D01*
X72140000Y61420103D02*
X72140000Y62020103D01*
X72140000Y62020103D02*
X68940000Y62020103D01*
X68940000Y62020103D02*
X68940000Y61420103D01*
G36*
X68940000Y61420103D02*
G01*
X72140000Y61420103D01*
X72140000Y62020103D01*
X68940000Y62020103D01*
X68940000Y61420103D01*
G37*
D11*
%TO.C,D3*%
X49125000Y21950000D02*
X53975000Y21950000D01*
X53975000Y21950000D02*
X53975000Y26450000D01*
X53975000Y26450000D02*
X49125000Y26450000D01*
X49125000Y26450000D02*
X49125000Y21950000D01*
D12*
%TO.C,RV1*%
X17520000Y61430000D02*
X20720000Y61430000D01*
X20720000Y61430000D02*
X20720000Y62030000D01*
X20720000Y62030000D02*
X17520000Y62030000D01*
X17520000Y62030000D02*
X17520000Y61430000D01*
G36*
X17520000Y61430000D02*
G01*
X20720000Y61430000D01*
X20720000Y62030000D01*
X17520000Y62030000D01*
X17520000Y61430000D01*
G37*
X17520000Y53030000D02*
X20720000Y53030000D01*
X20720000Y53030000D02*
X20720000Y53630000D01*
X20720000Y53630000D02*
X17520000Y53630000D01*
X17520000Y53630000D02*
X17520000Y53030000D01*
G36*
X17520000Y53030000D02*
G01*
X20720000Y53030000D01*
X20720000Y53630000D01*
X17520000Y53630000D01*
X17520000Y53030000D01*
G37*
%TD*%
M02*
