%TF.GenerationSoftware,KiCad,Pcbnew,(6.0.0-0)*%
%TF.CreationDate,2022-01-31T16:21:44-05:00*%
%TF.ProjectId,Valve Wizard Cab Sim,56616c76-6520-4576-997a-617264204361,rev?*%
%TF.SameCoordinates,PX187ff90PY69be500*%
%TF.FileFunction,Paste,Top*%
%TF.FilePolarity,Positive*%
%FSLAX46Y46*%
G04 Gerber Fmt 4.6, Leading zero omitted, Abs format (unit mm)*
G04 Created by KiCad (PCBNEW (6.0.0-0)) date 2022-01-31 16:21:44*
%MOMM*%
%LPD*%
G01*
G04 APERTURE LIST*
G04 Aperture macros list*
%AMRoundRect*
0 Rectangle with rounded corners*
0 $1 Rounding radius*
0 $2 $3 $4 $5 $6 $7 $8 $9 X,Y pos of 4 corners*
0 Add a 4 corners polygon primitive as box body*
4,1,4,$2,$3,$4,$5,$6,$7,$8,$9,$2,$3,0*
0 Add four circle primitives for the rounded corners*
1,1,$1+$1,$2,$3*
1,1,$1+$1,$4,$5*
1,1,$1+$1,$6,$7*
1,1,$1+$1,$8,$9*
0 Add four rect primitives between the rounded corners*
20,1,$1+$1,$2,$3,$4,$5,0*
20,1,$1+$1,$4,$5,$6,$7,0*
20,1,$1+$1,$6,$7,$8,$9,0*
20,1,$1+$1,$8,$9,$2,$3,0*%
G04 Aperture macros list end*
%TA.AperFunction,Profile*%
%ADD10C,0.100000*%
%TD*%
%TA.AperFunction,Profile*%
%ADD11C,0.500000*%
%TD*%
%ADD12RoundRect,0.250000X0.400000X0.625000X-0.400000X0.625000X-0.400000X-0.625000X0.400000X-0.625000X0*%
%ADD13RoundRect,0.250000X0.625000X-0.400000X0.625000X0.400000X-0.625000X0.400000X-0.625000X-0.400000X0*%
%ADD14RoundRect,0.225000X0.225000X0.250000X-0.225000X0.250000X-0.225000X-0.250000X0.225000X-0.250000X0*%
%ADD15R,1.200000X0.900000*%
%ADD16RoundRect,0.250000X-0.625000X0.400000X-0.625000X-0.400000X0.625000X-0.400000X0.625000X0.400000X0*%
%ADD17RoundRect,0.250000X-0.875000X-0.925000X0.875000X-0.925000X0.875000X0.925000X-0.875000X0.925000X0*%
%ADD18RoundRect,0.250000X0.475000X-0.337500X0.475000X0.337500X-0.475000X0.337500X-0.475000X-0.337500X0*%
%ADD19RoundRect,0.250000X-0.400000X-0.625000X0.400000X-0.625000X0.400000X0.625000X-0.400000X0.625000X0*%
%ADD20RoundRect,0.150000X0.150000X-0.587500X0.150000X0.587500X-0.150000X0.587500X-0.150000X-0.587500X0*%
%ADD21RoundRect,0.090000X0.090000X-0.139000X0.090000X0.139000X-0.090000X0.139000X-0.090000X-0.139000X0*%
%ADD22RoundRect,0.162500X-0.162500X0.825000X-0.162500X-0.825000X0.162500X-0.825000X0.162500X0.825000X0*%
%ADD23RoundRect,0.250000X-0.925000X0.875000X-0.925000X-0.875000X0.925000X-0.875000X0.925000X0.875000X0*%
%ADD24RoundRect,0.090000X-0.139000X-0.090000X0.139000X-0.090000X0.139000X0.090000X-0.139000X0.090000X0*%
%ADD25RoundRect,0.250000X-0.337500X-0.475000X0.337500X-0.475000X0.337500X0.475000X-0.337500X0.475000X0*%
%ADD26R,1.800000X2.500000*%
%ADD27R,0.400000X0.650000*%
G04 APERTURE END LIST*
D10*
X5360000Y11071320D02*
G75*
G03*
X8360000Y8071320I3000001J1D01*
G01*
X95150000Y67390000D02*
G75*
G03*
X94640000Y67900000I-510002J-2D01*
G01*
X5900624Y67700072D02*
G75*
G03*
X5390624Y67190072I2J-510002D01*
G01*
X5360000Y11071320D02*
X5390624Y67190072D01*
X16910624Y78900073D02*
G75*
G03*
X16400624Y78410696I-1J-510434D01*
G01*
X84098752Y78389376D02*
G75*
G03*
X83588752Y78899376I-510002J-2D01*
G01*
X92140000Y8071320D02*
X8360000Y8071320D01*
X5900624Y67700072D02*
G75*
G03*
X16400624Y78410696I-473508J10966267D01*
G01*
X92140000Y8071320D02*
G75*
G03*
X95140000Y11071320I-1J3000001D01*
G01*
X84098752Y78389376D02*
G75*
G03*
X94640000Y67900000I10950523J463299D01*
G01*
X95150000Y67390000D02*
X95140000Y11071320D01*
X16910624Y78900072D02*
X83588752Y78899376D01*
D11*
%TO.C,RV2*%
X68940000Y53020103D02*
X72140000Y53020103D01*
X72140000Y53020103D02*
X72140000Y53620103D01*
X72140000Y53620103D02*
X68940000Y53620103D01*
X68940000Y53620103D02*
X68940000Y53020103D01*
G36*
X68940000Y53020103D02*
G01*
X72140000Y53020103D01*
X72140000Y53620103D01*
X68940000Y53620103D01*
X68940000Y53020103D01*
G37*
X68940000Y61420103D02*
X72140000Y61420103D01*
X72140000Y61420103D02*
X72140000Y62020103D01*
X72140000Y62020103D02*
X68940000Y62020103D01*
X68940000Y62020103D02*
X68940000Y61420103D01*
G36*
X68940000Y61420103D02*
G01*
X72140000Y61420103D01*
X72140000Y62020103D01*
X68940000Y62020103D01*
X68940000Y61420103D01*
G37*
%TO.C,RV1*%
X17520000Y61430000D02*
X20720000Y61430000D01*
X20720000Y61430000D02*
X20720000Y62030000D01*
X20720000Y62030000D02*
X17520000Y62030000D01*
X17520000Y62030000D02*
X17520000Y61430000D01*
G36*
X17520000Y61430000D02*
G01*
X20720000Y61430000D01*
X20720000Y62030000D01*
X17520000Y62030000D01*
X17520000Y61430000D01*
G37*
X17520000Y53030000D02*
X20720000Y53030000D01*
X20720000Y53030000D02*
X20720000Y53630000D01*
X20720000Y53630000D02*
X17520000Y53630000D01*
X17520000Y53630000D02*
X17520000Y53030000D01*
G36*
X17520000Y53030000D02*
G01*
X20720000Y53030000D01*
X20720000Y53630000D01*
X17520000Y53630000D01*
X17520000Y53030000D01*
G37*
%TD*%
D12*
%TO.C,R17*%
X56100000Y18350000D03*
X53000000Y18350000D03*
%TD*%
D13*
%TO.C,R4*%
X43460000Y19905000D03*
X43460000Y23005000D03*
%TD*%
D12*
%TO.C,R10*%
X37910000Y47130000D03*
X34810000Y47130000D03*
%TD*%
D14*
%TO.C,C14*%
X44210000Y26455000D03*
X42660000Y26455000D03*
%TD*%
D12*
%TO.C,R2*%
X30060000Y69380000D03*
X26960000Y69380000D03*
%TD*%
D13*
%TO.C,R1*%
X43910000Y72580000D03*
X43910000Y75680000D03*
%TD*%
D15*
%TO.C,D5*%
X37710000Y19805000D03*
X37710000Y23105000D03*
%TD*%
D16*
%TO.C,R5*%
X40710000Y23005000D03*
X40710000Y19905000D03*
%TD*%
D12*
%TO.C,R12*%
X32210000Y49630000D03*
X29110000Y49630000D03*
%TD*%
D16*
%TO.C,R14*%
X53410000Y43880000D03*
X53410000Y40780000D03*
%TD*%
D17*
%TO.C,C2*%
X38705000Y64161000D03*
X43805000Y64161000D03*
%TD*%
D13*
%TO.C,R6*%
X34890000Y34060000D03*
X34890000Y37160000D03*
%TD*%
D15*
%TO.C,D2*%
X60415000Y29883000D03*
X60415000Y26583000D03*
%TD*%
D18*
%TO.C,C8*%
X50100000Y41352500D03*
X50100000Y43427500D03*
%TD*%
D19*
%TO.C,R7*%
X29610000Y43222500D03*
X32710000Y43222500D03*
%TD*%
D16*
%TO.C,R18*%
X55660000Y32476000D03*
X55660000Y29376000D03*
%TD*%
D19*
%TO.C,R3*%
X26960000Y71830000D03*
X30060000Y71830000D03*
%TD*%
D20*
%TO.C,Q3*%
X57383000Y22288500D03*
X59283000Y22288500D03*
X58333000Y24163500D03*
%TD*%
D21*
%TO.C,C4*%
X35160000Y44697500D03*
X35160000Y45562500D03*
%TD*%
D22*
%TO.C,U1*%
X43520693Y34799307D03*
X42250693Y34799307D03*
X40980693Y34799307D03*
X39710693Y34799307D03*
X39710693Y29724307D03*
X40980693Y29724307D03*
X42250693Y29724307D03*
X43520693Y29724307D03*
%TD*%
D19*
%TO.C,R9*%
X34770000Y49590000D03*
X37870000Y49590000D03*
%TD*%
D12*
%TO.C,R8*%
X32710000Y45630000D03*
X29610000Y45630000D03*
%TD*%
D23*
%TO.C,C10*%
X73060000Y46650000D03*
X73060000Y41550000D03*
%TD*%
D16*
%TO.C,R11*%
X27010000Y49120000D03*
X27010000Y46020000D03*
%TD*%
D13*
%TO.C,R16*%
X63910000Y33580000D03*
X63910000Y36680000D03*
%TD*%
D24*
%TO.C,C3*%
X34545000Y31380000D03*
X35410000Y31380000D03*
%TD*%
D16*
%TO.C,R13*%
X53410000Y38380000D03*
X53410000Y35280000D03*
%TD*%
D25*
%TO.C,C13*%
X47485000Y37030000D03*
X49560000Y37030000D03*
%TD*%
D13*
%TO.C,R15*%
X50533000Y30747000D03*
X50533000Y33847000D03*
%TD*%
D15*
%TO.C,D4*%
X34710000Y23105000D03*
X34710000Y19805000D03*
%TD*%
D26*
%TO.C,D1*%
X39310000Y71830000D03*
X39310000Y75830000D03*
%TD*%
D27*
%TO.C,Q2*%
X61665000Y36353000D03*
X61015000Y36353000D03*
X60365000Y36353000D03*
X60365000Y34453000D03*
X61015000Y34453000D03*
X61665000Y34453000D03*
%TD*%
M02*
