%TF.GenerationSoftware,KiCad,Pcbnew,(6.0.0-0)*%
%TF.CreationDate,2022-01-31T16:21:44-05:00*%
%TF.ProjectId,Valve Wizard Cab Sim,56616c76-6520-4576-997a-617264204361,rev?*%
%TF.SameCoordinates,PX187ff90PY69be500*%
%TF.FileFunction,Legend,Bot*%
%TF.FilePolarity,Positive*%
%FSLAX46Y46*%
G04 Gerber Fmt 4.6, Leading zero omitted, Abs format (unit mm)*
G04 Created by KiCad (PCBNEW (6.0.0-0)) date 2022-01-31 16:21:44*
%MOMM*%
%LPD*%
G01*
G04 APERTURE LIST*
%TA.AperFunction,Profile*%
%ADD10C,0.100000*%
%TD*%
%ADD11C,0.300000*%
%ADD12C,0.150000*%
%ADD13C,0.120000*%
%TA.AperFunction,Profile*%
%ADD14C,0.500000*%
%TD*%
G04 APERTURE END LIST*
D10*
X5360000Y11071320D02*
G75*
G03*
X8360000Y8071320I3000001J1D01*
G01*
X95150000Y67390000D02*
G75*
G03*
X94640000Y67900000I-510002J-2D01*
G01*
X5900624Y67700072D02*
G75*
G03*
X5390624Y67190072I2J-510002D01*
G01*
X5360000Y11071320D02*
X5390624Y67190072D01*
X16910624Y78900073D02*
G75*
G03*
X16400624Y78410696I-1J-510434D01*
G01*
X84098752Y78389376D02*
G75*
G03*
X83588752Y78899376I-510002J-2D01*
G01*
X92140000Y8071320D02*
X8360000Y8071320D01*
X5900624Y67700072D02*
G75*
G03*
X16400624Y78410696I-473508J10966267D01*
G01*
X92140000Y8071320D02*
G75*
G03*
X95140000Y11071320I-1J3000001D01*
G01*
X84098752Y78389376D02*
G75*
G03*
X94640000Y67900000I10950523J463299D01*
G01*
X95150000Y67390000D02*
X95140000Y11071320D01*
X16910624Y78900072D02*
X83588752Y78899376D01*
D11*
X91587571Y66355000D02*
X93087571Y65896667D01*
X91587571Y65438334D01*
X93087571Y64390715D02*
X92301857Y64390715D01*
X92159000Y64456191D01*
X92087571Y64587143D01*
X92087571Y64849048D01*
X92159000Y64980000D01*
X93016142Y64390715D02*
X93087571Y64521667D01*
X93087571Y64849048D01*
X93016142Y64980000D01*
X92873285Y65045477D01*
X92730428Y65045477D01*
X92587571Y64980000D01*
X92516142Y64849048D01*
X92516142Y64521667D01*
X92444714Y64390715D01*
X93087571Y63539524D02*
X93016142Y63670477D01*
X92873285Y63735953D01*
X91587571Y63735953D01*
X92087571Y63146667D02*
X93087571Y62819286D01*
X92087571Y62491905D01*
X93016142Y61444286D02*
X93087571Y61575239D01*
X93087571Y61837143D01*
X93016142Y61968096D01*
X92873285Y62033572D01*
X92301857Y62033572D01*
X92159000Y61968096D01*
X92087571Y61837143D01*
X92087571Y61575239D01*
X92159000Y61444286D01*
X92301857Y61378810D01*
X92444714Y61378810D01*
X92587571Y62033572D01*
X91587571Y60920477D02*
X93087571Y60593096D01*
X92016142Y60331191D01*
X93087571Y60069286D01*
X91587571Y59741905D01*
X93087571Y59218096D02*
X92087571Y59218096D01*
X91587571Y59218096D02*
X91659000Y59283572D01*
X91730428Y59218096D01*
X91659000Y59152620D01*
X91587571Y59218096D01*
X91730428Y59218096D01*
X92087571Y58694286D02*
X92087571Y57974048D01*
X93087571Y58694286D01*
X93087571Y57974048D01*
X93087571Y56860953D02*
X92301857Y56860953D01*
X92159000Y56926429D01*
X92087571Y57057381D01*
X92087571Y57319286D01*
X92159000Y57450239D01*
X93016142Y56860953D02*
X93087571Y56991905D01*
X93087571Y57319286D01*
X93016142Y57450239D01*
X92873285Y57515715D01*
X92730428Y57515715D01*
X92587571Y57450239D01*
X92516142Y57319286D01*
X92516142Y56991905D01*
X92444714Y56860953D01*
X93087571Y56206191D02*
X92087571Y56206191D01*
X92373285Y56206191D02*
X92230428Y56140715D01*
X92159000Y56075239D01*
X92087571Y55944286D01*
X92087571Y55813334D01*
X93087571Y54765715D02*
X91587571Y54765715D01*
X93016142Y54765715D02*
X93087571Y54896667D01*
X93087571Y55158572D01*
X93016142Y55289524D01*
X92944714Y55355000D01*
X92801857Y55420477D01*
X92373285Y55420477D01*
X92230428Y55355000D01*
X92159000Y55289524D01*
X92087571Y55158572D01*
X92087571Y54896667D01*
X92159000Y54765715D01*
X92944714Y52277620D02*
X93016142Y52343096D01*
X93087571Y52539524D01*
X93087571Y52670477D01*
X93016142Y52866905D01*
X92873285Y52997858D01*
X92730428Y53063334D01*
X92444714Y53128810D01*
X92230428Y53128810D01*
X91944714Y53063334D01*
X91801857Y52997858D01*
X91659000Y52866905D01*
X91587571Y52670477D01*
X91587571Y52539524D01*
X91659000Y52343096D01*
X91730428Y52277620D01*
X92659000Y51753810D02*
X92659000Y51099048D01*
X93087571Y51884762D02*
X91587571Y51426429D01*
X93087571Y50968096D01*
X92301857Y50051429D02*
X92373285Y49855000D01*
X92444714Y49789524D01*
X92587571Y49724048D01*
X92801857Y49724048D01*
X92944714Y49789524D01*
X93016142Y49855000D01*
X93087571Y49985953D01*
X93087571Y50509762D01*
X91587571Y50509762D01*
X91587571Y50051429D01*
X91659000Y49920477D01*
X91730428Y49855000D01*
X91873285Y49789524D01*
X92016142Y49789524D01*
X92159000Y49855000D01*
X92230428Y49920477D01*
X92301857Y50051429D01*
X92301857Y50509762D01*
X93016142Y48152620D02*
X93087571Y47956191D01*
X93087571Y47628810D01*
X93016142Y47497858D01*
X92944714Y47432381D01*
X92801857Y47366905D01*
X92659000Y47366905D01*
X92516142Y47432381D01*
X92444714Y47497858D01*
X92373285Y47628810D01*
X92301857Y47890715D01*
X92230428Y48021667D01*
X92159000Y48087143D01*
X92016142Y48152620D01*
X91873285Y48152620D01*
X91730428Y48087143D01*
X91659000Y48021667D01*
X91587571Y47890715D01*
X91587571Y47563334D01*
X91659000Y47366905D01*
X93087571Y46777620D02*
X91587571Y46777620D01*
X93087571Y46122858D02*
X91587571Y46122858D01*
X92659000Y45664524D01*
X91587571Y45206191D01*
X93087571Y45206191D01*
X92087571Y43634762D02*
X93087571Y43307381D01*
X92087571Y42980000D01*
X93087571Y41735953D02*
X93087571Y42521667D01*
X93087571Y42128810D02*
X91587571Y42128810D01*
X91801857Y42259762D01*
X91944714Y42390715D01*
X92016142Y42521667D01*
D12*
X57545904Y65372000D02*
X57641142Y65419620D01*
X57784000Y65419620D01*
X57926857Y65372000D01*
X58022095Y65276762D01*
X58069714Y65181524D01*
X58117333Y64991048D01*
X58117333Y64848191D01*
X58069714Y64657715D01*
X58022095Y64562477D01*
X57926857Y64467239D01*
X57784000Y64419620D01*
X57688761Y64419620D01*
X57545904Y64467239D01*
X57498285Y64514858D01*
X57498285Y64848191D01*
X57688761Y64848191D01*
X57069714Y64419620D02*
X57069714Y65419620D01*
X56498285Y64419620D01*
X56498285Y65419620D01*
X56022095Y64419620D02*
X56022095Y65419620D01*
X55784000Y65419620D01*
X55641142Y65372000D01*
X55545904Y65276762D01*
X55498285Y65181524D01*
X55450666Y64991048D01*
X55450666Y64848191D01*
X55498285Y64657715D01*
X55545904Y64562477D01*
X55641142Y64467239D01*
X55784000Y64419620D01*
X56022095Y64419620D01*
X57371238Y71769620D02*
X57037904Y70769620D01*
X56704571Y71769620D01*
X56371238Y70769620D02*
X56371238Y71769620D01*
X55895047Y70769620D02*
X55895047Y71769620D01*
X55323619Y70769620D01*
X55323619Y71769620D01*
X44885619Y67991429D02*
X44742761Y67943810D01*
X44695142Y67896191D01*
X44647523Y67800953D01*
X44647523Y67658096D01*
X44695142Y67562858D01*
X44742761Y67515239D01*
X44838000Y67467620D01*
X45218952Y67467620D01*
X45218952Y68467620D01*
X44885619Y68467620D01*
X44790380Y68420000D01*
X44742761Y68372381D01*
X44695142Y68277143D01*
X44695142Y68181905D01*
X44742761Y68086667D01*
X44790380Y68039048D01*
X44885619Y67991429D01*
X45218952Y67991429D01*
X44218952Y67848572D02*
X43457047Y67848572D01*
X43838000Y67467620D02*
X43838000Y68229524D01*
%TO.C,RV2*%
X71095238Y57427620D02*
X71428571Y57903810D01*
X71666666Y57427620D02*
X71666666Y58427620D01*
X71285714Y58427620D01*
X71190476Y58380000D01*
X71142857Y58332381D01*
X71095238Y58237143D01*
X71095238Y58094286D01*
X71142857Y57999048D01*
X71190476Y57951429D01*
X71285714Y57903810D01*
X71666666Y57903810D01*
X70809523Y58427620D02*
X70476190Y57427620D01*
X70142857Y58427620D01*
X69857142Y58332381D02*
X69809523Y58380000D01*
X69714285Y58427620D01*
X69476190Y58427620D01*
X69380952Y58380000D01*
X69333333Y58332381D01*
X69285714Y58237143D01*
X69285714Y58141905D01*
X69333333Y57999048D01*
X69904761Y57427620D01*
X69285714Y57427620D01*
%TO.C,D3*%
X52088095Y20647620D02*
X52088095Y21647620D01*
X51850000Y21647620D01*
X51707142Y21600000D01*
X51611904Y21504762D01*
X51564285Y21409524D01*
X51516666Y21219048D01*
X51516666Y21076191D01*
X51564285Y20885715D01*
X51611904Y20790477D01*
X51707142Y20695239D01*
X51850000Y20647620D01*
X52088095Y20647620D01*
X51183333Y21647620D02*
X50564285Y21647620D01*
X50897619Y21266667D01*
X50754761Y21266667D01*
X50659523Y21219048D01*
X50611904Y21171429D01*
X50564285Y21076191D01*
X50564285Y20838096D01*
X50611904Y20742858D01*
X50659523Y20695239D01*
X50754761Y20647620D01*
X51040476Y20647620D01*
X51135714Y20695239D01*
X51183333Y20742858D01*
%TO.C,RV1*%
X19745238Y56837620D02*
X20078571Y57313810D01*
X20316666Y56837620D02*
X20316666Y57837620D01*
X19935714Y57837620D01*
X19840476Y57790000D01*
X19792857Y57742381D01*
X19745238Y57647143D01*
X19745238Y57504286D01*
X19792857Y57409048D01*
X19840476Y57361429D01*
X19935714Y57313810D01*
X20316666Y57313810D01*
X19459523Y57837620D02*
X19126190Y56837620D01*
X18792857Y57837620D01*
X17935714Y56837620D02*
X18507142Y56837620D01*
X18221428Y56837620D02*
X18221428Y57837620D01*
X18316666Y57694762D01*
X18411904Y57599524D01*
X18507142Y57551905D01*
%TO.C,REF\u002A\u002A*%
G36*
X85809735Y43195245D02*
G01*
X85809623Y42990116D01*
X85806914Y42566242D01*
X85797247Y42269847D01*
X85776268Y42070773D01*
X85739622Y41938865D01*
X85682957Y41843963D01*
X85601916Y41755912D01*
X85601748Y41755743D01*
X85358483Y41583440D01*
X85116810Y41573134D01*
X84847486Y41723572D01*
X84624401Y41899050D01*
X84624401Y44426760D01*
X83523734Y44426760D01*
X83521042Y43220260D01*
X83520046Y42996316D01*
X83510856Y42530001D01*
X83486216Y42195698D01*
X83438726Y41966629D01*
X83360986Y41816017D01*
X83245595Y41717086D01*
X83085152Y41643058D01*
X82821071Y41616880D01*
X82559969Y41732110D01*
X82362485Y41973095D01*
X82338307Y42038734D01*
X82293018Y42309454D01*
X82264979Y42734786D01*
X82254983Y43304927D01*
X82253734Y44426760D01*
X81407068Y44426760D01*
X81407068Y43287744D01*
X81400954Y42843339D01*
X81381391Y42424835D01*
X81350564Y42112277D01*
X81310731Y41937292D01*
X81288748Y41894659D01*
X81090778Y41697604D01*
X80823615Y41612898D01*
X80551474Y41663685D01*
X80410337Y41753366D01*
X80295958Y41889993D01*
X80217939Y42091727D01*
X80169908Y42384536D01*
X80145491Y42794391D01*
X80138316Y43347260D01*
X80135325Y43775491D01*
X80124494Y44130252D01*
X80103698Y44356589D01*
X80102796Y44359871D01*
X80070781Y44476361D01*
X80023591Y44511427D01*
X79896468Y44546584D01*
X79668061Y44640210D01*
X79389020Y44771821D01*
X79162897Y44897915D01*
X78659016Y45306421D01*
X78280869Y45827758D01*
X78031008Y46458760D01*
X78026610Y46482471D01*
X78019412Y46576644D01*
X79544401Y46576644D01*
X79823599Y46306036D01*
X80102796Y46035427D01*
X83444614Y46035427D01*
X83396734Y47924165D01*
X82266579Y48541845D01*
X82086070Y48640790D01*
X81685469Y48862440D01*
X81336460Y49058283D01*
X81071474Y49210031D01*
X80922944Y49299402D01*
X80709465Y49439279D01*
X80952433Y49602966D01*
X81003691Y49636120D01*
X81214921Y49765191D01*
X81526322Y49949958D01*
X81904792Y50170888D01*
X82317234Y50408446D01*
X83439068Y51050239D01*
X83439068Y52794750D01*
X82110843Y53547929D01*
X81720071Y53772617D01*
X81340700Y53997536D01*
X81037142Y54184949D01*
X80833472Y54319957D01*
X80790034Y54356855D01*
X83168429Y54356855D01*
X83451915Y54187083D01*
X83590025Y54105950D01*
X83878962Y53940784D01*
X84179815Y53772869D01*
X84624229Y53528427D01*
X84623019Y52004427D01*
X84619985Y51558577D01*
X84610989Y51113431D01*
X84597171Y50750976D01*
X84579665Y50500090D01*
X84559605Y50389654D01*
X84539755Y50368162D01*
X84401293Y50257714D01*
X84170064Y50094200D01*
X83883568Y49904528D01*
X83769484Y49830014D01*
X83513879Y49652797D01*
X83336279Y49514493D01*
X83269734Y49440108D01*
X83286235Y49415936D01*
X83416022Y49318736D01*
X83646843Y49176353D01*
X83944942Y49010275D01*
X84620150Y48650509D01*
X84643442Y47321801D01*
X84666734Y45993094D01*
X86089186Y45969860D01*
X86133547Y45969144D01*
X86662170Y45962989D01*
X87054682Y45965471D01*
X87341963Y45979007D01*
X87554891Y46006014D01*
X87724348Y46048909D01*
X87881212Y46110107D01*
X87892759Y46115163D01*
X88006324Y46160506D01*
X88106322Y46198895D01*
X88193611Y46240701D01*
X88269048Y46296294D01*
X88333493Y46376042D01*
X88387803Y46490315D01*
X88432837Y46649483D01*
X88469453Y46863916D01*
X88498508Y47143983D01*
X88520862Y47500054D01*
X88537372Y47942498D01*
X88548896Y48481685D01*
X88556293Y49127985D01*
X88560420Y49891766D01*
X88562137Y50783400D01*
X88562300Y51813255D01*
X88561769Y52991702D01*
X88561401Y54329108D01*
X88561401Y54362662D01*
X88561208Y55670818D01*
X88560514Y56820508D01*
X88559123Y57822343D01*
X88556839Y58686934D01*
X88553468Y59424893D01*
X88548815Y60046831D01*
X88542683Y60563359D01*
X88534877Y60985088D01*
X88525202Y61322630D01*
X88513463Y61586595D01*
X88499464Y61787596D01*
X88483010Y61936244D01*
X88463906Y62043149D01*
X88441956Y62118922D01*
X88416964Y62174177D01*
X88403223Y62198833D01*
X88373179Y62242795D01*
X88286827Y62369148D01*
X88141089Y62497972D01*
X87942709Y62590877D01*
X87668387Y62653435D01*
X87294824Y62691220D01*
X86798719Y62709804D01*
X86156772Y62714760D01*
X84624401Y62714760D01*
X84623105Y61381260D01*
X84621553Y61109452D01*
X84613356Y60676745D01*
X84599372Y60319836D01*
X84580991Y60069899D01*
X84559605Y59958112D01*
X84550988Y59948043D01*
X84427539Y59854308D01*
X84203781Y59712495D01*
X83921118Y59549127D01*
X83853839Y59511136D01*
X83599996Y59352901D01*
X83428682Y59221617D01*
X83373913Y59142557D01*
X83444900Y59084587D01*
X83645483Y58954347D01*
X83955723Y58764862D01*
X84355901Y58527958D01*
X84826299Y58255460D01*
X85347196Y57959194D01*
X85838680Y57681136D01*
X86317379Y57408289D01*
X86729181Y57171453D01*
X87053881Y56982321D01*
X87271273Y56852583D01*
X87361149Y56793931D01*
X87362585Y56791578D01*
X87301237Y56725664D01*
X87113389Y56595768D01*
X86820605Y56415233D01*
X86444448Y56197406D01*
X86006482Y55955628D01*
X85609399Y55740051D01*
X85094672Y55457632D01*
X84606862Y55186978D01*
X84186783Y54950761D01*
X83875248Y54771656D01*
X83168429Y54356855D01*
X80790034Y54356855D01*
X80753767Y54387662D01*
X80754096Y54391588D01*
X80836897Y54462974D01*
X81047893Y54601575D01*
X81368474Y54796315D01*
X81780035Y55036118D01*
X82263965Y55309909D01*
X82801658Y55606611D01*
X82876885Y55647660D01*
X83409742Y55940212D01*
X83888011Y56205831D01*
X84292815Y56433804D01*
X84605277Y56613417D01*
X84806517Y56733959D01*
X84877660Y56784716D01*
X84865256Y56797427D01*
X84740216Y56881666D01*
X84497742Y57031332D01*
X84159022Y57233701D01*
X83745244Y57476049D01*
X83277594Y57745651D01*
X82896665Y57964019D01*
X82289944Y58314216D01*
X81811658Y58594427D01*
X81449016Y58812604D01*
X81189227Y58976697D01*
X81019500Y59094654D01*
X80927044Y59174427D01*
X80899068Y59223964D01*
X80911256Y59240854D01*
X81035450Y59330774D01*
X81272378Y59476837D01*
X81595573Y59663113D01*
X81978568Y59873674D01*
X82114047Y59946667D01*
X82506717Y60159418D01*
X82848582Y60346327D01*
X83106810Y60489379D01*
X83248568Y60570557D01*
X83306239Y60609443D01*
X83368117Y60679576D01*
X83407067Y60793054D01*
X83428360Y60981372D01*
X83437270Y61276023D01*
X83439068Y61708503D01*
X83439068Y62730343D01*
X81809234Y62700561D01*
X81451662Y62693376D01*
X80914318Y62677018D01*
X80510245Y62651976D01*
X80216112Y62612878D01*
X80008582Y62554350D01*
X79864323Y62471020D01*
X79759999Y62357512D01*
X79672278Y62208455D01*
X79668318Y62200360D01*
X79646605Y62135783D01*
X79627530Y62034919D01*
X79610928Y61887535D01*
X79596635Y61683395D01*
X79584485Y61412265D01*
X79574314Y61063911D01*
X79565957Y60628100D01*
X79559249Y60094595D01*
X79554026Y59453164D01*
X79550121Y58693572D01*
X79547371Y57805585D01*
X79545611Y56778968D01*
X79544676Y55603486D01*
X79544401Y54268907D01*
X79544401Y46576644D01*
X78019412Y46576644D01*
X78012437Y46667911D01*
X77999544Y47004085D01*
X77987934Y47476613D01*
X77977607Y48071118D01*
X77968567Y48773219D01*
X77960816Y49568539D01*
X77954355Y50442698D01*
X77949188Y51381318D01*
X77945316Y52370019D01*
X77942741Y53394422D01*
X77941467Y54440150D01*
X77941495Y55492822D01*
X77942826Y56538060D01*
X77945465Y57561485D01*
X77949412Y58548718D01*
X77954670Y59485380D01*
X77961242Y60357093D01*
X77969129Y61149477D01*
X77978334Y61848154D01*
X77988858Y62438745D01*
X78000705Y62906870D01*
X78013876Y63238151D01*
X78028374Y63418209D01*
X78208666Y64163143D01*
X78517382Y64820902D01*
X78957099Y65381284D01*
X79532664Y65849179D01*
X80091555Y66145921D01*
X85987920Y66145921D01*
X86075729Y65964813D01*
X86266523Y65680684D01*
X86648259Y65132940D01*
X86339480Y64561256D01*
X86307411Y64500979D01*
X86176606Y64231333D01*
X86098270Y64028267D01*
X86088398Y63931875D01*
X86090861Y63929898D01*
X86203774Y63927575D01*
X86428354Y63969822D01*
X86718748Y64048178D01*
X87291401Y64222178D01*
X87801679Y63722469D01*
X87889024Y63637800D01*
X88116657Y63425802D01*
X88288667Y63278166D01*
X88373179Y63222760D01*
X88383854Y63233630D01*
X88409683Y63363592D01*
X88427659Y63609476D01*
X88434401Y63932132D01*
X88434401Y64641504D01*
X89070239Y64926965D01*
X89308581Y65037311D01*
X89523835Y65159490D01*
X89594726Y65258866D01*
X89516683Y65352915D01*
X89285135Y65459115D01*
X88895509Y65594944D01*
X88365362Y65771365D01*
X88306142Y66281609D01*
X88276755Y66509551D01*
X88230123Y66806949D01*
X88187992Y67012198D01*
X88161639Y67097329D01*
X88119808Y67142358D01*
X88047315Y67099925D01*
X87920686Y66953900D01*
X87716448Y66688152D01*
X87657553Y66610401D01*
X87475400Y66369264D01*
X87345734Y66196578D01*
X87293514Y66125546D01*
X87293382Y66125367D01*
X87208853Y66128636D01*
X87002047Y66153788D01*
X86716986Y66195483D01*
X86482197Y66230867D01*
X86177175Y66262972D01*
X86017076Y66239982D01*
X85987920Y66145921D01*
X80091555Y66145921D01*
X80248927Y66229477D01*
X81110734Y66527069D01*
X81600427Y66674401D01*
X82022842Y66845124D01*
X82329937Y67043206D01*
X82549856Y67293410D01*
X82710743Y67620499D01*
X82840744Y68049236D01*
X82960822Y68462146D01*
X83116621Y68825130D01*
X83302470Y69074441D01*
X83536054Y69240379D01*
X83567754Y69256297D01*
X83910225Y69380866D01*
X84206735Y69374663D01*
X84514457Y69237521D01*
X84682659Y69113771D01*
X84871889Y68881299D01*
X85015343Y68552565D01*
X85132689Y68091094D01*
X85242182Y67686924D01*
X85423510Y67342378D01*
X85697586Y67082559D01*
X86098999Y66863528D01*
X86375599Y66739545D01*
X86664191Y66623197D01*
X86878641Y66580345D01*
X87055364Y66622383D01*
X87230778Y66760708D01*
X87441299Y67006713D01*
X87723344Y67371795D01*
X87758301Y67417021D01*
X88004299Y67725803D01*
X88211599Y67970135D01*
X88359312Y68126290D01*
X88426545Y68170536D01*
X88427029Y68170021D01*
X88456772Y68067990D01*
X88500102Y67833006D01*
X88551279Y67499524D01*
X88604563Y67102002D01*
X88732391Y66082628D01*
X89662896Y65752624D01*
X90008777Y65629777D01*
X90343532Y65510495D01*
X90593156Y65421116D01*
X90720401Y65374941D01*
X90730534Y65369603D01*
X90703576Y65305085D01*
X90530921Y65191904D01*
X90224157Y65037929D01*
X89912850Y64886356D01*
X89731595Y64775494D01*
X89657349Y64686522D01*
X89664678Y64599511D01*
X89724561Y64462847D01*
X89785674Y64326391D01*
X89839477Y64200694D01*
X89886434Y64075162D01*
X89927008Y63939202D01*
X89961663Y63782219D01*
X89990864Y63593622D01*
X90015073Y63362815D01*
X90034756Y63079205D01*
X90050375Y62732199D01*
X90062395Y62311203D01*
X90071279Y61805624D01*
X90077491Y61204867D01*
X90081496Y60498340D01*
X90083756Y59675448D01*
X90084736Y58725598D01*
X90084900Y57638197D01*
X90084712Y56402651D01*
X90084634Y55008365D01*
X90085401Y46497637D01*
X89806413Y45930879D01*
X89735385Y45793385D01*
X89405719Y45310334D01*
X88993137Y44946828D01*
X88457686Y44665380D01*
X88011068Y44480267D01*
X88008375Y43247014D01*
X88007064Y42975292D01*
X87997281Y42516048D01*
X87972034Y42186995D01*
X87924128Y41961650D01*
X87846366Y41813534D01*
X87731550Y41716163D01*
X87572486Y41643058D01*
X87308404Y41616880D01*
X87047302Y41732110D01*
X86849818Y41973095D01*
X86825641Y42038734D01*
X86780351Y42309454D01*
X86752312Y42734786D01*
X86742316Y43304927D01*
X86741068Y44426760D01*
X85809734Y44426760D01*
X85809735Y43195245D01*
G37*
D13*
%TO.C,RV2*%
X65570000Y51380103D02*
X65570000Y55245103D01*
X65570000Y59755103D02*
X65570000Y63620103D01*
X75510000Y63620103D02*
X65570000Y63620103D01*
X67170000Y51380103D02*
X65570000Y51380103D01*
X69669000Y51380103D02*
X68910000Y51380103D01*
X75510000Y51380103D02*
X75510000Y55245103D01*
X75510000Y51380103D02*
X73911000Y51380103D01*
X75510000Y59755103D02*
X75510000Y63620103D01*
X72169000Y51380103D02*
X71410000Y51380103D01*
D14*
X68940000Y53020103D02*
X72140000Y53020103D01*
X72140000Y53020103D02*
X72140000Y53620103D01*
X72140000Y53620103D02*
X68940000Y53620103D01*
X68940000Y53620103D02*
X68940000Y53020103D01*
G36*
X68940000Y53020103D02*
G01*
X72140000Y53020103D01*
X72140000Y53620103D01*
X68940000Y53620103D01*
X68940000Y53020103D01*
G37*
X68940000Y61420103D02*
X72140000Y61420103D01*
X72140000Y61420103D02*
X72140000Y62020103D01*
X72140000Y62020103D02*
X68940000Y62020103D01*
X68940000Y62020103D02*
X68940000Y61420103D01*
G36*
X68940000Y61420103D02*
G01*
X72140000Y61420103D01*
X72140000Y62020103D01*
X68940000Y62020103D01*
X68940000Y61420103D01*
G37*
D13*
%TO.C,D3*%
X49985000Y22964000D02*
X49985000Y23120000D01*
X49985000Y25280000D02*
X49985000Y25436000D01*
X49985000Y22964484D02*
G75*
G03*
X53217335Y23121392I1560000J1235517D01*
G01*
X53217335Y25278608D02*
G75*
G03*
X49985000Y25435516I-1672335J-1078609D01*
G01*
X50504039Y23120000D02*
G75*
G03*
X52586130Y23120163I1040961J1080000D01*
G01*
X52586130Y25279837D02*
G75*
G03*
X50504039Y25280000I-1041130J-1079837D01*
G01*
%TO.C,RV1*%
X18249000Y51390000D02*
X17490000Y51390000D01*
X14150000Y59765000D02*
X14150000Y63630000D01*
X24090000Y51390000D02*
X24090000Y55255000D01*
X15750000Y51390000D02*
X14150000Y51390000D01*
X14150000Y51390000D02*
X14150000Y55255000D01*
X24090000Y59765000D02*
X24090000Y63630000D01*
X24090000Y63630000D02*
X14150000Y63630000D01*
X20749000Y51390000D02*
X19990000Y51390000D01*
X24090000Y51390000D02*
X22491000Y51390000D01*
D14*
X17520000Y61430000D02*
X20720000Y61430000D01*
X20720000Y61430000D02*
X20720000Y62030000D01*
X20720000Y62030000D02*
X17520000Y62030000D01*
X17520000Y62030000D02*
X17520000Y61430000D01*
G36*
X17520000Y61430000D02*
G01*
X20720000Y61430000D01*
X20720000Y62030000D01*
X17520000Y62030000D01*
X17520000Y61430000D01*
G37*
X17520000Y53030000D02*
X20720000Y53030000D01*
X20720000Y53030000D02*
X20720000Y53630000D01*
X20720000Y53630000D02*
X17520000Y53630000D01*
X17520000Y53630000D02*
X17520000Y53030000D01*
G36*
X17520000Y53030000D02*
G01*
X20720000Y53030000D01*
X20720000Y53630000D01*
X17520000Y53630000D01*
X17520000Y53030000D01*
G37*
%TD*%
M02*
