%TF.GenerationSoftware,KiCad,Pcbnew,(6.0.0-0)*%
%TF.CreationDate,2022-01-31T16:21:46-05:00*%
%TF.ProjectId,Valve Wizard Cab Sim,56616c76-6520-4576-997a-617264204361,rev?*%
%TF.SameCoordinates,PX187ff90PY69be500*%
%TF.FileFunction,AssemblyDrawing,Top*%
%FSLAX46Y46*%
G04 Gerber Fmt 4.6, Leading zero omitted, Abs format (unit mm)*
G04 Created by KiCad (PCBNEW (6.0.0-0)) date 2022-01-31 16:21:46*
%MOMM*%
%LPD*%
G01*
G04 APERTURE LIST*
%TA.AperFunction,Profile*%
%ADD10C,0.100000*%
%TD*%
%ADD11C,0.100000*%
%ADD12C,0.120000*%
%ADD13C,0.150000*%
%ADD14C,0.060000*%
%ADD15C,0.080000*%
%ADD16C,0.050000*%
%ADD17C,0.040000*%
%ADD18C,0.140000*%
%ADD19C,0.075000*%
%TA.AperFunction,Profile*%
%ADD20C,0.500000*%
%TD*%
G04 APERTURE END LIST*
D10*
X5360000Y11071320D02*
G75*
G03*
X8360000Y8071320I3000001J1D01*
G01*
X95150000Y67390000D02*
G75*
G03*
X94640000Y67900000I-510002J-2D01*
G01*
X5900624Y67700072D02*
G75*
G03*
X5390624Y67190072I2J-510002D01*
G01*
X5360000Y11071320D02*
X5390624Y67190072D01*
X16910624Y78900073D02*
G75*
G03*
X16400624Y78410696I-1J-510434D01*
G01*
X84098752Y78389376D02*
G75*
G03*
X83588752Y78899376I-510002J-2D01*
G01*
X92140000Y8071320D02*
X8360000Y8071320D01*
X5900624Y67700072D02*
G75*
G03*
X16400624Y78410696I-473508J10966267D01*
G01*
X92140000Y8071320D02*
G75*
G03*
X95140000Y11071320I-1J3000001D01*
G01*
X84098752Y78389376D02*
G75*
G03*
X94640000Y67900000I10950523J463299D01*
G01*
X95150000Y67390000D02*
X95140000Y11071320D01*
X16910624Y78900072D02*
X83588752Y78899376D01*
D11*
X5260000Y78905000D02*
X95260000Y78905000D01*
X95260000Y78905000D02*
X95260000Y-11095000D01*
X95260000Y-11095000D02*
X5260000Y-11095000D01*
X5260000Y-11095000D02*
X5260000Y78905000D01*
D12*
%TO.C,R17*%
X54035714Y17988096D02*
X53769047Y18369048D01*
X53578571Y17988096D02*
X53578571Y18788096D01*
X53883333Y18788096D01*
X53959523Y18750000D01*
X53997619Y18711905D01*
X54035714Y18635715D01*
X54035714Y18521429D01*
X53997619Y18445239D01*
X53959523Y18407143D01*
X53883333Y18369048D01*
X53578571Y18369048D01*
X54797619Y17988096D02*
X54340476Y17988096D01*
X54569047Y17988096D02*
X54569047Y18788096D01*
X54492857Y18673810D01*
X54416666Y18597620D01*
X54340476Y18559524D01*
X55064285Y18788096D02*
X55597619Y18788096D01*
X55254761Y17988096D01*
%TO.C,R4*%
X43821904Y21321667D02*
X43440952Y21055000D01*
X43821904Y20864524D02*
X43021904Y20864524D01*
X43021904Y21169286D01*
X43060000Y21245477D01*
X43098095Y21283572D01*
X43174285Y21321667D01*
X43288571Y21321667D01*
X43364761Y21283572D01*
X43402857Y21245477D01*
X43440952Y21169286D01*
X43440952Y20864524D01*
X43288571Y22007381D02*
X43821904Y22007381D01*
X42983809Y21816905D02*
X43555238Y21626429D01*
X43555238Y22121667D01*
%TO.C,R10*%
X35845714Y46768096D02*
X35579047Y47149048D01*
X35388571Y46768096D02*
X35388571Y47568096D01*
X35693333Y47568096D01*
X35769523Y47530000D01*
X35807619Y47491905D01*
X35845714Y47415715D01*
X35845714Y47301429D01*
X35807619Y47225239D01*
X35769523Y47187143D01*
X35693333Y47149048D01*
X35388571Y47149048D01*
X36607619Y46768096D02*
X36150476Y46768096D01*
X36379047Y46768096D02*
X36379047Y47568096D01*
X36302857Y47453810D01*
X36226666Y47377620D01*
X36150476Y47339524D01*
X37102857Y47568096D02*
X37179047Y47568096D01*
X37255238Y47530000D01*
X37293333Y47491905D01*
X37331428Y47415715D01*
X37369523Y47263334D01*
X37369523Y47072858D01*
X37331428Y46920477D01*
X37293333Y46844286D01*
X37255238Y46806191D01*
X37179047Y46768096D01*
X37102857Y46768096D01*
X37026666Y46806191D01*
X36988571Y46844286D01*
X36950476Y46920477D01*
X36912380Y47072858D01*
X36912380Y47263334D01*
X36950476Y47415715D01*
X36988571Y47491905D01*
X37026666Y47530000D01*
X37102857Y47568096D01*
D13*
%TO.C,C6*%
X42117142Y46253334D02*
X42164761Y46205715D01*
X42212380Y46062858D01*
X42212380Y45967620D01*
X42164761Y45824762D01*
X42069523Y45729524D01*
X41974285Y45681905D01*
X41783809Y45634286D01*
X41640952Y45634286D01*
X41450476Y45681905D01*
X41355238Y45729524D01*
X41260000Y45824762D01*
X41212380Y45967620D01*
X41212380Y46062858D01*
X41260000Y46205715D01*
X41307619Y46253334D01*
X41212380Y47110477D02*
X41212380Y46920000D01*
X41260000Y46824762D01*
X41307619Y46777143D01*
X41450476Y46681905D01*
X41640952Y46634286D01*
X42021904Y46634286D01*
X42117142Y46681905D01*
X42164761Y46729524D01*
X42212380Y46824762D01*
X42212380Y47015239D01*
X42164761Y47110477D01*
X42117142Y47158096D01*
X42021904Y47205715D01*
X41783809Y47205715D01*
X41688571Y47158096D01*
X41640952Y47110477D01*
X41593333Y47015239D01*
X41593333Y46824762D01*
X41640952Y46729524D01*
X41688571Y46681905D01*
X41783809Y46634286D01*
D14*
%TO.C,C14*%
X43177857Y26312143D02*
X43158809Y26293096D01*
X43101666Y26274048D01*
X43063571Y26274048D01*
X43006428Y26293096D01*
X42968333Y26331191D01*
X42949285Y26369286D01*
X42930238Y26445477D01*
X42930238Y26502620D01*
X42949285Y26578810D01*
X42968333Y26616905D01*
X43006428Y26655000D01*
X43063571Y26674048D01*
X43101666Y26674048D01*
X43158809Y26655000D01*
X43177857Y26635953D01*
X43558809Y26274048D02*
X43330238Y26274048D01*
X43444523Y26274048D02*
X43444523Y26674048D01*
X43406428Y26616905D01*
X43368333Y26578810D01*
X43330238Y26559762D01*
X43901666Y26540715D02*
X43901666Y26274048D01*
X43806428Y26693096D02*
X43711190Y26407381D01*
X43958809Y26407381D01*
D13*
%TO.C,J5*%
X39336666Y15297620D02*
X39336666Y14583334D01*
X39289047Y14440477D01*
X39193809Y14345239D01*
X39050952Y14297620D01*
X38955714Y14297620D01*
X40289047Y15297620D02*
X39812857Y15297620D01*
X39765238Y14821429D01*
X39812857Y14869048D01*
X39908095Y14916667D01*
X40146190Y14916667D01*
X40241428Y14869048D01*
X40289047Y14821429D01*
X40336666Y14726191D01*
X40336666Y14488096D01*
X40289047Y14392858D01*
X40241428Y14345239D01*
X40146190Y14297620D01*
X39908095Y14297620D01*
X39812857Y14345239D01*
X39765238Y14392858D01*
D12*
%TO.C,R2*%
X28376666Y69018096D02*
X28110000Y69399048D01*
X27919523Y69018096D02*
X27919523Y69818096D01*
X28224285Y69818096D01*
X28300476Y69780000D01*
X28338571Y69741905D01*
X28376666Y69665715D01*
X28376666Y69551429D01*
X28338571Y69475239D01*
X28300476Y69437143D01*
X28224285Y69399048D01*
X27919523Y69399048D01*
X28681428Y69741905D02*
X28719523Y69780000D01*
X28795714Y69818096D01*
X28986190Y69818096D01*
X29062380Y69780000D01*
X29100476Y69741905D01*
X29138571Y69665715D01*
X29138571Y69589524D01*
X29100476Y69475239D01*
X28643333Y69018096D01*
X29138571Y69018096D01*
%TO.C,R1*%
X44271904Y73996667D02*
X43890952Y73730000D01*
X44271904Y73539524D02*
X43471904Y73539524D01*
X43471904Y73844286D01*
X43510000Y73920477D01*
X43548095Y73958572D01*
X43624285Y73996667D01*
X43738571Y73996667D01*
X43814761Y73958572D01*
X43852857Y73920477D01*
X43890952Y73844286D01*
X43890952Y73539524D01*
X44271904Y74758572D02*
X44271904Y74301429D01*
X44271904Y74530000D02*
X43471904Y74530000D01*
X43586190Y74453810D01*
X43662380Y74377620D01*
X43700476Y74301429D01*
D13*
%TO.C,D5*%
X36162380Y20716905D02*
X35162380Y20716905D01*
X35162380Y20955000D01*
X35210000Y21097858D01*
X35305238Y21193096D01*
X35400476Y21240715D01*
X35590952Y21288334D01*
X35733809Y21288334D01*
X35924285Y21240715D01*
X36019523Y21193096D01*
X36114761Y21097858D01*
X36162380Y20955000D01*
X36162380Y20716905D01*
X35162380Y22193096D02*
X35162380Y21716905D01*
X35638571Y21669286D01*
X35590952Y21716905D01*
X35543333Y21812143D01*
X35543333Y22050239D01*
X35590952Y22145477D01*
X35638571Y22193096D01*
X35733809Y22240715D01*
X35971904Y22240715D01*
X36067142Y22193096D01*
X36114761Y22145477D01*
X36162380Y22050239D01*
X36162380Y21812143D01*
X36114761Y21716905D01*
X36067142Y21669286D01*
%TO.C,C9*%
X58017142Y43213334D02*
X58064761Y43165715D01*
X58112380Y43022858D01*
X58112380Y42927620D01*
X58064761Y42784762D01*
X57969523Y42689524D01*
X57874285Y42641905D01*
X57683809Y42594286D01*
X57540952Y42594286D01*
X57350476Y42641905D01*
X57255238Y42689524D01*
X57160000Y42784762D01*
X57112380Y42927620D01*
X57112380Y43022858D01*
X57160000Y43165715D01*
X57207619Y43213334D01*
X58112380Y43689524D02*
X58112380Y43880000D01*
X58064761Y43975239D01*
X58017142Y44022858D01*
X57874285Y44118096D01*
X57683809Y44165715D01*
X57302857Y44165715D01*
X57207619Y44118096D01*
X57160000Y44070477D01*
X57112380Y43975239D01*
X57112380Y43784762D01*
X57160000Y43689524D01*
X57207619Y43641905D01*
X57302857Y43594286D01*
X57540952Y43594286D01*
X57636190Y43641905D01*
X57683809Y43689524D01*
X57731428Y43784762D01*
X57731428Y43975239D01*
X57683809Y44070477D01*
X57636190Y44118096D01*
X57540952Y44165715D01*
%TO.C,C1*%
X47883333Y54392858D02*
X47835714Y54345239D01*
X47692857Y54297620D01*
X47597619Y54297620D01*
X47454761Y54345239D01*
X47359523Y54440477D01*
X47311904Y54535715D01*
X47264285Y54726191D01*
X47264285Y54869048D01*
X47311904Y55059524D01*
X47359523Y55154762D01*
X47454761Y55250000D01*
X47597619Y55297620D01*
X47692857Y55297620D01*
X47835714Y55250000D01*
X47883333Y55202381D01*
X48835714Y54297620D02*
X48264285Y54297620D01*
X48550000Y54297620D02*
X48550000Y55297620D01*
X48454761Y55154762D01*
X48359523Y55059524D01*
X48264285Y55011905D01*
D12*
%TO.C,R5*%
X41071904Y21321667D02*
X40690952Y21055000D01*
X41071904Y20864524D02*
X40271904Y20864524D01*
X40271904Y21169286D01*
X40310000Y21245477D01*
X40348095Y21283572D01*
X40424285Y21321667D01*
X40538571Y21321667D01*
X40614761Y21283572D01*
X40652857Y21245477D01*
X40690952Y21169286D01*
X40690952Y20864524D01*
X40271904Y22045477D02*
X40271904Y21664524D01*
X40652857Y21626429D01*
X40614761Y21664524D01*
X40576666Y21740715D01*
X40576666Y21931191D01*
X40614761Y22007381D01*
X40652857Y22045477D01*
X40729047Y22083572D01*
X40919523Y22083572D01*
X40995714Y22045477D01*
X41033809Y22007381D01*
X41071904Y21931191D01*
X41071904Y21740715D01*
X41033809Y21664524D01*
X40995714Y21626429D01*
%TO.C,R12*%
X30145714Y49268096D02*
X29879047Y49649048D01*
X29688571Y49268096D02*
X29688571Y50068096D01*
X29993333Y50068096D01*
X30069523Y50030000D01*
X30107619Y49991905D01*
X30145714Y49915715D01*
X30145714Y49801429D01*
X30107619Y49725239D01*
X30069523Y49687143D01*
X29993333Y49649048D01*
X29688571Y49649048D01*
X30907619Y49268096D02*
X30450476Y49268096D01*
X30679047Y49268096D02*
X30679047Y50068096D01*
X30602857Y49953810D01*
X30526666Y49877620D01*
X30450476Y49839524D01*
X31212380Y49991905D02*
X31250476Y50030000D01*
X31326666Y50068096D01*
X31517142Y50068096D01*
X31593333Y50030000D01*
X31631428Y49991905D01*
X31669523Y49915715D01*
X31669523Y49839524D01*
X31631428Y49725239D01*
X31174285Y49268096D01*
X31669523Y49268096D01*
D13*
%TO.C,J4*%
X11636666Y15497620D02*
X11636666Y14783334D01*
X11589047Y14640477D01*
X11493809Y14545239D01*
X11350952Y14497620D01*
X11255714Y14497620D01*
X12541428Y15164286D02*
X12541428Y14497620D01*
X12303333Y15545239D02*
X12065238Y14830953D01*
X12684285Y14830953D01*
D12*
%TO.C,R14*%
X53771904Y41815715D02*
X53390952Y41549048D01*
X53771904Y41358572D02*
X52971904Y41358572D01*
X52971904Y41663334D01*
X53010000Y41739524D01*
X53048095Y41777620D01*
X53124285Y41815715D01*
X53238571Y41815715D01*
X53314761Y41777620D01*
X53352857Y41739524D01*
X53390952Y41663334D01*
X53390952Y41358572D01*
X53771904Y42577620D02*
X53771904Y42120477D01*
X53771904Y42349048D02*
X52971904Y42349048D01*
X53086190Y42272858D01*
X53162380Y42196667D01*
X53200476Y42120477D01*
X53238571Y43263334D02*
X53771904Y43263334D01*
X52933809Y43072858D02*
X53505238Y42882381D01*
X53505238Y43377620D01*
D13*
%TO.C,C2*%
X41088333Y63803858D02*
X41040714Y63756239D01*
X40897857Y63708620D01*
X40802619Y63708620D01*
X40659761Y63756239D01*
X40564523Y63851477D01*
X40516904Y63946715D01*
X40469285Y64137191D01*
X40469285Y64280048D01*
X40516904Y64470524D01*
X40564523Y64565762D01*
X40659761Y64661000D01*
X40802619Y64708620D01*
X40897857Y64708620D01*
X41040714Y64661000D01*
X41088333Y64613381D01*
X41469285Y64613381D02*
X41516904Y64661000D01*
X41612142Y64708620D01*
X41850238Y64708620D01*
X41945476Y64661000D01*
X41993095Y64613381D01*
X42040714Y64518143D01*
X42040714Y64422905D01*
X41993095Y64280048D01*
X41421666Y63708620D01*
X42040714Y63708620D01*
D12*
%TO.C,R6*%
X35251904Y35476667D02*
X34870952Y35210000D01*
X35251904Y35019524D02*
X34451904Y35019524D01*
X34451904Y35324286D01*
X34490000Y35400477D01*
X34528095Y35438572D01*
X34604285Y35476667D01*
X34718571Y35476667D01*
X34794761Y35438572D01*
X34832857Y35400477D01*
X34870952Y35324286D01*
X34870952Y35019524D01*
X34451904Y36162381D02*
X34451904Y36010000D01*
X34490000Y35933810D01*
X34528095Y35895715D01*
X34642380Y35819524D01*
X34794761Y35781429D01*
X35099523Y35781429D01*
X35175714Y35819524D01*
X35213809Y35857620D01*
X35251904Y35933810D01*
X35251904Y36086191D01*
X35213809Y36162381D01*
X35175714Y36200477D01*
X35099523Y36238572D01*
X34909047Y36238572D01*
X34832857Y36200477D01*
X34794761Y36162381D01*
X34756666Y36086191D01*
X34756666Y35933810D01*
X34794761Y35857620D01*
X34832857Y35819524D01*
X34909047Y35781429D01*
D13*
%TO.C,D2*%
X62867380Y27494905D02*
X61867380Y27494905D01*
X61867380Y27733000D01*
X61915000Y27875858D01*
X62010238Y27971096D01*
X62105476Y28018715D01*
X62295952Y28066334D01*
X62438809Y28066334D01*
X62629285Y28018715D01*
X62724523Y27971096D01*
X62819761Y27875858D01*
X62867380Y27733000D01*
X62867380Y27494905D01*
X61962619Y28447286D02*
X61915000Y28494905D01*
X61867380Y28590143D01*
X61867380Y28828239D01*
X61915000Y28923477D01*
X61962619Y28971096D01*
X62057857Y29018715D01*
X62153095Y29018715D01*
X62295952Y28971096D01*
X62867380Y28399667D01*
X62867380Y29018715D01*
%TO.C,J2*%
X55536666Y15297620D02*
X55536666Y14583334D01*
X55489047Y14440477D01*
X55393809Y14345239D01*
X55250952Y14297620D01*
X55155714Y14297620D01*
X55965238Y15202381D02*
X56012857Y15250000D01*
X56108095Y15297620D01*
X56346190Y15297620D01*
X56441428Y15250000D01*
X56489047Y15202381D01*
X56536666Y15107143D01*
X56536666Y15011905D01*
X56489047Y14869048D01*
X55917619Y14297620D01*
X56536666Y14297620D01*
D15*
%TO.C,C8*%
X50278571Y42306667D02*
X50302380Y42282858D01*
X50326190Y42211429D01*
X50326190Y42163810D01*
X50302380Y42092381D01*
X50254761Y42044762D01*
X50207142Y42020953D01*
X50111904Y41997143D01*
X50040476Y41997143D01*
X49945238Y42020953D01*
X49897619Y42044762D01*
X49850000Y42092381D01*
X49826190Y42163810D01*
X49826190Y42211429D01*
X49850000Y42282858D01*
X49873809Y42306667D01*
X50040476Y42592381D02*
X50016666Y42544762D01*
X49992857Y42520953D01*
X49945238Y42497143D01*
X49921428Y42497143D01*
X49873809Y42520953D01*
X49850000Y42544762D01*
X49826190Y42592381D01*
X49826190Y42687620D01*
X49850000Y42735239D01*
X49873809Y42759048D01*
X49921428Y42782858D01*
X49945238Y42782858D01*
X49992857Y42759048D01*
X50016666Y42735239D01*
X50040476Y42687620D01*
X50040476Y42592381D01*
X50064285Y42544762D01*
X50088095Y42520953D01*
X50135714Y42497143D01*
X50230952Y42497143D01*
X50278571Y42520953D01*
X50302380Y42544762D01*
X50326190Y42592381D01*
X50326190Y42687620D01*
X50302380Y42735239D01*
X50278571Y42759048D01*
X50230952Y42782858D01*
X50135714Y42782858D01*
X50088095Y42759048D01*
X50064285Y42735239D01*
X50040476Y42687620D01*
D12*
%TO.C,R7*%
X31026666Y42860596D02*
X30760000Y43241548D01*
X30569523Y42860596D02*
X30569523Y43660596D01*
X30874285Y43660596D01*
X30950476Y43622500D01*
X30988571Y43584405D01*
X31026666Y43508215D01*
X31026666Y43393929D01*
X30988571Y43317739D01*
X30950476Y43279643D01*
X30874285Y43241548D01*
X30569523Y43241548D01*
X31293333Y43660596D02*
X31826666Y43660596D01*
X31483809Y42860596D01*
%TO.C,R18*%
X56021904Y30411715D02*
X55640952Y30145048D01*
X56021904Y29954572D02*
X55221904Y29954572D01*
X55221904Y30259334D01*
X55260000Y30335524D01*
X55298095Y30373620D01*
X55374285Y30411715D01*
X55488571Y30411715D01*
X55564761Y30373620D01*
X55602857Y30335524D01*
X55640952Y30259334D01*
X55640952Y29954572D01*
X56021904Y31173620D02*
X56021904Y30716477D01*
X56021904Y30945048D02*
X55221904Y30945048D01*
X55336190Y30868858D01*
X55412380Y30792667D01*
X55450476Y30716477D01*
X55564761Y31630762D02*
X55526666Y31554572D01*
X55488571Y31516477D01*
X55412380Y31478381D01*
X55374285Y31478381D01*
X55298095Y31516477D01*
X55260000Y31554572D01*
X55221904Y31630762D01*
X55221904Y31783143D01*
X55260000Y31859334D01*
X55298095Y31897429D01*
X55374285Y31935524D01*
X55412380Y31935524D01*
X55488571Y31897429D01*
X55526666Y31859334D01*
X55564761Y31783143D01*
X55564761Y31630762D01*
X55602857Y31554572D01*
X55640952Y31516477D01*
X55717142Y31478381D01*
X55869523Y31478381D01*
X55945714Y31516477D01*
X55983809Y31554572D01*
X56021904Y31630762D01*
X56021904Y31783143D01*
X55983809Y31859334D01*
X55945714Y31897429D01*
X55869523Y31935524D01*
X55717142Y31935524D01*
X55640952Y31897429D01*
X55602857Y31859334D01*
X55564761Y31783143D01*
%TO.C,R3*%
X28376666Y71468096D02*
X28110000Y71849048D01*
X27919523Y71468096D02*
X27919523Y72268096D01*
X28224285Y72268096D01*
X28300476Y72230000D01*
X28338571Y72191905D01*
X28376666Y72115715D01*
X28376666Y72001429D01*
X28338571Y71925239D01*
X28300476Y71887143D01*
X28224285Y71849048D01*
X27919523Y71849048D01*
X28643333Y72268096D02*
X29138571Y72268096D01*
X28871904Y71963334D01*
X28986190Y71963334D01*
X29062380Y71925239D01*
X29100476Y71887143D01*
X29138571Y71810953D01*
X29138571Y71620477D01*
X29100476Y71544286D01*
X29062380Y71506191D01*
X28986190Y71468096D01*
X28757619Y71468096D01*
X28681428Y71506191D01*
X28643333Y71544286D01*
D16*
%TO.C,Q3*%
X58508238Y23195524D02*
X58493000Y23165048D01*
X58462523Y23134572D01*
X58416809Y23088858D01*
X58401571Y23058381D01*
X58401571Y23027905D01*
X58477761Y23043143D02*
X58462523Y23012667D01*
X58432047Y22982191D01*
X58371095Y22966953D01*
X58264428Y22966953D01*
X58203476Y22982191D01*
X58173000Y23012667D01*
X58157761Y23043143D01*
X58157761Y23104096D01*
X58173000Y23134572D01*
X58203476Y23165048D01*
X58264428Y23180286D01*
X58371095Y23180286D01*
X58432047Y23165048D01*
X58462523Y23134572D01*
X58477761Y23104096D01*
X58477761Y23043143D01*
X58157761Y23286953D02*
X58157761Y23485048D01*
X58279666Y23378381D01*
X58279666Y23424096D01*
X58294904Y23454572D01*
X58310142Y23469810D01*
X58340619Y23485048D01*
X58416809Y23485048D01*
X58447285Y23469810D01*
X58462523Y23454572D01*
X58477761Y23424096D01*
X58477761Y23332667D01*
X58462523Y23302191D01*
X58447285Y23286953D01*
D17*
%TO.C,C4*%
X34569285Y45088334D02*
X34581190Y45076429D01*
X34593095Y45040715D01*
X34593095Y45016905D01*
X34581190Y44981191D01*
X34557380Y44957381D01*
X34533571Y44945477D01*
X34485952Y44933572D01*
X34450238Y44933572D01*
X34402619Y44945477D01*
X34378809Y44957381D01*
X34355000Y44981191D01*
X34343095Y45016905D01*
X34343095Y45040715D01*
X34355000Y45076429D01*
X34366904Y45088334D01*
X34426428Y45302620D02*
X34593095Y45302620D01*
X34331190Y45243096D02*
X34509761Y45183572D01*
X34509761Y45338334D01*
D18*
%TO.C,U1*%
X39953809Y41194762D02*
X39953809Y40433810D01*
X39998571Y40344286D01*
X40043333Y40299524D01*
X40132857Y40254762D01*
X40311904Y40254762D01*
X40401428Y40299524D01*
X40446190Y40344286D01*
X40490952Y40433810D01*
X40490952Y41194762D01*
X41430952Y40254762D02*
X40893809Y40254762D01*
X41162380Y40254762D02*
X41162380Y41194762D01*
X41072857Y41060477D01*
X40983333Y40970953D01*
X40893809Y40926191D01*
D13*
X39998095Y41197620D02*
X39998095Y40388096D01*
X40045714Y40292858D01*
X40093333Y40245239D01*
X40188571Y40197620D01*
X40379047Y40197620D01*
X40474285Y40245239D01*
X40521904Y40292858D01*
X40569523Y40388096D01*
X40569523Y41197620D01*
X41569523Y40197620D02*
X40998095Y40197620D01*
X41283809Y40197620D02*
X41283809Y41197620D01*
X41188571Y41054762D01*
X41093333Y40959524D01*
X40998095Y40911905D01*
D12*
%TO.C,R9*%
X36186666Y49228096D02*
X35920000Y49609048D01*
X35729523Y49228096D02*
X35729523Y50028096D01*
X36034285Y50028096D01*
X36110476Y49990000D01*
X36148571Y49951905D01*
X36186666Y49875715D01*
X36186666Y49761429D01*
X36148571Y49685239D01*
X36110476Y49647143D01*
X36034285Y49609048D01*
X35729523Y49609048D01*
X36567619Y49228096D02*
X36720000Y49228096D01*
X36796190Y49266191D01*
X36834285Y49304286D01*
X36910476Y49418572D01*
X36948571Y49570953D01*
X36948571Y49875715D01*
X36910476Y49951905D01*
X36872380Y49990000D01*
X36796190Y50028096D01*
X36643809Y50028096D01*
X36567619Y49990000D01*
X36529523Y49951905D01*
X36491428Y49875715D01*
X36491428Y49685239D01*
X36529523Y49609048D01*
X36567619Y49570953D01*
X36643809Y49532858D01*
X36796190Y49532858D01*
X36872380Y49570953D01*
X36910476Y49609048D01*
X36948571Y49685239D01*
D13*
%TO.C,J11*%
X82260476Y31891620D02*
X82260476Y31177334D01*
X82212857Y31034477D01*
X82117619Y30939239D01*
X81974761Y30891620D01*
X81879523Y30891620D01*
X83260476Y30891620D02*
X82689047Y30891620D01*
X82974761Y30891620D02*
X82974761Y31891620D01*
X82879523Y31748762D01*
X82784285Y31653524D01*
X82689047Y31605905D01*
X84212857Y30891620D02*
X83641428Y30891620D01*
X83927142Y30891620D02*
X83927142Y31891620D01*
X83831904Y31748762D01*
X83736666Y31653524D01*
X83641428Y31605905D01*
%TO.C,C12*%
X87816142Y12890858D02*
X87768523Y12843239D01*
X87625666Y12795620D01*
X87530428Y12795620D01*
X87387571Y12843239D01*
X87292333Y12938477D01*
X87244714Y13033715D01*
X87197095Y13224191D01*
X87197095Y13367048D01*
X87244714Y13557524D01*
X87292333Y13652762D01*
X87387571Y13748000D01*
X87530428Y13795620D01*
X87625666Y13795620D01*
X87768523Y13748000D01*
X87816142Y13700381D01*
X88768523Y12795620D02*
X88197095Y12795620D01*
X88482809Y12795620D02*
X88482809Y13795620D01*
X88387571Y13652762D01*
X88292333Y13557524D01*
X88197095Y13509905D01*
X89149476Y13700381D02*
X89197095Y13748000D01*
X89292333Y13795620D01*
X89530428Y13795620D01*
X89625666Y13748000D01*
X89673285Y13700381D01*
X89720904Y13605143D01*
X89720904Y13509905D01*
X89673285Y13367048D01*
X89101857Y12795620D01*
X89720904Y12795620D01*
D12*
%TO.C,R8*%
X31026666Y45268096D02*
X30760000Y45649048D01*
X30569523Y45268096D02*
X30569523Y46068096D01*
X30874285Y46068096D01*
X30950476Y46030000D01*
X30988571Y45991905D01*
X31026666Y45915715D01*
X31026666Y45801429D01*
X30988571Y45725239D01*
X30950476Y45687143D01*
X30874285Y45649048D01*
X30569523Y45649048D01*
X31483809Y45725239D02*
X31407619Y45763334D01*
X31369523Y45801429D01*
X31331428Y45877620D01*
X31331428Y45915715D01*
X31369523Y45991905D01*
X31407619Y46030000D01*
X31483809Y46068096D01*
X31636190Y46068096D01*
X31712380Y46030000D01*
X31750476Y45991905D01*
X31788571Y45915715D01*
X31788571Y45877620D01*
X31750476Y45801429D01*
X31712380Y45763334D01*
X31636190Y45725239D01*
X31483809Y45725239D01*
X31407619Y45687143D01*
X31369523Y45649048D01*
X31331428Y45572858D01*
X31331428Y45420477D01*
X31369523Y45344286D01*
X31407619Y45306191D01*
X31483809Y45268096D01*
X31636190Y45268096D01*
X31712380Y45306191D01*
X31750476Y45344286D01*
X31788571Y45420477D01*
X31788571Y45572858D01*
X31750476Y45649048D01*
X31712380Y45687143D01*
X31636190Y45725239D01*
D13*
%TO.C,C10*%
X73417142Y43457143D02*
X73464761Y43409524D01*
X73512380Y43266667D01*
X73512380Y43171429D01*
X73464761Y43028572D01*
X73369523Y42933334D01*
X73274285Y42885715D01*
X73083809Y42838096D01*
X72940952Y42838096D01*
X72750476Y42885715D01*
X72655238Y42933334D01*
X72560000Y43028572D01*
X72512380Y43171429D01*
X72512380Y43266667D01*
X72560000Y43409524D01*
X72607619Y43457143D01*
X73512380Y44409524D02*
X73512380Y43838096D01*
X73512380Y44123810D02*
X72512380Y44123810D01*
X72655238Y44028572D01*
X72750476Y43933334D01*
X72798095Y43838096D01*
X72512380Y45028572D02*
X72512380Y45123810D01*
X72560000Y45219048D01*
X72607619Y45266667D01*
X72702857Y45314286D01*
X72893333Y45361905D01*
X73131428Y45361905D01*
X73321904Y45314286D01*
X73417142Y45266667D01*
X73464761Y45219048D01*
X73512380Y45123810D01*
X73512380Y45028572D01*
X73464761Y44933334D01*
X73417142Y44885715D01*
X73321904Y44838096D01*
X73131428Y44790477D01*
X72893333Y44790477D01*
X72702857Y44838096D01*
X72607619Y44885715D01*
X72560000Y44933334D01*
X72512380Y45028572D01*
D12*
%TO.C,R11*%
X27371904Y47055715D02*
X26990952Y46789048D01*
X27371904Y46598572D02*
X26571904Y46598572D01*
X26571904Y46903334D01*
X26610000Y46979524D01*
X26648095Y47017620D01*
X26724285Y47055715D01*
X26838571Y47055715D01*
X26914761Y47017620D01*
X26952857Y46979524D01*
X26990952Y46903334D01*
X26990952Y46598572D01*
X27371904Y47817620D02*
X27371904Y47360477D01*
X27371904Y47589048D02*
X26571904Y47589048D01*
X26686190Y47512858D01*
X26762380Y47436667D01*
X26800476Y47360477D01*
X27371904Y48579524D02*
X27371904Y48122381D01*
X27371904Y48350953D02*
X26571904Y48350953D01*
X26686190Y48274762D01*
X26762380Y48198572D01*
X26800476Y48122381D01*
%TO.C,R16*%
X64271904Y34615715D02*
X63890952Y34349048D01*
X64271904Y34158572D02*
X63471904Y34158572D01*
X63471904Y34463334D01*
X63510000Y34539524D01*
X63548095Y34577620D01*
X63624285Y34615715D01*
X63738571Y34615715D01*
X63814761Y34577620D01*
X63852857Y34539524D01*
X63890952Y34463334D01*
X63890952Y34158572D01*
X64271904Y35377620D02*
X64271904Y34920477D01*
X64271904Y35149048D02*
X63471904Y35149048D01*
X63586190Y35072858D01*
X63662380Y34996667D01*
X63700476Y34920477D01*
X63471904Y36063334D02*
X63471904Y35910953D01*
X63510000Y35834762D01*
X63548095Y35796667D01*
X63662380Y35720477D01*
X63814761Y35682381D01*
X64119523Y35682381D01*
X64195714Y35720477D01*
X64233809Y35758572D01*
X64271904Y35834762D01*
X64271904Y35987143D01*
X64233809Y36063334D01*
X64195714Y36101429D01*
X64119523Y36139524D01*
X63929047Y36139524D01*
X63852857Y36101429D01*
X63814761Y36063334D01*
X63776666Y35987143D01*
X63776666Y35834762D01*
X63814761Y35758572D01*
X63852857Y35720477D01*
X63929047Y35682381D01*
D13*
%TO.C,J6*%
X46776666Y15317620D02*
X46776666Y14603334D01*
X46729047Y14460477D01*
X46633809Y14365239D01*
X46490952Y14317620D01*
X46395714Y14317620D01*
X47681428Y15317620D02*
X47490952Y15317620D01*
X47395714Y15270000D01*
X47348095Y15222381D01*
X47252857Y15079524D01*
X47205238Y14889048D01*
X47205238Y14508096D01*
X47252857Y14412858D01*
X47300476Y14365239D01*
X47395714Y14317620D01*
X47586190Y14317620D01*
X47681428Y14365239D01*
X47729047Y14412858D01*
X47776666Y14508096D01*
X47776666Y14746191D01*
X47729047Y14841429D01*
X47681428Y14889048D01*
X47586190Y14936667D01*
X47395714Y14936667D01*
X47300476Y14889048D01*
X47252857Y14841429D01*
X47205238Y14746191D01*
D17*
%TO.C,C3*%
X34935833Y31970715D02*
X34923928Y31958810D01*
X34888214Y31946905D01*
X34864404Y31946905D01*
X34828690Y31958810D01*
X34804880Y31982620D01*
X34792976Y32006429D01*
X34781071Y32054048D01*
X34781071Y32089762D01*
X34792976Y32137381D01*
X34804880Y32161191D01*
X34828690Y32185000D01*
X34864404Y32196905D01*
X34888214Y32196905D01*
X34923928Y32185000D01*
X34935833Y32173096D01*
X35019166Y32196905D02*
X35173928Y32196905D01*
X35090595Y32101667D01*
X35126309Y32101667D01*
X35150119Y32089762D01*
X35162023Y32077858D01*
X35173928Y32054048D01*
X35173928Y31994524D01*
X35162023Y31970715D01*
X35150119Y31958810D01*
X35126309Y31946905D01*
X35054880Y31946905D01*
X35031071Y31958810D01*
X35019166Y31970715D01*
D12*
%TO.C,R13*%
X53771904Y36315715D02*
X53390952Y36049048D01*
X53771904Y35858572D02*
X52971904Y35858572D01*
X52971904Y36163334D01*
X53010000Y36239524D01*
X53048095Y36277620D01*
X53124285Y36315715D01*
X53238571Y36315715D01*
X53314761Y36277620D01*
X53352857Y36239524D01*
X53390952Y36163334D01*
X53390952Y35858572D01*
X53771904Y37077620D02*
X53771904Y36620477D01*
X53771904Y36849048D02*
X52971904Y36849048D01*
X53086190Y36772858D01*
X53162380Y36696667D01*
X53200476Y36620477D01*
X52971904Y37344286D02*
X52971904Y37839524D01*
X53276666Y37572858D01*
X53276666Y37687143D01*
X53314761Y37763334D01*
X53352857Y37801429D01*
X53429047Y37839524D01*
X53619523Y37839524D01*
X53695714Y37801429D01*
X53733809Y37763334D01*
X53771904Y37687143D01*
X53771904Y37458572D01*
X53733809Y37382381D01*
X53695714Y37344286D01*
D15*
%TO.C,C13*%
X48201071Y36851429D02*
X48177261Y36827620D01*
X48105833Y36803810D01*
X48058214Y36803810D01*
X47986785Y36827620D01*
X47939166Y36875239D01*
X47915357Y36922858D01*
X47891547Y37018096D01*
X47891547Y37089524D01*
X47915357Y37184762D01*
X47939166Y37232381D01*
X47986785Y37280000D01*
X48058214Y37303810D01*
X48105833Y37303810D01*
X48177261Y37280000D01*
X48201071Y37256191D01*
X48677261Y36803810D02*
X48391547Y36803810D01*
X48534404Y36803810D02*
X48534404Y37303810D01*
X48486785Y37232381D01*
X48439166Y37184762D01*
X48391547Y37160953D01*
X48843928Y37303810D02*
X49153452Y37303810D01*
X48986785Y37113334D01*
X49058214Y37113334D01*
X49105833Y37089524D01*
X49129642Y37065715D01*
X49153452Y37018096D01*
X49153452Y36899048D01*
X49129642Y36851429D01*
X49105833Y36827620D01*
X49058214Y36803810D01*
X48915357Y36803810D01*
X48867738Y36827620D01*
X48843928Y36851429D01*
D13*
%TO.C,C11*%
X66306142Y17197143D02*
X66353761Y17149524D01*
X66401380Y17006667D01*
X66401380Y16911429D01*
X66353761Y16768572D01*
X66258523Y16673334D01*
X66163285Y16625715D01*
X65972809Y16578096D01*
X65829952Y16578096D01*
X65639476Y16625715D01*
X65544238Y16673334D01*
X65449000Y16768572D01*
X65401380Y16911429D01*
X65401380Y17006667D01*
X65449000Y17149524D01*
X65496619Y17197143D01*
X66401380Y18149524D02*
X66401380Y17578096D01*
X66401380Y17863810D02*
X65401380Y17863810D01*
X65544238Y17768572D01*
X65639476Y17673334D01*
X65687095Y17578096D01*
X66401380Y19101905D02*
X66401380Y18530477D01*
X66401380Y18816191D02*
X65401380Y18816191D01*
X65544238Y18720953D01*
X65639476Y18625715D01*
X65687095Y18530477D01*
D12*
%TO.C,R15*%
X50894904Y31782715D02*
X50513952Y31516048D01*
X50894904Y31325572D02*
X50094904Y31325572D01*
X50094904Y31630334D01*
X50133000Y31706524D01*
X50171095Y31744620D01*
X50247285Y31782715D01*
X50361571Y31782715D01*
X50437761Y31744620D01*
X50475857Y31706524D01*
X50513952Y31630334D01*
X50513952Y31325572D01*
X50894904Y32544620D02*
X50894904Y32087477D01*
X50894904Y32316048D02*
X50094904Y32316048D01*
X50209190Y32239858D01*
X50285380Y32163667D01*
X50323476Y32087477D01*
X50094904Y33268429D02*
X50094904Y32887477D01*
X50475857Y32849381D01*
X50437761Y32887477D01*
X50399666Y32963667D01*
X50399666Y33154143D01*
X50437761Y33230334D01*
X50475857Y33268429D01*
X50552047Y33306524D01*
X50742523Y33306524D01*
X50818714Y33268429D01*
X50856809Y33230334D01*
X50894904Y33154143D01*
X50894904Y32963667D01*
X50856809Y32887477D01*
X50818714Y32849381D01*
D13*
%TO.C,C7*%
X32267142Y56713334D02*
X32314761Y56665715D01*
X32362380Y56522858D01*
X32362380Y56427620D01*
X32314761Y56284762D01*
X32219523Y56189524D01*
X32124285Y56141905D01*
X31933809Y56094286D01*
X31790952Y56094286D01*
X31600476Y56141905D01*
X31505238Y56189524D01*
X31410000Y56284762D01*
X31362380Y56427620D01*
X31362380Y56522858D01*
X31410000Y56665715D01*
X31457619Y56713334D01*
X31362380Y57046667D02*
X31362380Y57713334D01*
X32362380Y57284762D01*
%TO.C,J3*%
X51878666Y76240620D02*
X51878666Y75526334D01*
X51831047Y75383477D01*
X51735809Y75288239D01*
X51592952Y75240620D01*
X51497714Y75240620D01*
X52259619Y76240620D02*
X52878666Y76240620D01*
X52545333Y75859667D01*
X52688190Y75859667D01*
X52783428Y75812048D01*
X52831047Y75764429D01*
X52878666Y75669191D01*
X52878666Y75431096D01*
X52831047Y75335858D01*
X52783428Y75288239D01*
X52688190Y75240620D01*
X52402476Y75240620D01*
X52307238Y75288239D01*
X52259619Y75335858D01*
%TO.C,D4*%
X37162380Y20716905D02*
X36162380Y20716905D01*
X36162380Y20955000D01*
X36210000Y21097858D01*
X36305238Y21193096D01*
X36400476Y21240715D01*
X36590952Y21288334D01*
X36733809Y21288334D01*
X36924285Y21240715D01*
X37019523Y21193096D01*
X37114761Y21097858D01*
X37162380Y20955000D01*
X37162380Y20716905D01*
X36495714Y22145477D02*
X37162380Y22145477D01*
X36114761Y21907381D02*
X36829047Y21669286D01*
X36829047Y22288334D01*
%TO.C,C5*%
X20343333Y44415358D02*
X20295714Y44367739D01*
X20152857Y44320120D01*
X20057619Y44320120D01*
X19914761Y44367739D01*
X19819523Y44462977D01*
X19771904Y44558215D01*
X19724285Y44748691D01*
X19724285Y44891548D01*
X19771904Y45082024D01*
X19819523Y45177262D01*
X19914761Y45272500D01*
X20057619Y45320120D01*
X20152857Y45320120D01*
X20295714Y45272500D01*
X20343333Y45224881D01*
X21248095Y45320120D02*
X20771904Y45320120D01*
X20724285Y44843929D01*
X20771904Y44891548D01*
X20867142Y44939167D01*
X21105238Y44939167D01*
X21200476Y44891548D01*
X21248095Y44843929D01*
X21295714Y44748691D01*
X21295714Y44510596D01*
X21248095Y44415358D01*
X21200476Y44367739D01*
X21105238Y44320120D01*
X20867142Y44320120D01*
X20771904Y44367739D01*
X20724285Y44415358D01*
%TO.C,D1*%
X38031380Y73214905D02*
X37031380Y73214905D01*
X37031380Y73453000D01*
X37079000Y73595858D01*
X37174238Y73691096D01*
X37269476Y73738715D01*
X37459952Y73786334D01*
X37602809Y73786334D01*
X37793285Y73738715D01*
X37888523Y73691096D01*
X37983761Y73595858D01*
X38031380Y73453000D01*
X38031380Y73214905D01*
X38031380Y74738715D02*
X38031380Y74167286D01*
X38031380Y74453000D02*
X37031380Y74453000D01*
X37174238Y74357762D01*
X37269476Y74262524D01*
X37317095Y74167286D01*
%TO.C,J1*%
X27246666Y15317620D02*
X27246666Y14603334D01*
X27199047Y14460477D01*
X27103809Y14365239D01*
X26960952Y14317620D01*
X26865714Y14317620D01*
X28246666Y14317620D02*
X27675238Y14317620D01*
X27960952Y14317620D02*
X27960952Y15317620D01*
X27865714Y15174762D01*
X27770476Y15079524D01*
X27675238Y15031905D01*
D19*
%TO.C,Q2*%
X60967380Y35129191D02*
X60919761Y35153000D01*
X60872142Y35200620D01*
X60800714Y35272048D01*
X60753095Y35295858D01*
X60705476Y35295858D01*
X60729285Y35176810D02*
X60681666Y35200620D01*
X60634047Y35248239D01*
X60610238Y35343477D01*
X60610238Y35510143D01*
X60634047Y35605381D01*
X60681666Y35653000D01*
X60729285Y35676810D01*
X60824523Y35676810D01*
X60872142Y35653000D01*
X60919761Y35605381D01*
X60943571Y35510143D01*
X60943571Y35343477D01*
X60919761Y35248239D01*
X60872142Y35200620D01*
X60824523Y35176810D01*
X60729285Y35176810D01*
X61134047Y35629191D02*
X61157857Y35653000D01*
X61205476Y35676810D01*
X61324523Y35676810D01*
X61372142Y35653000D01*
X61395952Y35629191D01*
X61419761Y35581572D01*
X61419761Y35533953D01*
X61395952Y35462524D01*
X61110238Y35176810D01*
X61419761Y35176810D01*
D13*
%TO.C,J10*%
X16600476Y29951620D02*
X16600476Y29237334D01*
X16552857Y29094477D01*
X16457619Y28999239D01*
X16314761Y28951620D01*
X16219523Y28951620D01*
X17600476Y28951620D02*
X17029047Y28951620D01*
X17314761Y28951620D02*
X17314761Y29951620D01*
X17219523Y29808762D01*
X17124285Y29713524D01*
X17029047Y29665905D01*
X18219523Y29951620D02*
X18314761Y29951620D01*
X18410000Y29904000D01*
X18457619Y29856381D01*
X18505238Y29761143D01*
X18552857Y29570667D01*
X18552857Y29332572D01*
X18505238Y29142096D01*
X18457619Y29046858D01*
X18410000Y28999239D01*
X18314761Y28951620D01*
X18219523Y28951620D01*
X18124285Y28999239D01*
X18076666Y29046858D01*
X18029047Y29142096D01*
X17981428Y29332572D01*
X17981428Y29570667D01*
X18029047Y29761143D01*
X18076666Y29856381D01*
X18124285Y29904000D01*
X18219523Y29951620D01*
D11*
%TO.C,R17*%
X52950000Y17550000D02*
X52950000Y19150000D01*
X52950000Y19150000D02*
X56150000Y19150000D01*
X56150000Y17550000D02*
X52950000Y17550000D01*
X56150000Y19150000D02*
X56150000Y17550000D01*
%TO.C,R4*%
X42660000Y19855000D02*
X42660000Y23055000D01*
X44260000Y19855000D02*
X42660000Y19855000D01*
X42660000Y23055000D02*
X44260000Y23055000D01*
X44260000Y23055000D02*
X44260000Y19855000D01*
%TO.C,R10*%
X37960000Y47930000D02*
X37960000Y46330000D01*
X34760000Y47930000D02*
X37960000Y47930000D01*
X37960000Y46330000D02*
X34760000Y46330000D01*
X34760000Y46330000D02*
X34760000Y47930000D01*
%TO.C,C6*%
X43010000Y50020000D02*
X40510000Y50020000D01*
X40510000Y50020000D02*
X40510000Y42820000D01*
X40510000Y42820000D02*
X43010000Y42820000D01*
X43010000Y42820000D02*
X43010000Y50020000D01*
%TO.C,C14*%
X42635000Y26055000D02*
X42635000Y26855000D01*
X44235000Y26055000D02*
X42635000Y26055000D01*
X44235000Y26855000D02*
X44235000Y26055000D01*
X42635000Y26855000D02*
X44235000Y26855000D01*
%TO.C,J5*%
X42210000Y13480000D02*
X37765000Y13480000D01*
X37130000Y16020000D02*
X42210000Y16020000D01*
X37130000Y14115000D02*
X37130000Y16020000D01*
X37765000Y13480000D02*
X37130000Y14115000D01*
X42210000Y16020000D02*
X42210000Y13480000D01*
%TO.C,R2*%
X26910000Y68580000D02*
X26910000Y70180000D01*
X26910000Y70180000D02*
X30110000Y70180000D01*
X30110000Y68580000D02*
X26910000Y68580000D01*
X30110000Y70180000D02*
X30110000Y68580000D01*
%TO.C,R1*%
X44710000Y72530000D02*
X43110000Y72530000D01*
X43110000Y75730000D02*
X44710000Y75730000D01*
X43110000Y72530000D02*
X43110000Y75730000D01*
X44710000Y75730000D02*
X44710000Y72530000D01*
%TO.C,D5*%
X37310000Y21705000D02*
X38110000Y21705000D01*
X36810000Y20055000D02*
X36810000Y22855000D01*
X38110000Y21705000D02*
X37710000Y21105000D01*
X37710000Y21105000D02*
X37310000Y21705000D01*
X37710000Y20705000D02*
X37710000Y21105000D01*
X38610000Y20055000D02*
X36810000Y20055000D01*
X37710000Y21105000D02*
X37160000Y21105000D01*
X37710000Y21105000D02*
X38260000Y21105000D01*
X38610000Y22855000D02*
X38610000Y20055000D01*
X37710000Y21705000D02*
X37710000Y22205000D01*
X36810000Y22855000D02*
X38610000Y22855000D01*
%TO.C,C9*%
X56410000Y46980000D02*
X56410000Y39780000D01*
X56410000Y39780000D02*
X58910000Y39780000D01*
X58910000Y46980000D02*
X56410000Y46980000D01*
X58910000Y39780000D02*
X58910000Y46980000D01*
%TO.C,C1*%
X43761139Y56937500D02*
X44761139Y56937500D01*
X44261139Y57437500D02*
X44261139Y56437500D01*
X53050000Y54750000D02*
G75*
G03*
X53050000Y54750000I-5000000J0D01*
G01*
%TO.C,R5*%
X39910000Y23055000D02*
X41510000Y23055000D01*
X41510000Y19855000D02*
X39910000Y19855000D01*
X39910000Y19855000D02*
X39910000Y23055000D01*
X41510000Y23055000D02*
X41510000Y19855000D01*
%TO.C,R12*%
X32260000Y50430000D02*
X32260000Y48830000D01*
X32260000Y48830000D02*
X29060000Y48830000D01*
X29060000Y50430000D02*
X32260000Y50430000D01*
X29060000Y48830000D02*
X29060000Y50430000D01*
%TO.C,J4*%
X9430000Y14315000D02*
X9430000Y16220000D01*
X10065000Y13680000D02*
X9430000Y14315000D01*
X14510000Y16220000D02*
X14510000Y13680000D01*
X14510000Y13680000D02*
X10065000Y13680000D01*
X9430000Y16220000D02*
X14510000Y16220000D01*
%TO.C,R14*%
X54210000Y43930000D02*
X54210000Y40730000D01*
X52610000Y40730000D02*
X52610000Y43930000D01*
X52610000Y43930000D02*
X54210000Y43930000D01*
X54210000Y40730000D02*
X52610000Y40730000D01*
%TO.C,C2*%
X38255000Y64961000D02*
X38255000Y62561000D01*
X44255000Y62561000D02*
X44255000Y65761000D01*
X44255000Y65761000D02*
X39055000Y65761000D01*
X39055000Y65761000D02*
X38255000Y64961000D01*
X38255000Y62561000D02*
X44255000Y62561000D01*
%TO.C,R6*%
X34090000Y37210000D02*
X35690000Y37210000D01*
X35690000Y34010000D02*
X34090000Y34010000D01*
X34090000Y34010000D02*
X34090000Y37210000D01*
X35690000Y37210000D02*
X35690000Y34010000D01*
%TO.C,D2*%
X61315000Y29633000D02*
X61315000Y26833000D01*
X59515000Y26833000D02*
X59515000Y29633000D01*
X59515000Y29633000D02*
X61315000Y29633000D01*
X61315000Y26833000D02*
X59515000Y26833000D01*
%TO.C,J2*%
X58410000Y16020000D02*
X58410000Y13480000D01*
X53330000Y14115000D02*
X53330000Y16020000D01*
X53965000Y13480000D02*
X53330000Y14115000D01*
X58410000Y13480000D02*
X53965000Y13480000D01*
X53330000Y16020000D02*
X58410000Y16020000D01*
%TO.C,C8*%
X50725000Y43390000D02*
X50725000Y41390000D01*
X49475000Y41390000D02*
X49475000Y43390000D01*
X50725000Y41390000D02*
X49475000Y41390000D01*
X49475000Y43390000D02*
X50725000Y43390000D01*
%TO.C,R7*%
X29560000Y44022500D02*
X32760000Y44022500D01*
X29560000Y42422500D02*
X29560000Y44022500D01*
X32760000Y44022500D02*
X32760000Y42422500D01*
X32760000Y42422500D02*
X29560000Y42422500D01*
%TO.C,R18*%
X54860000Y32526000D02*
X56460000Y32526000D01*
X56460000Y32526000D02*
X56460000Y29326000D01*
X56460000Y29326000D02*
X54860000Y29326000D01*
X54860000Y29326000D02*
X54860000Y32526000D01*
%TO.C,R3*%
X30110000Y72630000D02*
X30110000Y71030000D01*
X26910000Y71030000D02*
X26910000Y72630000D01*
X30110000Y71030000D02*
X26910000Y71030000D01*
X26910000Y72630000D02*
X30110000Y72630000D01*
%TO.C,Q3*%
X56883000Y22901000D02*
X56883000Y23876000D01*
X57208000Y22576000D02*
X56883000Y22901000D01*
X56883000Y23876000D02*
X59783000Y23876000D01*
X59783000Y22576000D02*
X57208000Y22576000D01*
X59783000Y23876000D02*
X59783000Y22576000D01*
%TO.C,C4*%
X35310000Y44830000D02*
X35010000Y44830000D01*
X35010000Y45430000D02*
X35310000Y45430000D01*
X35310000Y45430000D02*
X35310000Y44830000D01*
X35010000Y44830000D02*
X35010000Y45430000D01*
%TO.C,U1*%
X38445000Y36700000D02*
X39445000Y37700000D01*
X38445000Y27540000D02*
X38445000Y36700000D01*
X39445000Y37700000D02*
X44795000Y37700000D01*
X44795000Y37700000D02*
X44795000Y27540000D01*
X44795000Y27540000D02*
X38445000Y27540000D01*
%TO.C,R9*%
X34720000Y48790000D02*
X34720000Y50390000D01*
X37920000Y50390000D02*
X37920000Y48790000D01*
X37920000Y48790000D02*
X34720000Y48790000D01*
X34720000Y50390000D02*
X37920000Y50390000D01*
%TO.C,J11*%
X68390000Y35099000D02*
X68390000Y25549000D01*
X94715000Y25549000D02*
X94715000Y35099000D01*
X71390000Y21249000D02*
X91715000Y21274000D01*
X68390000Y25549000D02*
X71390000Y25549000D01*
X91715000Y35124000D02*
X91715000Y21274000D01*
X91715000Y39399000D02*
X91715000Y35099000D01*
X94715000Y25549000D02*
X91715000Y25549000D01*
X71390000Y21249000D02*
X71390000Y25549000D01*
X71390000Y39399000D02*
X91715000Y39399000D01*
X71390000Y25549000D02*
X71390000Y39399000D01*
X71390000Y21249000D02*
X71390000Y39399000D01*
X68390000Y35099000D02*
X71390000Y35099000D01*
X94715000Y35099000D02*
X91715000Y35099000D01*
%TO.C,C12*%
X92071000Y19708000D02*
X84871000Y19708000D01*
X84871000Y19708000D02*
X84871000Y11208000D01*
X92071000Y11208000D02*
X92071000Y19708000D01*
X84871000Y11208000D02*
X92071000Y11208000D01*
%TO.C,R8*%
X32760000Y46430000D02*
X32760000Y44830000D01*
X29560000Y44830000D02*
X29560000Y46430000D01*
X29560000Y46430000D02*
X32760000Y46430000D01*
X32760000Y44830000D02*
X29560000Y44830000D01*
%TO.C,C10*%
X71460000Y41100000D02*
X74660000Y41100000D01*
X74660000Y41100000D02*
X74660000Y46300000D01*
X71460000Y47100000D02*
X71460000Y41100000D01*
X74660000Y46300000D02*
X73860000Y47100000D01*
X73860000Y47100000D02*
X71460000Y47100000D01*
%TO.C,R11*%
X27810000Y45970000D02*
X26210000Y45970000D01*
X26210000Y49170000D02*
X27810000Y49170000D01*
X27810000Y49170000D02*
X27810000Y45970000D01*
X26210000Y45970000D02*
X26210000Y49170000D01*
%TO.C,R16*%
X63110000Y33530000D02*
X63110000Y36730000D01*
X64710000Y33530000D02*
X63110000Y33530000D01*
X64710000Y36730000D02*
X64710000Y33530000D01*
X63110000Y36730000D02*
X64710000Y36730000D01*
%TO.C,J6*%
X44570000Y16040000D02*
X49650000Y16040000D01*
X45205000Y13500000D02*
X44570000Y14135000D01*
X49650000Y16040000D02*
X49650000Y13500000D01*
X44570000Y14135000D02*
X44570000Y16040000D01*
X49650000Y13500000D02*
X45205000Y13500000D01*
%TO.C,C3*%
X35277500Y31230000D02*
X34677500Y31230000D01*
X35277500Y31530000D02*
X35277500Y31230000D01*
X34677500Y31530000D02*
X35277500Y31530000D01*
X34677500Y31230000D02*
X34677500Y31530000D01*
%TO.C,R13*%
X52610000Y35230000D02*
X52610000Y38430000D01*
X52610000Y38430000D02*
X54210000Y38430000D01*
X54210000Y35230000D02*
X52610000Y35230000D01*
X54210000Y38430000D02*
X54210000Y35230000D01*
%TO.C,C13*%
X49522500Y37655000D02*
X49522500Y36405000D01*
X49522500Y36405000D02*
X47522500Y36405000D01*
X47522500Y37655000D02*
X49522500Y37655000D01*
X47522500Y36405000D02*
X47522500Y37655000D01*
%TO.C,C11*%
X68636500Y21628861D02*
X67636500Y21628861D01*
X68136500Y22128861D02*
X68136500Y21128861D01*
X70949000Y17840000D02*
G75*
G03*
X70949000Y17840000I-5000000J0D01*
G01*
%TO.C,R15*%
X49733000Y33897000D02*
X51333000Y33897000D01*
X51333000Y30697000D02*
X49733000Y30697000D01*
X51333000Y33897000D02*
X51333000Y30697000D01*
X49733000Y30697000D02*
X49733000Y33897000D01*
%TO.C,C7*%
X30660000Y60480000D02*
X30660000Y53280000D01*
X33160000Y60480000D02*
X30660000Y60480000D01*
X33160000Y53280000D02*
X33160000Y60480000D01*
X30660000Y53280000D02*
X33160000Y53280000D01*
%TO.C,J3*%
X56335000Y65000000D02*
X55335000Y64000000D01*
X47335000Y64000000D02*
X47335000Y78300000D01*
X47335000Y78300000D02*
X56335000Y78300000D01*
X56335000Y78300000D02*
X56335000Y65000000D01*
X47335000Y64000000D02*
X55335000Y64000000D01*
%TO.C,D4*%
X34710000Y21205000D02*
X34710000Y20705000D01*
X34710000Y21805000D02*
X35110000Y21205000D01*
X33810000Y20055000D02*
X33810000Y22855000D01*
X34710000Y21805000D02*
X34160000Y21805000D01*
X33810000Y22855000D02*
X35610000Y22855000D01*
X34310000Y21205000D02*
X34710000Y21805000D01*
X34710000Y21805000D02*
X35260000Y21805000D01*
X35610000Y22855000D02*
X35610000Y20055000D01*
X35110000Y21205000D02*
X34310000Y21205000D01*
X35610000Y20055000D02*
X33810000Y20055000D01*
X34710000Y22205000D02*
X34710000Y21805000D01*
%TO.C,C5*%
X24110000Y43522500D02*
X24110000Y46022500D01*
X16910000Y43522500D02*
X24110000Y43522500D01*
X24110000Y46022500D02*
X16910000Y46022500D01*
X16910000Y46022500D02*
X16910000Y43522500D01*
%TO.C,D1*%
X37810000Y76130000D02*
X37810000Y71530000D01*
X40810000Y71530000D02*
X37810000Y71530000D01*
X37810000Y76130000D02*
X40810000Y76130000D01*
X40810000Y76130000D02*
X40810000Y71530000D01*
%TO.C,J1*%
X25040000Y16040000D02*
X30120000Y16040000D01*
X25040000Y14135000D02*
X25040000Y16040000D01*
X25675000Y13500000D02*
X25040000Y14135000D01*
X30120000Y13500000D02*
X25675000Y13500000D01*
X30120000Y16040000D02*
X30120000Y13500000D01*
%TO.C,Q2*%
X62115000Y35578000D02*
X61615000Y36078000D01*
X62115000Y34728000D02*
X59915000Y34728000D01*
X59915000Y34728000D02*
X59915000Y36078000D01*
X61615000Y36078000D02*
X59915000Y36078000D01*
X62115000Y34728000D02*
X62115000Y35578000D01*
%TO.C,J10*%
X5765000Y35199000D02*
X5765000Y25649000D01*
X29090000Y21349000D02*
X8765000Y21349000D01*
X29090000Y39499000D02*
X8765000Y39474000D01*
X8765000Y21349000D02*
X8765000Y25649000D01*
X32090000Y25649000D02*
X32090000Y35199000D01*
X29090000Y35199000D02*
X29090000Y21349000D01*
X29090000Y39499000D02*
X29090000Y35199000D01*
X5765000Y25649000D02*
X8765000Y25649000D01*
X29090000Y39499000D02*
X29090000Y21349000D01*
X32090000Y35199000D02*
X29090000Y35199000D01*
X5765000Y35199000D02*
X8765000Y35199000D01*
X8765000Y25624000D02*
X8765000Y39474000D01*
X32090000Y25649000D02*
X29090000Y25649000D01*
D20*
%TO.C,RV2*%
X68940000Y53020103D02*
X72140000Y53020103D01*
X72140000Y53020103D02*
X72140000Y53620103D01*
X72140000Y53620103D02*
X68940000Y53620103D01*
X68940000Y53620103D02*
X68940000Y53020103D01*
G36*
X68940000Y53020103D02*
G01*
X72140000Y53020103D01*
X72140000Y53620103D01*
X68940000Y53620103D01*
X68940000Y53020103D01*
G37*
X68940000Y61420103D02*
X72140000Y61420103D01*
X72140000Y61420103D02*
X72140000Y62020103D01*
X72140000Y62020103D02*
X68940000Y62020103D01*
X68940000Y62020103D02*
X68940000Y61420103D01*
G36*
X68940000Y61420103D02*
G01*
X72140000Y61420103D01*
X72140000Y62020103D01*
X68940000Y62020103D01*
X68940000Y61420103D01*
G37*
%TO.C,RV1*%
X17520000Y61430000D02*
X20720000Y61430000D01*
X20720000Y61430000D02*
X20720000Y62030000D01*
X20720000Y62030000D02*
X17520000Y62030000D01*
X17520000Y62030000D02*
X17520000Y61430000D01*
G36*
X17520000Y61430000D02*
G01*
X20720000Y61430000D01*
X20720000Y62030000D01*
X17520000Y62030000D01*
X17520000Y61430000D01*
G37*
X17520000Y53030000D02*
X20720000Y53030000D01*
X20720000Y53030000D02*
X20720000Y53630000D01*
X20720000Y53630000D02*
X17520000Y53630000D01*
X17520000Y53630000D02*
X17520000Y53030000D01*
G36*
X17520000Y53030000D02*
G01*
X20720000Y53030000D01*
X20720000Y53630000D01*
X17520000Y53630000D01*
X17520000Y53030000D01*
G37*
%TD*%
M02*
