%TF.GenerationSoftware,KiCad,Pcbnew,(6.0.0-0)*%
%TF.CreationDate,2022-01-31T16:21:43-05:00*%
%TF.ProjectId,Valve Wizard Cab Sim,56616c76-6520-4576-997a-617264204361,rev?*%
%TF.SameCoordinates,PX187ff90PY69be500*%
%TF.FileFunction,Copper,L1,Top*%
%TF.FilePolarity,Positive*%
%FSLAX46Y46*%
G04 Gerber Fmt 4.6, Leading zero omitted, Abs format (unit mm)*
G04 Created by KiCad (PCBNEW (6.0.0-0)) date 2022-01-31 16:21:43*
%MOMM*%
%LPD*%
G01*
G04 APERTURE LIST*
G04 Aperture macros list*
%AMRoundRect*
0 Rectangle with rounded corners*
0 $1 Rounding radius*
0 $2 $3 $4 $5 $6 $7 $8 $9 X,Y pos of 4 corners*
0 Add a 4 corners polygon primitive as box body*
4,1,4,$2,$3,$4,$5,$6,$7,$8,$9,$2,$3,0*
0 Add four circle primitives for the rounded corners*
1,1,$1+$1,$2,$3*
1,1,$1+$1,$4,$5*
1,1,$1+$1,$6,$7*
1,1,$1+$1,$8,$9*
0 Add four rect primitives between the rounded corners*
20,1,$1+$1,$2,$3,$4,$5,0*
20,1,$1+$1,$4,$5,$6,$7,0*
20,1,$1+$1,$6,$7,$8,$9,0*
20,1,$1+$1,$8,$9,$2,$3,0*%
G04 Aperture macros list end*
%TA.AperFunction,Profile*%
%ADD10C,0.100000*%
%TD*%
%TA.AperFunction,Profile*%
%ADD11C,0.500000*%
%TD*%
%TA.AperFunction,SMDPad,CuDef*%
%ADD12RoundRect,0.250000X0.400000X0.625000X-0.400000X0.625000X-0.400000X-0.625000X0.400000X-0.625000X0*%
%TD*%
%TA.AperFunction,SMDPad,CuDef*%
%ADD13RoundRect,0.250000X0.625000X-0.400000X0.625000X0.400000X-0.625000X0.400000X-0.625000X-0.400000X0*%
%TD*%
%TA.AperFunction,ComponentPad*%
%ADD14C,1.600000*%
%TD*%
%TA.AperFunction,SMDPad,CuDef*%
%ADD15RoundRect,0.225000X0.225000X0.250000X-0.225000X0.250000X-0.225000X-0.250000X0.225000X-0.250000X0*%
%TD*%
%TA.AperFunction,WasherPad*%
%ADD16C,2.100000*%
%TD*%
%TA.AperFunction,ComponentPad*%
%ADD17R,1.700000X1.700000*%
%TD*%
%TA.AperFunction,ComponentPad*%
%ADD18O,1.700000X1.700000*%
%TD*%
%TA.AperFunction,SMDPad,CuDef*%
%ADD19R,1.200000X0.900000*%
%TD*%
%TA.AperFunction,ComponentPad*%
%ADD20R,2.000000X2.000000*%
%TD*%
%TA.AperFunction,ComponentPad*%
%ADD21C,2.000000*%
%TD*%
%TA.AperFunction,SMDPad,CuDef*%
%ADD22RoundRect,0.250000X-0.625000X0.400000X-0.625000X-0.400000X0.625000X-0.400000X0.625000X0.400000X0*%
%TD*%
%TA.AperFunction,WasherPad*%
%ADD23C,1.100000*%
%TD*%
%TA.AperFunction,SMDPad,CuDef*%
%ADD24RoundRect,0.250000X-0.875000X-0.925000X0.875000X-0.925000X0.875000X0.925000X-0.875000X0.925000X0*%
%TD*%
%TA.AperFunction,SMDPad,CuDef*%
%ADD25RoundRect,0.250000X0.475000X-0.337500X0.475000X0.337500X-0.475000X0.337500X-0.475000X-0.337500X0*%
%TD*%
%TA.AperFunction,SMDPad,CuDef*%
%ADD26RoundRect,0.250000X-0.400000X-0.625000X0.400000X-0.625000X0.400000X0.625000X-0.400000X0.625000X0*%
%TD*%
%TA.AperFunction,SMDPad,CuDef*%
%ADD27RoundRect,0.150000X0.150000X-0.587500X0.150000X0.587500X-0.150000X0.587500X-0.150000X-0.587500X0*%
%TD*%
%TA.AperFunction,SMDPad,CuDef*%
%ADD28RoundRect,0.100000X0.100000X-0.217500X0.100000X0.217500X-0.100000X0.217500X-0.100000X-0.217500X0*%
%TD*%
%TA.AperFunction,ComponentPad*%
%ADD29R,1.600000X1.600000*%
%TD*%
%TA.AperFunction,SMDPad,CuDef*%
%ADD30RoundRect,0.162500X-0.162500X0.825000X-0.162500X-0.825000X0.162500X-0.825000X0.162500X0.825000X0*%
%TD*%
%TA.AperFunction,ComponentPad*%
%ADD31O,1.600000X1.600000*%
%TD*%
%TA.AperFunction,ComponentPad*%
%ADD32RoundRect,0.875000X-1.875000X0.875000X-1.875000X-0.875000X1.875000X-0.875000X1.875000X0.875000X0*%
%TD*%
%TA.AperFunction,SMDPad,CuDef*%
%ADD33RoundRect,0.250000X-0.925000X0.875000X-0.925000X-0.875000X0.925000X-0.875000X0.925000X0.875000X0*%
%TD*%
%TA.AperFunction,SMDPad,CuDef*%
%ADD34RoundRect,0.100000X-0.217500X-0.100000X0.217500X-0.100000X0.217500X0.100000X-0.217500X0.100000X0*%
%TD*%
%TA.AperFunction,SMDPad,CuDef*%
%ADD35RoundRect,0.250000X-0.337500X-0.475000X0.337500X-0.475000X0.337500X0.475000X-0.337500X0.475000X0*%
%TD*%
%TA.AperFunction,ComponentPad*%
%ADD36R,4.600000X2.000000*%
%TD*%
%TA.AperFunction,ComponentPad*%
%ADD37O,4.200000X2.000000*%
%TD*%
%TA.AperFunction,ComponentPad*%
%ADD38O,2.000000X4.200000*%
%TD*%
%TA.AperFunction,SMDPad,CuDef*%
%ADD39R,1.800000X2.500000*%
%TD*%
%TA.AperFunction,SMDPad,CuDef*%
%ADD40R,0.400000X0.650000*%
%TD*%
%TA.AperFunction,ComponentPad*%
%ADD41RoundRect,0.875000X1.875000X-0.875000X1.875000X0.875000X-1.875000X0.875000X-1.875000X-0.875000X0*%
%TD*%
%TA.AperFunction,ComponentPad*%
%ADD42C,1.800000*%
%TD*%
%TA.AperFunction,ComponentPad*%
%ADD43C,4.000000*%
%TD*%
%TA.AperFunction,ComponentPad*%
%ADD44R,1.800000X1.800000*%
%TD*%
%TA.AperFunction,ViaPad*%
%ADD45C,1.000000*%
%TD*%
%TA.AperFunction,Conductor*%
%ADD46C,1.000000*%
%TD*%
%TA.AperFunction,Conductor*%
%ADD47C,0.400000*%
%TD*%
%TA.AperFunction,Conductor*%
%ADD48C,0.800000*%
%TD*%
%TA.AperFunction,Conductor*%
%ADD49C,1.200000*%
%TD*%
G04 APERTURE END LIST*
D10*
X5360000Y11071320D02*
G75*
G03*
X8360000Y8071320I3000001J1D01*
G01*
X95150000Y67390000D02*
G75*
G03*
X94640000Y67900000I-510002J-2D01*
G01*
X5900624Y67700072D02*
G75*
G03*
X5390624Y67190072I2J-510002D01*
G01*
X5360000Y11071320D02*
X5390624Y67190072D01*
X16910624Y78900073D02*
G75*
G03*
X16400624Y78410696I-1J-510434D01*
G01*
X84098752Y78389376D02*
G75*
G03*
X83588752Y78899376I-510002J-2D01*
G01*
X92140000Y8071320D02*
X8360000Y8071320D01*
X5900624Y67700072D02*
G75*
G03*
X16400624Y78410696I-473508J10966267D01*
G01*
X92140000Y8071320D02*
G75*
G03*
X95140000Y11071320I-1J3000001D01*
G01*
X84098752Y78389376D02*
G75*
G03*
X94640000Y67900000I10950523J463299D01*
G01*
X95150000Y67390000D02*
X95140000Y11071320D01*
X16910624Y78900072D02*
X83588752Y78899376D01*
D11*
%TO.C,RV2*%
X68940000Y53020103D02*
X72140000Y53020103D01*
X72140000Y53020103D02*
X72140000Y53620103D01*
X72140000Y53620103D02*
X68940000Y53620103D01*
X68940000Y53620103D02*
X68940000Y53020103D01*
G36*
X68940000Y53020103D02*
G01*
X72140000Y53020103D01*
X72140000Y53620103D01*
X68940000Y53620103D01*
X68940000Y53020103D01*
G37*
X68940000Y61420103D02*
X72140000Y61420103D01*
X72140000Y61420103D02*
X72140000Y62020103D01*
X72140000Y62020103D02*
X68940000Y62020103D01*
X68940000Y62020103D02*
X68940000Y61420103D01*
G36*
X68940000Y61420103D02*
G01*
X72140000Y61420103D01*
X72140000Y62020103D01*
X68940000Y62020103D01*
X68940000Y61420103D01*
G37*
%TO.C,RV1*%
X17520000Y61430000D02*
X20720000Y61430000D01*
X20720000Y61430000D02*
X20720000Y62030000D01*
X20720000Y62030000D02*
X17520000Y62030000D01*
X17520000Y62030000D02*
X17520000Y61430000D01*
G36*
X17520000Y61430000D02*
G01*
X20720000Y61430000D01*
X20720000Y62030000D01*
X17520000Y62030000D01*
X17520000Y61430000D01*
G37*
X17520000Y53030000D02*
X20720000Y53030000D01*
X20720000Y53030000D02*
X20720000Y53630000D01*
X20720000Y53630000D02*
X17520000Y53630000D01*
X17520000Y53630000D02*
X17520000Y53030000D01*
G36*
X17520000Y53030000D02*
G01*
X20720000Y53030000D01*
X20720000Y53630000D01*
X17520000Y53630000D01*
X17520000Y53030000D01*
G37*
%TD*%
D12*
%TO.P,R17,1*%
%TO.N,FS_E*%
X56100000Y18350000D03*
%TO.P,R17,2*%
%TO.N,GND*%
X53000000Y18350000D03*
%TD*%
D13*
%TO.P,R4,1*%
%TO.N,FS_A*%
X43460000Y19905000D03*
%TO.P,R4,2*%
%TO.N,GND*%
X43460000Y23005000D03*
%TD*%
D12*
%TO.P,R10,1*%
%TO.N,Net-(C6-Pad2)*%
X37910000Y47130000D03*
%TO.P,R10,2*%
%TO.N,Net-(C7-Pad1)*%
X34810000Y47130000D03*
%TD*%
D14*
%TO.P,C6,1*%
%TO.N,Net-(C4-Pad2)*%
X41760000Y48920000D03*
%TO.P,C6,2*%
%TO.N,Net-(C6-Pad2)*%
X41760000Y43920000D03*
%TD*%
D15*
%TO.P,C14,1*%
%TO.N,9V*%
X44210000Y26455000D03*
%TO.P,C14,2*%
%TO.N,GND*%
X42660000Y26455000D03*
%TD*%
D16*
%TO.P,J5,*%
%TO.N,*%
X38390000Y12190000D03*
X40940000Y12190000D03*
D17*
%TO.P,J5,1,Pin_1*%
%TO.N,FS_CD*%
X38400000Y14750000D03*
D18*
%TO.P,J5,2,Pin_2*%
%TO.N,FS_A*%
X40940000Y14750000D03*
%TD*%
D12*
%TO.P,R2,1*%
%TO.N,9V*%
X30060000Y69380000D03*
%TO.P,R2,2*%
%TO.N,4.5V*%
X26960000Y69380000D03*
%TD*%
D13*
%TO.P,R1,1*%
%TO.N,9V*%
X43910000Y72580000D03*
%TO.P,R1,2*%
%TO.N,VIN*%
X43910000Y75680000D03*
%TD*%
D19*
%TO.P,D5,1,K*%
%TO.N,GND*%
X37710000Y19805000D03*
%TO.P,D5,2,A*%
%TO.N,Net-(C3-Pad1)*%
X37710000Y23105000D03*
%TD*%
D14*
%TO.P,C9,1*%
%TO.N,Net-(C9-Pad1)*%
X57660000Y40880000D03*
%TO.P,C9,2*%
%TO.N,GND*%
X57660000Y45880000D03*
%TD*%
D20*
%TO.P,C1,1*%
%TO.N,9V*%
X45550000Y54750000D03*
D21*
%TO.P,C1,2*%
%TO.N,GND*%
X50550000Y54750000D03*
%TD*%
D22*
%TO.P,R5,1*%
%TO.N,Net-(C3-Pad1)*%
X40710000Y23005000D03*
%TO.P,R5,2*%
%TO.N,FS_A*%
X40710000Y19905000D03*
%TD*%
D12*
%TO.P,R12,1*%
%TO.N,Net-(C7-Pad1)*%
X32210000Y49630000D03*
%TO.P,R12,2*%
%TO.N,Net-(R12-Pad2)*%
X29110000Y49630000D03*
%TD*%
D23*
%TO.P,J4,*%
%TO.N,*%
X10690000Y12390000D03*
X13240000Y12390000D03*
D17*
%TO.P,J4,1,Pin_1*%
%TO.N,BAT+*%
X10700000Y14950000D03*
D18*
%TO.P,J4,2,Pin_2*%
%TO.N,BAT-*%
X13240000Y14950000D03*
%TD*%
D22*
%TO.P,R14,1*%
%TO.N,Net-(C8-Pad2)*%
X53410000Y43880000D03*
%TO.P,R14,2*%
%TO.N,Net-(C9-Pad1)*%
X53410000Y40780000D03*
%TD*%
D24*
%TO.P,C2,1*%
%TO.N,4.5V*%
X38705000Y64161000D03*
%TO.P,C2,2*%
%TO.N,GND*%
X43805000Y64161000D03*
%TD*%
D13*
%TO.P,R6,1*%
%TO.N,Net-(C3-Pad2)*%
X34890000Y34060000D03*
%TO.P,R6,2*%
%TO.N,4.5V*%
X34890000Y37160000D03*
%TD*%
D19*
%TO.P,D2,1,K*%
%TO.N,9V*%
X60415000Y29883000D03*
%TO.P,D2,2,A*%
%TO.N,FS_F*%
X60415000Y26583000D03*
%TD*%
D16*
%TO.P,J2,*%
%TO.N,*%
X54590000Y12190000D03*
X57140000Y12190000D03*
D17*
%TO.P,J2,1,Pin_1*%
%TO.N,FS_F*%
X54600000Y14750000D03*
D18*
%TO.P,J2,2,Pin_2*%
%TO.N,FS_E*%
X57140000Y14750000D03*
%TD*%
D25*
%TO.P,C8,1*%
%TO.N,Net-(C6-Pad2)*%
X50100000Y41352500D03*
%TO.P,C8,2*%
%TO.N,Net-(C8-Pad2)*%
X50100000Y43427500D03*
%TD*%
D26*
%TO.P,R7,1*%
%TO.N,Net-(C5-Pad1)*%
X29610000Y43222500D03*
%TO.P,R7,2*%
%TO.N,Net-(C4-Pad1)*%
X32710000Y43222500D03*
%TD*%
D22*
%TO.P,R18,1*%
%TO.N,9V*%
X55660000Y32476000D03*
%TO.P,R18,2*%
%TO.N,Net-(Q3-Pad3)*%
X55660000Y29376000D03*
%TD*%
D26*
%TO.P,R3,1*%
%TO.N,4.5V*%
X26960000Y71830000D03*
%TO.P,R3,2*%
%TO.N,GND*%
X30060000Y71830000D03*
%TD*%
D27*
%TO.P,Q3,1,G*%
%TO.N,FS_F*%
X57383000Y22288500D03*
%TO.P,Q3,2,S*%
%TO.N,Net-(D3-Pad2)*%
X59283000Y22288500D03*
%TO.P,Q3,3,D*%
%TO.N,Net-(Q3-Pad3)*%
X58333000Y24163500D03*
%TD*%
D28*
%TO.P,C4,1*%
%TO.N,Net-(C4-Pad1)*%
X35160000Y44722500D03*
%TO.P,C4,2*%
%TO.N,Net-(C4-Pad2)*%
X35160000Y45537500D03*
%TD*%
D29*
%TO.P,U1,1*%
%TO.N,Net-(C6-Pad2)*%
X37810000Y36430000D03*
D30*
X43520693Y34799307D03*
D31*
%TO.P,U1,2,-*%
%TO.N,Net-(C4-Pad1)*%
X37810000Y33890000D03*
D30*
X42250693Y34799307D03*
%TO.P,U1,3,+*%
%TO.N,Net-(C3-Pad2)*%
X40980693Y34799307D03*
D31*
X37810000Y31350000D03*
%TO.P,U1,4,V-*%
%TO.N,GND*%
X37810000Y28810000D03*
D30*
X39710693Y34799307D03*
D31*
%TO.P,U1,5,+*%
%TO.N,Net-(RV2-Pad2)*%
X45430000Y28810000D03*
D30*
X39710693Y29724307D03*
D31*
%TO.P,U1,6,-*%
%TO.N,Net-(Q2-Pad1)*%
X45430000Y31350000D03*
D30*
X40980693Y29724307D03*
%TO.P,U1,7*%
%TO.N,Net-(Q2-Pad2)*%
X42250693Y29724307D03*
D31*
X45430000Y33890000D03*
D30*
%TO.P,U1,8,V+*%
%TO.N,9V*%
X43520693Y29724307D03*
D31*
X45430000Y36430000D03*
%TD*%
D26*
%TO.P,R9,1*%
%TO.N,Net-(C7-Pad1)*%
X34770000Y49590000D03*
%TO.P,R9,2*%
%TO.N,Net-(C4-Pad2)*%
X37870000Y49590000D03*
%TD*%
D32*
%TO.P,J11,R*%
%TO.N,GND*%
X81565000Y38149000D03*
%TO.P,J11,RN*%
X81565000Y22564000D03*
%TO.P,J11,S*%
%TO.N,/Sleeve*%
X88065000Y38149000D03*
%TO.P,J11,SN*%
%TO.N,GND*%
X88065000Y22564000D03*
%TO.P,J11,T*%
%TO.N,FS_CD*%
X75065000Y38149000D03*
%TO.P,J11,TN*%
%TO.N,GND*%
X75065000Y22564000D03*
%TD*%
D14*
%TO.P,C12,1*%
%TO.N,/Sleeve*%
X90971000Y15458000D03*
%TO.P,C12,2*%
%TO.N,GND*%
X85971000Y15458000D03*
%TD*%
D12*
%TO.P,R8,1*%
%TO.N,Net-(C4-Pad2)*%
X32710000Y45630000D03*
%TO.P,R8,2*%
%TO.N,Net-(C5-Pad1)*%
X29610000Y45630000D03*
%TD*%
D33*
%TO.P,C10,1*%
%TO.N,Net-(C10-Pad1)*%
X73060000Y46650000D03*
%TO.P,C10,2*%
%TO.N,GND*%
X73060000Y41550000D03*
%TD*%
D22*
%TO.P,R11,1*%
%TO.N,Net-(R11-Pad1)*%
X27010000Y49120000D03*
%TO.P,R11,2*%
%TO.N,Net-(C5-Pad1)*%
X27010000Y46020000D03*
%TD*%
D13*
%TO.P,R16,1*%
%TO.N,Net-(C11-Pad1)*%
X63910000Y33580000D03*
%TO.P,R16,2*%
%TO.N,Net-(Q2-Pad1)*%
X63910000Y36680000D03*
%TD*%
D16*
%TO.P,J6,*%
%TO.N,*%
X48380000Y12210000D03*
X45830000Y12210000D03*
D17*
%TO.P,J6,1,Pin_1*%
%TO.N,GND*%
X45840000Y14770000D03*
D18*
%TO.P,J6,2,Pin_2*%
X48380000Y14770000D03*
%TD*%
D34*
%TO.P,C3,1*%
%TO.N,Net-(C3-Pad1)*%
X34570000Y31380000D03*
%TO.P,C3,2*%
%TO.N,Net-(C3-Pad2)*%
X35385000Y31380000D03*
%TD*%
D22*
%TO.P,R13,1*%
%TO.N,Net-(C9-Pad1)*%
X53410000Y38380000D03*
%TO.P,R13,2*%
%TO.N,Net-(C6-Pad2)*%
X53410000Y35280000D03*
%TD*%
D35*
%TO.P,C13,1*%
%TO.N,9V*%
X47485000Y37030000D03*
%TO.P,C13,2*%
%TO.N,GND*%
X49560000Y37030000D03*
%TD*%
D20*
%TO.P,C11,1*%
%TO.N,Net-(C11-Pad1)*%
X65949000Y20340000D03*
D21*
%TO.P,C11,2*%
%TO.N,FS_E*%
X65949000Y15340000D03*
%TD*%
D13*
%TO.P,R15,1*%
%TO.N,Net-(Q2-Pad1)*%
X50533000Y30747000D03*
%TO.P,R15,2*%
%TO.N,Net-(Q2-Pad2)*%
X50533000Y33847000D03*
%TD*%
D14*
%TO.P,C7,1*%
%TO.N,Net-(C7-Pad1)*%
X31910000Y54380000D03*
%TO.P,C7,2*%
%TO.N,GND*%
X31910000Y59380000D03*
%TD*%
D36*
%TO.P,J3,1*%
%TO.N,GND*%
X51835000Y64600000D03*
D37*
%TO.P,J3,2*%
%TO.N,VIN*%
X51835000Y70900000D03*
D38*
%TO.P,J3,3*%
%TO.N,BAT+*%
X47035000Y67500000D03*
%TD*%
D19*
%TO.P,D4,1,K*%
%TO.N,Net-(C3-Pad1)*%
X34710000Y23105000D03*
%TO.P,D4,2,A*%
%TO.N,GND*%
X34710000Y19805000D03*
%TD*%
D14*
%TO.P,C5,1*%
%TO.N,Net-(C5-Pad1)*%
X23010000Y44772500D03*
%TO.P,C5,2*%
%TO.N,GND*%
X18010000Y44772500D03*
%TD*%
D39*
%TO.P,D1,1,K*%
%TO.N,9V*%
X39310000Y71830000D03*
%TO.P,D1,2,A*%
%TO.N,GND*%
X39310000Y75830000D03*
%TD*%
D16*
%TO.P,J1,*%
%TO.N,*%
X28850000Y12210000D03*
X26300000Y12210000D03*
D17*
%TO.P,J1,1,Pin_1*%
%TO.N,IN_T*%
X26310000Y14770000D03*
D18*
%TO.P,J1,2,Pin_2*%
%TO.N,GND*%
X28850000Y14770000D03*
%TD*%
D40*
%TO.P,Q2,1,E1*%
%TO.N,Net-(Q2-Pad1)*%
X61665000Y36353000D03*
%TO.P,Q2,2,B1*%
%TO.N,Net-(Q2-Pad2)*%
X61015000Y36353000D03*
%TO.P,Q2,3,C2*%
%TO.N,GND*%
X60365000Y36353000D03*
%TO.P,Q2,4,E2*%
%TO.N,Net-(Q2-Pad1)*%
X60365000Y34453000D03*
%TO.P,Q2,5,B2*%
%TO.N,Net-(Q2-Pad2)*%
X61015000Y34453000D03*
%TO.P,Q2,6,C1*%
%TO.N,9V*%
X61665000Y34453000D03*
%TD*%
D41*
%TO.P,J10,R*%
%TO.N,BAT-*%
X18915000Y22599000D03*
%TO.P,J10,RN*%
%TO.N,GND*%
X18915000Y38184000D03*
%TO.P,J10,S*%
X12415000Y22599000D03*
%TO.P,J10,SN*%
X12415000Y38184000D03*
%TO.P,J10,T*%
%TO.N,IN_T*%
X25415000Y22599000D03*
%TO.P,J10,TN*%
%TO.N,GND*%
X25415000Y38184000D03*
%TD*%
D42*
%TO.P,RV2,1,1*%
%TO.N,Net-(C8-Pad2)*%
X68040000Y49390103D03*
%TO.P,RV2,2,2*%
%TO.N,Net-(RV2-Pad2)*%
X70540000Y49390103D03*
%TO.P,RV2,3,3*%
%TO.N,Net-(C10-Pad1)*%
X73040000Y49390103D03*
D43*
%TO.P,RV2,MP,MountPin*%
%TO.N,GND*%
X75340000Y57520103D03*
X65740000Y57520103D03*
%TD*%
D44*
%TO.P,D3,1,K*%
%TO.N,GND*%
X50275000Y24200000D03*
D42*
%TO.P,D3,2,A*%
%TO.N,Net-(D3-Pad2)*%
X52815000Y24200000D03*
%TD*%
%TO.P,RV1,1,1*%
%TO.N,Net-(R11-Pad1)*%
X16620000Y49400000D03*
%TO.P,RV1,2,2*%
%TO.N,Net-(C4-Pad2)*%
X19120000Y49400000D03*
%TO.P,RV1,3,3*%
%TO.N,Net-(R12-Pad2)*%
X21620000Y49400000D03*
D43*
%TO.P,RV1,MP,MountPin*%
%TO.N,GND*%
X23920000Y57530000D03*
X14320000Y57530000D03*
%TD*%
D45*
%TO.N,9V*%
X43410000Y31380000D03*
%TO.N,4.5V*%
X32520000Y39520000D03*
X27038000Y67603000D03*
%TO.N,Net-(D3-Pad2)*%
X58350000Y21350000D03*
%TO.N,GND*%
X36410000Y76130000D03*
X68390000Y38860000D03*
X81090000Y28700000D03*
X32980000Y30990000D03*
X25300000Y62850000D03*
X65850000Y36320000D03*
X93790000Y28700000D03*
X28400000Y60550000D03*
X89300000Y33350000D03*
X88710000Y16000000D03*
X13630000Y41250000D03*
X86170000Y10920000D03*
X26740000Y25620000D03*
X91250000Y41400000D03*
X24420000Y31400000D03*
X11720000Y17980000D03*
X15250000Y31670000D03*
X90471499Y18540000D03*
X7800000Y38330000D03*
X27600000Y34390000D03*
X32770000Y20930000D03*
X19240000Y25560000D03*
X68390000Y23620000D03*
X26140000Y28150000D03*
X28300000Y64400000D03*
X31660000Y29150000D03*
X68173089Y16519439D03*
X65850000Y31240000D03*
X15850000Y35550000D03*
X13100000Y32300000D03*
X90471499Y26532879D03*
X73470000Y18540000D03*
X23915500Y17020000D03*
X81090000Y18540000D03*
X33375000Y18525000D03*
X25400000Y64500000D03*
X88710000Y26160000D03*
X76010000Y10920000D03*
X92956619Y35095152D03*
X19370000Y29870000D03*
X26640000Y41260000D03*
X73677131Y13419428D03*
X10810000Y25620000D03*
X65850000Y28700000D03*
X62150000Y42850000D03*
X78550000Y31240000D03*
X42200000Y21700000D03*
X16370000Y14550000D03*
X93790000Y13460000D03*
X11350000Y30900000D03*
X19800000Y41430000D03*
X8110000Y34160000D03*
X76010000Y18540000D03*
X11740000Y28410000D03*
X90471499Y29304529D03*
X19700000Y14550000D03*
X68390000Y33780000D03*
X63400000Y39550000D03*
X19230000Y19520000D03*
X14590000Y25420000D03*
X76010000Y28700000D03*
X78550000Y41400000D03*
X93928886Y20941114D03*
X49517000Y38647000D03*
X28250000Y66150000D03*
X25480000Y33060000D03*
X7960000Y40380000D03*
X88710000Y41400000D03*
X31330000Y38250000D03*
X24420000Y26020000D03*
X69000500Y18698972D03*
X27800000Y32060000D03*
X45460000Y23205000D03*
X8050000Y22700000D03*
X15650000Y41080000D03*
X93790000Y31240000D03*
X93790000Y36320000D03*
X81090000Y10920000D03*
X24680000Y27420000D03*
X83630000Y18540000D03*
X17340000Y41110000D03*
X88710000Y13460000D03*
X81090000Y16000000D03*
X8090000Y35890000D03*
X13930000Y28410000D03*
X11530000Y34870000D03*
X32160000Y71880000D03*
X11520000Y41150000D03*
X23020000Y28010000D03*
X10000000Y29250000D03*
X29174000Y75887000D03*
X55350000Y39600000D03*
X71999500Y23831493D03*
X27588886Y75951114D03*
X65850000Y33780000D03*
X32760000Y22920000D03*
X81090000Y13460000D03*
X91250000Y10920000D03*
X8050000Y13100000D03*
X9120000Y31140000D03*
X12600000Y25760000D03*
X88710000Y10920000D03*
X90471499Y32010025D03*
X78550000Y33780000D03*
X15520000Y27020000D03*
X65850000Y26160000D03*
X11300000Y33380000D03*
X20830000Y17250000D03*
X86170000Y41400000D03*
X10740000Y27080000D03*
X81090000Y33780000D03*
X88710000Y28700000D03*
X24330000Y41180000D03*
X60950000Y42000000D03*
X30780000Y36500000D03*
X25940000Y35050000D03*
X88710000Y31240000D03*
X69928175Y9381825D03*
X83630000Y26160000D03*
X29100000Y18150000D03*
X78550000Y18540000D03*
X27740000Y27280000D03*
X8100000Y20450000D03*
X68390000Y21080000D03*
X18110000Y31670000D03*
X19240000Y33260000D03*
X32930000Y26760000D03*
X93790000Y18540000D03*
X31460000Y19570000D03*
X65850000Y23620000D03*
X78550000Y26160000D03*
X70930000Y36320000D03*
X21030000Y28480000D03*
X83630000Y10920000D03*
X40910000Y26555000D03*
X93790000Y38860000D03*
X8500000Y17200000D03*
X93790000Y10960000D03*
X26080000Y30870000D03*
X32688000Y75939000D03*
X76010000Y41400000D03*
X51500000Y18350000D03*
X31530000Y32510000D03*
X68390000Y36320000D03*
X23550000Y34850000D03*
X83630000Y33780000D03*
X16850000Y25620000D03*
X91250000Y13460000D03*
X73823101Y33684046D03*
X73470000Y16000000D03*
X15980000Y28280000D03*
X18310000Y28150000D03*
X71999500Y30196060D03*
X20300000Y26690000D03*
X32850000Y33960000D03*
X73470000Y28700000D03*
X36660000Y72130000D03*
X28350000Y62650000D03*
X78550000Y16000000D03*
X20500000Y31730000D03*
X32520000Y36400000D03*
X21960000Y29670000D03*
X22080000Y41080000D03*
X22290000Y25230000D03*
X28160000Y74630000D03*
X8350000Y27650000D03*
X13260000Y29870000D03*
X8090000Y30280000D03*
X76010000Y31240000D03*
X31190000Y24750000D03*
X73470000Y31240000D03*
X68390000Y41400000D03*
X73470000Y10920000D03*
X24660000Y71880000D03*
X31290000Y21820000D03*
X9120545Y19183317D03*
X15140000Y12730000D03*
X76010000Y26160000D03*
X31070000Y34820000D03*
X9450000Y33260000D03*
X73470000Y26160000D03*
X17780000Y27080000D03*
X86170000Y18540000D03*
X21560000Y34990000D03*
X71198175Y10651825D03*
X36310000Y19805000D03*
X26871396Y19707267D03*
X30910000Y75880000D03*
X70930000Y41400000D03*
X21230000Y33330000D03*
X65850000Y41400000D03*
X93988659Y26282491D03*
X23090000Y33060000D03*
X25350000Y67250000D03*
X25450000Y66050000D03*
X23240000Y19350000D03*
X19370000Y35050000D03*
X13530000Y27220000D03*
X65850000Y18540000D03*
X8070000Y32290000D03*
X31000000Y16150000D03*
X94066946Y23479175D03*
X86300000Y13250000D03*
X83630000Y28700000D03*
X14860000Y30010000D03*
X16910000Y33190000D03*
X25400000Y61100000D03*
X29910000Y74630000D03*
X24483886Y73306114D03*
X81090000Y26160000D03*
X93790000Y16000000D03*
X9230000Y41340000D03*
X56050000Y36400000D03*
X13823099Y19385870D03*
X86408000Y30579000D03*
X70930000Y38860000D03*
X39250000Y21450000D03*
X23950000Y29410000D03*
X76010000Y16000000D03*
X83630000Y31240000D03*
X83630000Y41400000D03*
X59410000Y36380000D03*
X88710000Y18540000D03*
X76010000Y13460000D03*
X68390000Y26160000D03*
X78550000Y10920000D03*
X18049962Y16894616D03*
X27270000Y29340000D03*
X22700000Y14440000D03*
X65850000Y38860000D03*
X71999500Y27464977D03*
X26660000Y74630000D03*
X22090000Y31400000D03*
X81090000Y41400000D03*
X31370000Y13080000D03*
X68390000Y31240000D03*
X83630000Y16000000D03*
X29610000Y39220000D03*
X83630000Y13460000D03*
X39660000Y32880000D03*
X70079553Y34859904D03*
X17500000Y34800000D03*
X16850000Y29810000D03*
X76010000Y33780000D03*
X68390000Y28700000D03*
X21030000Y12630000D03*
X8450000Y25050000D03*
X78550000Y13460000D03*
X14700000Y33800000D03*
X31160000Y73880000D03*
X78550000Y28700000D03*
X32550000Y14980000D03*
X9550000Y34920000D03*
X13160000Y35040000D03*
X32150000Y17250000D03*
X93790000Y41400000D03*
X17710000Y12590000D03*
X22690000Y26620000D03*
X93790000Y33780000D03*
%TO.N,Net-(Q2-Pad1)*%
X57732000Y30873000D03*
X40910000Y28130000D03*
X62160000Y38130000D03*
%TD*%
D46*
%TO.N,9V*%
X41250000Y71700000D02*
X41250000Y58850000D01*
D47*
X43410000Y31380000D02*
X44660000Y32630000D01*
X61110000Y32180978D02*
X61234511Y32305489D01*
X55955022Y32180978D02*
X61110000Y32180978D01*
X60415000Y29883000D02*
X61234511Y30702511D01*
X44210000Y28230000D02*
X43520693Y28919307D01*
D48*
X36860000Y69380000D02*
X39310000Y71830000D01*
D46*
X45350000Y54750000D02*
X45450000Y54750000D01*
X45430000Y36592000D02*
X45834000Y36996000D01*
D48*
X30060000Y69380000D02*
X36860000Y69380000D01*
D47*
X43520693Y31269307D02*
X43410000Y31380000D01*
D46*
X45430000Y36430000D02*
X45430000Y54730000D01*
X41250000Y58850000D02*
X45350000Y54750000D01*
D47*
X55660000Y32680000D02*
X55660000Y32380000D01*
X44660000Y32630000D02*
X55506000Y32630000D01*
X61234511Y30702511D02*
X61234511Y32305489D01*
D46*
X41300000Y71721000D02*
X41307000Y71728000D01*
D47*
X55506000Y32630000D02*
X55955022Y32180978D01*
D48*
X42594000Y71830000D02*
X43110000Y71830000D01*
D47*
X44210000Y26430000D02*
X44210000Y28230000D01*
D46*
X45834000Y36996000D02*
X47485000Y36996000D01*
D47*
X61665000Y32735978D02*
X61665000Y34453000D01*
X61234511Y32305489D02*
X61665000Y32735978D01*
D48*
X39310000Y71830000D02*
X42594000Y71830000D01*
D47*
X43520693Y28919307D02*
X43520693Y31269307D01*
D48*
X43110000Y71830000D02*
X43910000Y72630000D01*
%TO.N,4.5V*%
X34890000Y37160000D02*
X32530000Y39520000D01*
X26960000Y71780000D02*
X26910000Y71830000D01*
X27038000Y67603000D02*
X35263000Y67603000D01*
X26960000Y67681000D02*
X27038000Y67603000D01*
X26960000Y69380000D02*
X26960000Y67681000D01*
X32530000Y39520000D02*
X32520000Y39520000D01*
X26960000Y69380000D02*
X26960000Y71780000D01*
X35263000Y67603000D02*
X38705000Y64161000D01*
D47*
%TO.N,Net-(C3-Pad2)*%
X34890000Y34060000D02*
X35410000Y33540000D01*
X35410000Y33540000D02*
X35410000Y31380000D01*
X40910000Y32857912D02*
X40910000Y34880000D01*
X39402088Y31350000D02*
X40910000Y32857912D01*
X35440000Y31350000D02*
X37810000Y31350000D01*
X35410000Y31380000D02*
X35440000Y31350000D01*
X37810000Y31350000D02*
X39402088Y31350000D01*
%TO.N,Net-(C3-Pad1)*%
X34710000Y23080000D02*
X34410000Y23380000D01*
X34910000Y23005000D02*
X34710000Y23205000D01*
X34410000Y31220000D02*
X34570000Y31380000D01*
X34410000Y23380000D02*
X34410000Y31220000D01*
X40710000Y23005000D02*
X34910000Y23005000D01*
%TO.N,Net-(C4-Pad2)*%
X36380000Y46410000D02*
X36380000Y48370000D01*
X36380000Y48370000D02*
X37600000Y49590000D01*
X37870000Y49590000D02*
X41090000Y49590000D01*
X32710000Y45630000D02*
X32820000Y45520000D01*
X37600000Y49590000D02*
X37870000Y49590000D01*
X19120000Y49400000D02*
X21370000Y47150000D01*
X35142500Y45520000D02*
X35160000Y45537500D01*
X35160000Y45537500D02*
X35507500Y45537500D01*
X35507500Y45537500D02*
X36380000Y46410000D01*
X31190000Y47150000D02*
X32710000Y45630000D01*
X21370000Y47150000D02*
X31190000Y47150000D01*
X41090000Y49590000D02*
X41760000Y48920000D01*
X32820000Y45520000D02*
X35142500Y45520000D01*
%TO.N,Net-(C4-Pad1)*%
X36260000Y35440000D02*
X36260000Y39672500D01*
X32732500Y43222500D02*
X34232500Y44722500D01*
X42250693Y34799307D02*
X42250693Y35549307D01*
X41540000Y36260000D02*
X39389070Y36260000D01*
X38986173Y35206173D02*
X37660000Y33880000D01*
X36260000Y39672500D02*
X32710000Y43222500D01*
X42250693Y35549307D02*
X41540000Y36260000D01*
X38986173Y35857103D02*
X38986173Y35206173D01*
X39389070Y36260000D02*
X38986173Y35857103D01*
X34232500Y44722500D02*
X35160000Y44722500D01*
X32710000Y43222500D02*
X32732500Y43222500D01*
X37810000Y33890000D02*
X36260000Y35440000D01*
%TO.N,Net-(C5-Pad1)*%
X23010000Y44772500D02*
X25672500Y44772500D01*
X27010000Y46020000D02*
X27400000Y45630000D01*
X26920000Y46020000D02*
X27010000Y46020000D01*
X29610000Y43222500D02*
X29610000Y45630000D01*
X27400000Y45630000D02*
X29610000Y45630000D01*
X25672500Y44772500D02*
X26920000Y46020000D01*
%TO.N,Net-(C6-Pad2)*%
X43520693Y34799307D02*
X43520693Y35479307D01*
X37810000Y36430000D02*
X37833000Y36453000D01*
X43520693Y34799307D02*
X43710897Y34989511D01*
X38180000Y36900000D02*
X37660000Y36380000D01*
X43710897Y34989511D02*
X53019511Y34989511D01*
X40450000Y47130000D02*
X41760000Y45820000D01*
X50100000Y41267862D02*
X50710000Y40657862D01*
X37833000Y36453000D02*
X37833000Y47156000D01*
X50710000Y40657862D02*
X50710000Y35100000D01*
X50100000Y41352500D02*
X50100000Y41267862D01*
X53019511Y34989511D02*
X53410000Y35380000D01*
X41760000Y45820000D02*
X41760000Y43920000D01*
X43520693Y35479307D02*
X42100000Y36900000D01*
X42100000Y36900000D02*
X38180000Y36900000D01*
X37910000Y47130000D02*
X40450000Y47130000D01*
%TO.N,Net-(C7-Pad1)*%
X32200000Y49640000D02*
X32210000Y49630000D01*
X34912000Y47537000D02*
X34912000Y47029000D01*
X32210000Y49630000D02*
X34730000Y49630000D01*
X31910000Y54380000D02*
X32200000Y54090000D01*
X34770000Y47679000D02*
X34912000Y47537000D01*
X34770000Y49590000D02*
X34770000Y47679000D01*
X34730000Y49630000D02*
X34770000Y49590000D01*
X32200000Y54090000D02*
X32200000Y49640000D01*
%TO.N,Net-(C8-Pad2)*%
X53410000Y43880000D02*
X52957500Y43427500D01*
D48*
X53410000Y43880000D02*
X58930000Y49400000D01*
X58930000Y49400000D02*
X68050000Y49400000D01*
D47*
X52957500Y43427500D02*
X50100000Y43427500D01*
%TO.N,Net-(C9-Pad1)*%
X53410000Y40880000D02*
X57660000Y40880000D01*
X53410000Y38380000D02*
X53410000Y40880000D01*
D48*
%TO.N,Net-(C10-Pad1)*%
X73060000Y46650000D02*
X73060000Y49390000D01*
X73060000Y49390000D02*
X73050000Y49400000D01*
%TO.N,Net-(C11-Pad1)*%
X64495000Y21794000D02*
X64495000Y32995000D01*
X65949000Y20340000D02*
X64495000Y21794000D01*
X64495000Y32995000D02*
X63910000Y33580000D01*
D47*
%TO.N,Net-(D3-Pad2)*%
X59283000Y22283000D02*
X58350000Y21350000D01*
X59283000Y22288500D02*
X59283000Y22283000D01*
%TO.N,Net-(Q3-Pad3)*%
X55660000Y28552000D02*
X55660000Y29376000D01*
X58399000Y25813000D02*
X55660000Y28552000D01*
X58399000Y24229500D02*
X58399000Y25813000D01*
X58333000Y24163500D02*
X58399000Y24229500D01*
D49*
%TO.N,/Sleeve*%
X92300000Y16787000D02*
X92300000Y33914000D01*
X92300000Y33914000D02*
X88065000Y38149000D01*
X90971000Y15458000D02*
X92300000Y16787000D01*
D47*
%TO.N,GND*%
X40985000Y26480000D02*
X40910000Y26555000D01*
D48*
X34655000Y19805000D02*
X33375000Y18525000D01*
X39405000Y21500000D02*
X37710000Y19805000D01*
D46*
X51041000Y64161000D02*
X51835000Y64955000D01*
D48*
X33375000Y18525000D02*
X32350000Y17500000D01*
D47*
X43460000Y23005000D02*
X45260000Y23005000D01*
D48*
X31350000Y16500000D02*
X29620000Y14770000D01*
X53000000Y18350000D02*
X51500000Y18350000D01*
D46*
X62150000Y42850000D02*
X63600000Y41400000D01*
D47*
X60160000Y36380000D02*
X59410000Y36380000D01*
X45260000Y23005000D02*
X45460000Y23205000D01*
D48*
X34710000Y19805000D02*
X36310000Y19805000D01*
X43460000Y23005000D02*
X41955000Y21500000D01*
D46*
X63600000Y41400000D02*
X65850000Y41400000D01*
D48*
X32350000Y17500000D02*
X31350000Y16500000D01*
X37610000Y19805000D02*
X37710000Y19705000D01*
X29620000Y14770000D02*
X28850000Y14770000D01*
X34710000Y19805000D02*
X34655000Y19805000D01*
D47*
X42685000Y26480000D02*
X40985000Y26480000D01*
D48*
X39710693Y34799307D02*
X39710693Y32930693D01*
X41955000Y21500000D02*
X39405000Y21500000D01*
D46*
X43805000Y64161000D02*
X51041000Y64161000D01*
D48*
X49560000Y37030000D02*
X49560000Y38604000D01*
X49560000Y38604000D02*
X49517000Y38647000D01*
D46*
X55350000Y39600000D02*
X56050000Y38900000D01*
D48*
X39710693Y32930693D02*
X39660000Y32880000D01*
X36310000Y19805000D02*
X37610000Y19805000D01*
D46*
X56050000Y38900000D02*
X56050000Y36400000D01*
X60950000Y42000000D02*
X63400000Y39550000D01*
D47*
X37710000Y19805000D02*
X34710000Y19805000D01*
D48*
%TO.N,VIN*%
X52135000Y71330000D02*
X50460000Y71330000D01*
X46160000Y75630000D02*
X43910000Y75630000D01*
X50460000Y71330000D02*
X46160000Y75630000D01*
%TO.N,FS_E*%
X57140000Y17310000D02*
X57140000Y14750000D01*
X65359000Y14750000D02*
X65949000Y15340000D01*
X56100000Y18350000D02*
X57140000Y17310000D01*
X57140000Y14750000D02*
X65359000Y14750000D01*
D47*
%TO.N,FS_F*%
X57831217Y22288500D02*
X60415000Y24872283D01*
X57383000Y22288500D02*
X57831217Y22288500D01*
X60415000Y24872283D02*
X60415000Y26583000D01*
X54600000Y14750000D02*
X54600000Y19505500D01*
X54600000Y19505500D02*
X57383000Y22288500D01*
D49*
%TO.N,IN_T*%
X25215000Y15915000D02*
X25215000Y22499000D01*
X26230000Y14900000D02*
X25215000Y15915000D01*
%TO.N,BAT-*%
X13150000Y14920000D02*
X13150000Y15575000D01*
X18715000Y21140000D02*
X18715000Y22499000D01*
X13150000Y15575000D02*
X18715000Y21140000D01*
D48*
%TO.N,FS_A*%
X40760000Y19930000D02*
X40910000Y19780000D01*
X40910000Y19780000D02*
X40910000Y14996000D01*
X40910000Y14996000D02*
X41008000Y14898000D01*
D47*
X40910000Y19905000D02*
X40710000Y19705000D01*
X43460000Y19905000D02*
X40910000Y19905000D01*
D48*
%TO.N,Net-(Q2-Pad1)*%
X46517000Y30773000D02*
X50507000Y30773000D01*
D47*
X61660000Y36630000D02*
X61660000Y37630000D01*
X57725000Y30880000D02*
X57732000Y30873000D01*
X50533000Y30747000D02*
X50666000Y30880000D01*
D48*
X50507000Y30773000D02*
X50533000Y30747000D01*
D47*
X63910000Y36680000D02*
X61710000Y36680000D01*
X62160000Y38130000D02*
X61660000Y37630000D01*
X60365000Y34753000D02*
X61665000Y36053000D01*
X61710000Y36680000D02*
X61660000Y36630000D01*
X40980693Y29724307D02*
X40910000Y29653614D01*
X60365000Y34453000D02*
X60365000Y34753000D01*
X40910000Y29653614D02*
X40910000Y28130000D01*
D48*
X45430000Y31350000D02*
X45940000Y31350000D01*
D47*
X50666000Y30880000D02*
X57725000Y30880000D01*
D48*
X45940000Y31350000D02*
X46517000Y30773000D01*
D47*
X61665000Y36053000D02*
X61665000Y36353000D01*
%TO.N,Net-(Q2-Pad2)*%
X61015000Y37384022D02*
X60759511Y37639511D01*
X60859511Y32780489D02*
X59009511Y32780489D01*
X61015000Y32935978D02*
X60859511Y32780489D01*
X61015000Y36353000D02*
X61015000Y37384022D01*
X61015000Y34453000D02*
X61015000Y32935978D01*
X45430000Y33890000D02*
X44298630Y33890000D01*
X60759511Y37639511D02*
X58919511Y37639511D01*
X44298630Y33890000D02*
X42160000Y31751370D01*
X59009511Y32780489D02*
X57860000Y33930000D01*
X45430000Y33890000D02*
X57920000Y33890000D01*
X42160000Y30130000D02*
X42160000Y29880000D01*
X42160000Y31751370D02*
X42160000Y30130000D01*
X57910000Y36630000D02*
X57910000Y33880000D01*
X58919511Y37639511D02*
X57910000Y36630000D01*
%TO.N,Net-(R11-Pad1)*%
X18170000Y50950000D02*
X25180000Y50950000D01*
X16620000Y49400000D02*
X18170000Y50950000D01*
X25180000Y50950000D02*
X27010000Y49120000D01*
%TO.N,Net-(R12-Pad2)*%
X28100000Y47950000D02*
X29110000Y48960000D01*
X21620000Y49400000D02*
X23070000Y47950000D01*
X23070000Y47950000D02*
X28100000Y47950000D01*
X29110000Y48960000D02*
X29110000Y49630000D01*
%TO.N,Net-(RV2-Pad2)*%
X45430000Y28810000D02*
X45430000Y26225000D01*
X39660000Y26532912D02*
X39660000Y29630000D01*
X44785480Y25580480D02*
X40612432Y25580480D01*
X40612432Y25580480D02*
X39660000Y26532912D01*
X45430000Y26225000D02*
X44785480Y25580480D01*
%TD*%
%TA.AperFunction,Conductor*%
%TO.N,GND*%
G36*
X25978035Y67829998D02*
G01*
X26024528Y67776342D01*
X26035129Y67709956D01*
X26024719Y67617149D01*
X26041268Y67420066D01*
X26095783Y67229950D01*
X26186187Y67054044D01*
X26309035Y66899047D01*
X26459650Y66770864D01*
X26632294Y66674376D01*
X26820392Y66613260D01*
X27016777Y66589842D01*
X27022912Y66590314D01*
X27022914Y66590314D01*
X27207830Y66604543D01*
X27207834Y66604544D01*
X27213972Y66605016D01*
X27404463Y66658202D01*
X27449529Y66680967D01*
X27506338Y66694500D01*
X29024000Y66694500D01*
X29092121Y66674498D01*
X29138614Y66620842D01*
X29150000Y66568500D01*
X29150000Y57046000D01*
X29129998Y56977879D01*
X29076342Y56931386D01*
X29024000Y56920000D01*
X26509169Y56920000D01*
X26441048Y56940002D01*
X26394555Y56993658D01*
X26385401Y57069610D01*
X26412400Y57211145D01*
X26413393Y57219006D01*
X26432710Y57526042D01*
X26432710Y57533958D01*
X26413393Y57840994D01*
X26412400Y57848855D01*
X26354754Y58151046D01*
X26352783Y58158723D01*
X26257716Y58451309D01*
X26254801Y58458672D01*
X26123811Y58737041D01*
X26119999Y58743974D01*
X25955149Y59003736D01*
X25950505Y59010129D01*
X25875503Y59100790D01*
X25862986Y59109245D01*
X25852248Y59103038D01*
X24700000Y57950790D01*
X24700000Y58669210D01*
X25494666Y59463876D01*
X25501279Y59475987D01*
X25492452Y59487605D01*
X25269719Y59649430D01*
X25263039Y59653670D01*
X24993428Y59801890D01*
X24986293Y59805247D01*
X24779616Y59887077D01*
X24723642Y59930752D01*
X24700000Y60004229D01*
X24700000Y67724000D01*
X24720002Y67792121D01*
X24773658Y67838614D01*
X24826000Y67850000D01*
X25909914Y67850000D01*
X25978035Y67829998D01*
G37*
%TD.AperFunction*%
%TD*%
%TA.AperFunction,Conductor*%
%TO.N,GND*%
G36*
X28615249Y41990016D02*
G01*
X28637087Y41972289D01*
X29747167Y40843521D01*
X31568833Y38991186D01*
X31568845Y38991174D01*
X31570000Y38990000D01*
X31571218Y38988887D01*
X31571230Y38988875D01*
X33465514Y37257232D01*
X33502297Y37196507D01*
X33506500Y37164234D01*
X33506500Y36709600D01*
X33517474Y36603834D01*
X33519655Y36597298D01*
X33519655Y36597296D01*
X33543524Y36525753D01*
X33550000Y36485877D01*
X33550000Y34734091D01*
X33543593Y34694426D01*
X33517203Y34614861D01*
X33506500Y34510400D01*
X33506500Y33609600D01*
X33517474Y33503834D01*
X33519655Y33497298D01*
X33519655Y33497296D01*
X33543524Y33425753D01*
X33550000Y33385877D01*
X33550000Y12126000D01*
X33529998Y12057879D01*
X33476342Y12011386D01*
X33424000Y12000000D01*
X30533098Y12000000D01*
X30464977Y12020002D01*
X30418484Y12073658D01*
X30407486Y12135886D01*
X30412931Y12205070D01*
X30413319Y12210000D01*
X30394072Y12454557D01*
X30336805Y12693092D01*
X30242927Y12919732D01*
X30114752Y13128896D01*
X30109805Y13134689D01*
X29958641Y13311677D01*
X29955433Y13315433D01*
X29890724Y13370700D01*
X29772663Y13471535D01*
X29772660Y13471537D01*
X29768896Y13474752D01*
X29764673Y13477340D01*
X29764670Y13477342D01*
X29718153Y13505847D01*
X29670521Y13558494D01*
X29658914Y13628536D01*
X29687017Y13693733D01*
X29710817Y13715858D01*
X29725330Y13726210D01*
X29733200Y13732861D01*
X29884052Y13883188D01*
X29890730Y13891035D01*
X30015003Y14063980D01*
X30020313Y14072817D01*
X30114670Y14263733D01*
X30118469Y14273328D01*
X30180377Y14477090D01*
X30182555Y14487163D01*
X30183986Y14498038D01*
X30181775Y14512222D01*
X30168617Y14516000D01*
X28722000Y14516000D01*
X28653879Y14536002D01*
X28607386Y14589658D01*
X28596000Y14642000D01*
X28596000Y15042115D01*
X29104000Y15042115D01*
X29108475Y15026876D01*
X29109865Y15025671D01*
X29117548Y15024000D01*
X30168344Y15024000D01*
X30181875Y15027973D01*
X30183180Y15037053D01*
X30141214Y15204125D01*
X30137894Y15213876D01*
X30052972Y15409186D01*
X30048105Y15418261D01*
X29932426Y15597074D01*
X29926136Y15605243D01*
X29782806Y15762760D01*
X29775273Y15769785D01*
X29608139Y15901778D01*
X29599552Y15907483D01*
X29413117Y16010401D01*
X29403705Y16014631D01*
X29202959Y16085720D01*
X29192988Y16088354D01*
X29121837Y16101028D01*
X29108540Y16099568D01*
X29104000Y16085011D01*
X29104000Y15042115D01*
X28596000Y15042115D01*
X28596000Y16086898D01*
X28592082Y16100242D01*
X28577806Y16102229D01*
X28539324Y16096340D01*
X28529288Y16093949D01*
X28326868Y16027788D01*
X28317359Y16023791D01*
X28128463Y15925458D01*
X28119738Y15919964D01*
X27949433Y15792095D01*
X27941726Y15785252D01*
X27864478Y15704416D01*
X27802954Y15668986D01*
X27732042Y15672443D01*
X27674255Y15713689D01*
X27655402Y15747237D01*
X27613767Y15858297D01*
X27610615Y15866705D01*
X27523261Y15983261D01*
X27406705Y16070615D01*
X27270316Y16121745D01*
X27208134Y16128500D01*
X26621346Y16128500D01*
X26553225Y16148502D01*
X26532250Y16165405D01*
X26360404Y16337252D01*
X26326379Y16399564D01*
X26323500Y16426347D01*
X26323500Y20214500D01*
X26343502Y20282621D01*
X26397158Y20329114D01*
X26449500Y20340500D01*
X27382364Y20340500D01*
X27384037Y20340591D01*
X27384052Y20340591D01*
X27435599Y20343383D01*
X27439957Y20343619D01*
X27670393Y20388620D01*
X27889952Y20471804D01*
X28092356Y20590791D01*
X28271819Y20742181D01*
X28423209Y20921644D01*
X28542196Y21124048D01*
X28625380Y21343607D01*
X28670381Y21574043D01*
X28673500Y21631636D01*
X28673500Y23566364D01*
X28670381Y23623957D01*
X28625380Y23854393D01*
X28542196Y24073952D01*
X28423209Y24276356D01*
X28271819Y24455819D01*
X28092356Y24607209D01*
X27889952Y24726196D01*
X27670393Y24809380D01*
X27439957Y24854381D01*
X27434227Y24854691D01*
X27384052Y24857409D01*
X27384037Y24857409D01*
X27382364Y24857500D01*
X23447636Y24857500D01*
X23445963Y24857409D01*
X23445948Y24857409D01*
X23395773Y24854691D01*
X23390043Y24854381D01*
X23159607Y24809380D01*
X22940048Y24726196D01*
X22737644Y24607209D01*
X22558181Y24455819D01*
X22406791Y24276356D01*
X22287804Y24073952D01*
X22285915Y24068966D01*
X22285912Y24068959D01*
X22282826Y24060815D01*
X22239986Y24004200D01*
X22173339Y23979733D01*
X22104044Y23995183D01*
X22054102Y24045644D01*
X22047174Y24060815D01*
X22044088Y24068959D01*
X22044085Y24068966D01*
X22042196Y24073952D01*
X21923209Y24276356D01*
X21771819Y24455819D01*
X21592356Y24607209D01*
X21389952Y24726196D01*
X21170393Y24809380D01*
X20939957Y24854381D01*
X20934227Y24854691D01*
X20884052Y24857409D01*
X20884037Y24857409D01*
X20882364Y24857500D01*
X16947636Y24857500D01*
X16945963Y24857409D01*
X16945948Y24857409D01*
X16895773Y24854691D01*
X16890043Y24854381D01*
X16659607Y24809380D01*
X16440048Y24726196D01*
X16237644Y24607209D01*
X16058181Y24455819D01*
X15906791Y24276356D01*
X15787804Y24073952D01*
X15782560Y24060111D01*
X15739723Y24003496D01*
X15673076Y23979027D01*
X15603780Y23994475D01*
X15553837Y24044935D01*
X15546907Y24060108D01*
X15543636Y24068740D01*
X15539038Y24078338D01*
X15425507Y24271460D01*
X15419354Y24280149D01*
X15274899Y24451392D01*
X15267392Y24458899D01*
X15096149Y24603354D01*
X15087460Y24609507D01*
X14894338Y24723038D01*
X14884740Y24727636D01*
X14675246Y24807006D01*
X14665018Y24809920D01*
X14444189Y24853045D01*
X14435545Y24854118D01*
X14384016Y24856909D01*
X14380630Y24857000D01*
X12687115Y24857000D01*
X12671876Y24852525D01*
X12670671Y24851135D01*
X12669000Y24843452D01*
X12669000Y20359115D01*
X12673475Y20343876D01*
X12674865Y20342671D01*
X12682548Y20341000D01*
X14380631Y20341000D01*
X14384016Y20341091D01*
X14435545Y20343882D01*
X14444189Y20344955D01*
X14665018Y20388080D01*
X14675246Y20390994D01*
X14884740Y20470364D01*
X14894338Y20474962D01*
X15087460Y20588493D01*
X15096149Y20594646D01*
X15267392Y20739101D01*
X15274899Y20746608D01*
X15419354Y20917851D01*
X15425507Y20926540D01*
X15539038Y21119662D01*
X15543636Y21129260D01*
X15546907Y21137892D01*
X15589747Y21194507D01*
X15656395Y21218973D01*
X15725690Y21203522D01*
X15775632Y21153061D01*
X15782558Y21137895D01*
X15787804Y21124048D01*
X15906791Y20921644D01*
X16058181Y20742181D01*
X16237644Y20590791D01*
X16242248Y20588085D01*
X16242250Y20588083D01*
X16324260Y20539872D01*
X16372848Y20488106D01*
X16385737Y20418289D01*
X16358833Y20352587D01*
X16349500Y20342156D01*
X12439895Y16432551D01*
X12431621Y16425565D01*
X12431820Y16425335D01*
X12427275Y16421412D01*
X12422389Y16417946D01*
X12418247Y16413619D01*
X12358287Y16350984D01*
X12356364Y16349020D01*
X12328804Y16321460D01*
X12326894Y16319148D01*
X12326892Y16319145D01*
X12324079Y16315739D01*
X12317957Y16308855D01*
X12276119Y16265150D01*
X12272867Y16260114D01*
X12272864Y16260110D01*
X12257947Y16237008D01*
X12249252Y16225127D01*
X12227920Y16199295D01*
X12225046Y16194034D01*
X12198913Y16146203D01*
X12194191Y16138267D01*
X12170998Y16102348D01*
X12117243Y16055970D01*
X12046947Y16046017D01*
X11982430Y16075649D01*
X11964325Y16095127D01*
X11913261Y16163261D01*
X11796705Y16250615D01*
X11660316Y16301745D01*
X11598134Y16308500D01*
X9801866Y16308500D01*
X9739684Y16301745D01*
X9603295Y16250615D01*
X9486739Y16163261D01*
X9399385Y16046705D01*
X9348255Y15910316D01*
X9341500Y15848134D01*
X9341500Y14051866D01*
X9348255Y13989684D01*
X9399385Y13853295D01*
X9486739Y13736739D01*
X9603295Y13649385D01*
X9739684Y13598255D01*
X9801866Y13591500D01*
X10190462Y13591500D01*
X10258583Y13571498D01*
X10305076Y13517842D01*
X10315180Y13447568D01*
X10285686Y13382988D01*
X10248837Y13353838D01*
X10107600Y13280001D01*
X9945823Y13149929D01*
X9941865Y13145212D01*
X9941863Y13145210D01*
X9937042Y13139464D01*
X9812391Y12990911D01*
X9809427Y12985519D01*
X9809424Y12985515D01*
X9805622Y12978599D01*
X9712387Y12809005D01*
X9649621Y12611139D01*
X9648935Y12605022D01*
X9648934Y12605018D01*
X9631504Y12449623D01*
X9626482Y12404850D01*
X9643852Y12197996D01*
X9654538Y12160729D01*
X9654088Y12089736D01*
X9615326Y12030254D01*
X9550559Y12001171D01*
X9533419Y12000000D01*
X7476000Y12000000D01*
X7407879Y12020002D01*
X7361386Y12073658D01*
X7350000Y12126000D01*
X7350000Y21633369D01*
X9157000Y21633369D01*
X9157091Y21629984D01*
X9159882Y21578455D01*
X9160955Y21569811D01*
X9204080Y21348982D01*
X9206994Y21338754D01*
X9286364Y21129260D01*
X9290962Y21119662D01*
X9404493Y20926540D01*
X9410646Y20917851D01*
X9555101Y20746608D01*
X9562608Y20739101D01*
X9733851Y20594646D01*
X9742540Y20588493D01*
X9935662Y20474962D01*
X9945260Y20470364D01*
X10154754Y20390994D01*
X10164982Y20388080D01*
X10385811Y20344955D01*
X10394455Y20343882D01*
X10445984Y20341091D01*
X10449369Y20341000D01*
X12142885Y20341000D01*
X12158124Y20345475D01*
X12159329Y20346865D01*
X12161000Y20354548D01*
X12161000Y22326885D01*
X12156525Y22342124D01*
X12155135Y22343329D01*
X12147452Y22345000D01*
X9175115Y22345000D01*
X9159876Y22340525D01*
X9158671Y22339135D01*
X9157000Y22331452D01*
X9157000Y21633369D01*
X7350000Y21633369D01*
X7350000Y22871115D01*
X9157000Y22871115D01*
X9161475Y22855876D01*
X9162865Y22854671D01*
X9170548Y22853000D01*
X12142885Y22853000D01*
X12158124Y22857475D01*
X12159329Y22858865D01*
X12161000Y22866548D01*
X12161000Y24838885D01*
X12156525Y24854124D01*
X12155135Y24855329D01*
X12147452Y24857000D01*
X10449370Y24857000D01*
X10445984Y24856909D01*
X10394455Y24854118D01*
X10385811Y24853045D01*
X10164982Y24809920D01*
X10154754Y24807006D01*
X9945260Y24727636D01*
X9935662Y24723038D01*
X9742540Y24609507D01*
X9733851Y24603354D01*
X9562608Y24458899D01*
X9555101Y24451392D01*
X9410646Y24280149D01*
X9404493Y24271460D01*
X9290962Y24078338D01*
X9286364Y24068740D01*
X9206994Y23859246D01*
X9204080Y23849018D01*
X9160955Y23628189D01*
X9159882Y23619545D01*
X9157091Y23568016D01*
X9157000Y23564630D01*
X9157000Y22871115D01*
X7350000Y22871115D01*
X7350000Y37218369D01*
X9157000Y37218369D01*
X9157091Y37214984D01*
X9159882Y37163455D01*
X9160955Y37154811D01*
X9204080Y36933982D01*
X9206994Y36923754D01*
X9286364Y36714260D01*
X9290962Y36704662D01*
X9404493Y36511540D01*
X9410646Y36502851D01*
X9555101Y36331608D01*
X9562608Y36324101D01*
X9733851Y36179646D01*
X9742540Y36173493D01*
X9935662Y36059962D01*
X9945260Y36055364D01*
X10154754Y35975994D01*
X10164982Y35973080D01*
X10385811Y35929955D01*
X10394455Y35928882D01*
X10445984Y35926091D01*
X10449369Y35926000D01*
X12142885Y35926000D01*
X12158124Y35930475D01*
X12159329Y35931865D01*
X12161000Y35939548D01*
X12161000Y35944115D01*
X12669000Y35944115D01*
X12673475Y35928876D01*
X12674865Y35927671D01*
X12682548Y35926000D01*
X14380631Y35926000D01*
X14384016Y35926091D01*
X14435545Y35928882D01*
X14444189Y35929955D01*
X14665018Y35973080D01*
X14675246Y35975994D01*
X14884740Y36055364D01*
X14894338Y36059962D01*
X15087460Y36173493D01*
X15096149Y36179646D01*
X15267392Y36324101D01*
X15274899Y36331608D01*
X15419354Y36502851D01*
X15425507Y36511540D01*
X15539038Y36704662D01*
X15543636Y36714260D01*
X15547173Y36723595D01*
X15590011Y36780211D01*
X15656658Y36804679D01*
X15725954Y36789230D01*
X15775897Y36738770D01*
X15782827Y36723595D01*
X15786364Y36714260D01*
X15790962Y36704662D01*
X15904493Y36511540D01*
X15910646Y36502851D01*
X16055101Y36331608D01*
X16062608Y36324101D01*
X16233851Y36179646D01*
X16242540Y36173493D01*
X16435662Y36059962D01*
X16445260Y36055364D01*
X16654754Y35975994D01*
X16664982Y35973080D01*
X16885811Y35929955D01*
X16894455Y35928882D01*
X16945984Y35926091D01*
X16949369Y35926000D01*
X18642885Y35926000D01*
X18658124Y35930475D01*
X18659329Y35931865D01*
X18661000Y35939548D01*
X18661000Y35944115D01*
X19169000Y35944115D01*
X19173475Y35928876D01*
X19174865Y35927671D01*
X19182548Y35926000D01*
X20880631Y35926000D01*
X20884016Y35926091D01*
X20935545Y35928882D01*
X20944189Y35929955D01*
X21165018Y35973080D01*
X21175246Y35975994D01*
X21384740Y36055364D01*
X21394338Y36059962D01*
X21587460Y36173493D01*
X21596149Y36179646D01*
X21767392Y36324101D01*
X21774899Y36331608D01*
X21919354Y36502851D01*
X21925507Y36511540D01*
X22039038Y36704662D01*
X22043636Y36714260D01*
X22047173Y36723595D01*
X22090011Y36780211D01*
X22156658Y36804679D01*
X22225954Y36789230D01*
X22275897Y36738770D01*
X22282827Y36723595D01*
X22286364Y36714260D01*
X22290962Y36704662D01*
X22404493Y36511540D01*
X22410646Y36502851D01*
X22555101Y36331608D01*
X22562608Y36324101D01*
X22733851Y36179646D01*
X22742540Y36173493D01*
X22935662Y36059962D01*
X22945260Y36055364D01*
X23154754Y35975994D01*
X23164982Y35973080D01*
X23385811Y35929955D01*
X23394455Y35928882D01*
X23445984Y35926091D01*
X23449369Y35926000D01*
X25142885Y35926000D01*
X25158124Y35930475D01*
X25159329Y35931865D01*
X25161000Y35939548D01*
X25161000Y35944115D01*
X25669000Y35944115D01*
X25673475Y35928876D01*
X25674865Y35927671D01*
X25682548Y35926000D01*
X27380631Y35926000D01*
X27384016Y35926091D01*
X27435545Y35928882D01*
X27444189Y35929955D01*
X27665018Y35973080D01*
X27675246Y35975994D01*
X27884740Y36055364D01*
X27894338Y36059962D01*
X28087460Y36173493D01*
X28096149Y36179646D01*
X28267392Y36324101D01*
X28274899Y36331608D01*
X28419354Y36502851D01*
X28425507Y36511540D01*
X28539038Y36704662D01*
X28543636Y36714260D01*
X28623006Y36923754D01*
X28625920Y36933982D01*
X28669045Y37154811D01*
X28670118Y37163455D01*
X28672909Y37214984D01*
X28673000Y37218369D01*
X28673000Y37911885D01*
X28668525Y37927124D01*
X28667135Y37928329D01*
X28659452Y37930000D01*
X25687115Y37930000D01*
X25671876Y37925525D01*
X25670671Y37924135D01*
X25669000Y37916452D01*
X25669000Y35944115D01*
X25161000Y35944115D01*
X25161000Y37911885D01*
X25156525Y37927124D01*
X25155135Y37928329D01*
X25147452Y37930000D01*
X19187115Y37930000D01*
X19171876Y37925525D01*
X19170671Y37924135D01*
X19169000Y37916452D01*
X19169000Y35944115D01*
X18661000Y35944115D01*
X18661000Y37911885D01*
X18656525Y37927124D01*
X18655135Y37928329D01*
X18647452Y37930000D01*
X12687115Y37930000D01*
X12671876Y37925525D01*
X12670671Y37924135D01*
X12669000Y37916452D01*
X12669000Y35944115D01*
X12161000Y35944115D01*
X12161000Y37911885D01*
X12156525Y37927124D01*
X12155135Y37928329D01*
X12147452Y37930000D01*
X9175115Y37930000D01*
X9159876Y37925525D01*
X9158671Y37924135D01*
X9157000Y37916452D01*
X9157000Y37218369D01*
X7350000Y37218369D01*
X7350000Y38456115D01*
X9157000Y38456115D01*
X9161475Y38440876D01*
X9162865Y38439671D01*
X9170548Y38438000D01*
X12142885Y38438000D01*
X12158124Y38442475D01*
X12159329Y38443865D01*
X12161000Y38451548D01*
X12161000Y38456115D01*
X12669000Y38456115D01*
X12673475Y38440876D01*
X12674865Y38439671D01*
X12682548Y38438000D01*
X18642885Y38438000D01*
X18658124Y38442475D01*
X18659329Y38443865D01*
X18661000Y38451548D01*
X18661000Y38456115D01*
X19169000Y38456115D01*
X19173475Y38440876D01*
X19174865Y38439671D01*
X19182548Y38438000D01*
X25142885Y38438000D01*
X25158124Y38442475D01*
X25159329Y38443865D01*
X25161000Y38451548D01*
X25161000Y38456115D01*
X25669000Y38456115D01*
X25673475Y38440876D01*
X25674865Y38439671D01*
X25682548Y38438000D01*
X28654885Y38438000D01*
X28670124Y38442475D01*
X28671329Y38443865D01*
X28673000Y38451548D01*
X28673000Y39149630D01*
X28672909Y39153016D01*
X28670118Y39204545D01*
X28669045Y39213189D01*
X28625920Y39434018D01*
X28623006Y39444246D01*
X28543636Y39653740D01*
X28539038Y39663338D01*
X28425507Y39856460D01*
X28419354Y39865149D01*
X28274899Y40036392D01*
X28267392Y40043899D01*
X28096149Y40188354D01*
X28087460Y40194507D01*
X27894338Y40308038D01*
X27884740Y40312636D01*
X27675246Y40392006D01*
X27665018Y40394920D01*
X27444189Y40438045D01*
X27435545Y40439118D01*
X27384016Y40441909D01*
X27380630Y40442000D01*
X25687115Y40442000D01*
X25671876Y40437525D01*
X25670671Y40436135D01*
X25669000Y40428452D01*
X25669000Y38456115D01*
X25161000Y38456115D01*
X25161000Y40423885D01*
X25156525Y40439124D01*
X25155135Y40440329D01*
X25147452Y40442000D01*
X23449370Y40442000D01*
X23445984Y40441909D01*
X23394455Y40439118D01*
X23385811Y40438045D01*
X23164982Y40394920D01*
X23154754Y40392006D01*
X22945260Y40312636D01*
X22935662Y40308038D01*
X22742540Y40194507D01*
X22733851Y40188354D01*
X22562608Y40043899D01*
X22555101Y40036392D01*
X22410646Y39865149D01*
X22404493Y39856460D01*
X22290962Y39663338D01*
X22286364Y39653740D01*
X22282827Y39644405D01*
X22239989Y39587789D01*
X22173342Y39563321D01*
X22104046Y39578770D01*
X22054103Y39629230D01*
X22047173Y39644405D01*
X22043636Y39653740D01*
X22039038Y39663338D01*
X21925507Y39856460D01*
X21919354Y39865149D01*
X21774899Y40036392D01*
X21767392Y40043899D01*
X21596149Y40188354D01*
X21587460Y40194507D01*
X21394338Y40308038D01*
X21384740Y40312636D01*
X21175246Y40392006D01*
X21165018Y40394920D01*
X20944189Y40438045D01*
X20935545Y40439118D01*
X20884016Y40441909D01*
X20880630Y40442000D01*
X19187115Y40442000D01*
X19171876Y40437525D01*
X19170671Y40436135D01*
X19169000Y40428452D01*
X19169000Y38456115D01*
X18661000Y38456115D01*
X18661000Y40423885D01*
X18656525Y40439124D01*
X18655135Y40440329D01*
X18647452Y40442000D01*
X16949370Y40442000D01*
X16945984Y40441909D01*
X16894455Y40439118D01*
X16885811Y40438045D01*
X16664982Y40394920D01*
X16654754Y40392006D01*
X16445260Y40312636D01*
X16435662Y40308038D01*
X16242540Y40194507D01*
X16233851Y40188354D01*
X16062608Y40043899D01*
X16055101Y40036392D01*
X15910646Y39865149D01*
X15904493Y39856460D01*
X15790962Y39663338D01*
X15786364Y39653740D01*
X15782827Y39644405D01*
X15739989Y39587789D01*
X15673342Y39563321D01*
X15604046Y39578770D01*
X15554103Y39629230D01*
X15547173Y39644405D01*
X15543636Y39653740D01*
X15539038Y39663338D01*
X15425507Y39856460D01*
X15419354Y39865149D01*
X15274899Y40036392D01*
X15267392Y40043899D01*
X15096149Y40188354D01*
X15087460Y40194507D01*
X14894338Y40308038D01*
X14884740Y40312636D01*
X14675246Y40392006D01*
X14665018Y40394920D01*
X14444189Y40438045D01*
X14435545Y40439118D01*
X14384016Y40441909D01*
X14380630Y40442000D01*
X12687115Y40442000D01*
X12671876Y40437525D01*
X12670671Y40436135D01*
X12669000Y40428452D01*
X12669000Y38456115D01*
X12161000Y38456115D01*
X12161000Y40423885D01*
X12156525Y40439124D01*
X12155135Y40440329D01*
X12147452Y40442000D01*
X10449370Y40442000D01*
X10445984Y40441909D01*
X10394455Y40439118D01*
X10385811Y40438045D01*
X10164982Y40394920D01*
X10154754Y40392006D01*
X9945260Y40312636D01*
X9935662Y40308038D01*
X9742540Y40194507D01*
X9733851Y40188354D01*
X9562608Y40043899D01*
X9555101Y40036392D01*
X9410646Y39865149D01*
X9404493Y39856460D01*
X9290962Y39663338D01*
X9286364Y39653740D01*
X9206994Y39444246D01*
X9204080Y39434018D01*
X9160955Y39213189D01*
X9159882Y39204545D01*
X9157091Y39153016D01*
X9157000Y39149630D01*
X9157000Y38456115D01*
X7350000Y38456115D01*
X7350000Y41859148D01*
X7370002Y41927269D01*
X7423658Y41973762D01*
X7475852Y41985148D01*
X11911905Y41990367D01*
X28547106Y42009938D01*
X28615249Y41990016D01*
G37*
%TD.AperFunction*%
%TA.AperFunction,Conductor*%
G36*
X22225956Y21202817D02*
G01*
X22275898Y21152356D01*
X22282826Y21137185D01*
X22285829Y21129260D01*
X22287804Y21124048D01*
X22406791Y20921644D01*
X22558181Y20742181D01*
X22737644Y20590791D01*
X22940048Y20471804D01*
X23159607Y20388620D01*
X23390043Y20343619D01*
X23394401Y20343383D01*
X23445948Y20340591D01*
X23445963Y20340591D01*
X23447636Y20340500D01*
X23980500Y20340500D01*
X24048621Y20320498D01*
X24095114Y20266842D01*
X24106500Y20214500D01*
X24106500Y16019257D01*
X24105589Y16008468D01*
X24105893Y16008446D01*
X24105454Y16002472D01*
X24104448Y15996554D01*
X24104579Y15990553D01*
X24106470Y15903901D01*
X24106500Y15901152D01*
X24106500Y15862154D01*
X24106784Y15859175D01*
X24106785Y15859157D01*
X24107203Y15854778D01*
X24107743Y15845564D01*
X24109063Y15785083D01*
X24110324Y15779225D01*
X24110325Y15779218D01*
X24116115Y15752326D01*
X24118367Y15737774D01*
X24121548Y15704434D01*
X24123238Y15698674D01*
X24123238Y15698673D01*
X24138576Y15646387D01*
X24140848Y15637439D01*
X24152318Y15584164D01*
X24152321Y15584153D01*
X24153582Y15578298D01*
X24155929Y15572782D01*
X24155930Y15572779D01*
X24166700Y15547468D01*
X24171659Y15533619D01*
X24181092Y15501466D01*
X24208797Y15447674D01*
X24212710Y15439340D01*
X24236400Y15383664D01*
X24255112Y15355870D01*
X24262603Y15343203D01*
X24275194Y15318754D01*
X24275198Y15318747D01*
X24277942Y15313420D01*
X24298459Y15287300D01*
X24315303Y15265857D01*
X24320737Y15258391D01*
X24351991Y15211967D01*
X24352002Y15211952D01*
X24354528Y15208201D01*
X24358269Y15204076D01*
X24378874Y15183471D01*
X24388865Y15172209D01*
X24404898Y15151797D01*
X24404902Y15151792D01*
X24408604Y15147080D01*
X24413134Y15143149D01*
X24413135Y15143148D01*
X24455608Y15106292D01*
X24462124Y15100221D01*
X24914596Y14647748D01*
X24948621Y14585436D01*
X24951500Y14558653D01*
X24951500Y13871866D01*
X24958255Y13809684D01*
X25009385Y13673295D01*
X25096739Y13556739D01*
X25162796Y13507232D01*
X25174610Y13498378D01*
X25217124Y13441518D01*
X25222149Y13370700D01*
X25192783Y13316957D01*
X25194567Y13315433D01*
X25040196Y13134689D01*
X25035248Y13128896D01*
X24907073Y12919732D01*
X24813195Y12693092D01*
X24755928Y12454557D01*
X24736681Y12210000D01*
X24737069Y12205070D01*
X24742514Y12135886D01*
X24727918Y12066406D01*
X24678076Y12015846D01*
X24616902Y12000000D01*
X14399341Y12000000D01*
X14331220Y12020002D01*
X14284727Y12073658D01*
X14274623Y12143932D01*
X14275754Y12150041D01*
X14277190Y12154356D01*
X14277996Y12160731D01*
X14302764Y12356798D01*
X14303207Y12360302D01*
X14303622Y12390000D01*
X14283365Y12596592D01*
X14223368Y12795315D01*
X14125913Y12978599D01*
X14006781Y13124670D01*
X13998610Y13134689D01*
X13998607Y13134692D01*
X13994715Y13139464D01*
X13987770Y13145210D01*
X13839518Y13267855D01*
X13839519Y13267855D01*
X13834770Y13271783D01*
X13829353Y13274712D01*
X13829350Y13274714D01*
X13657590Y13367584D01*
X13657585Y13367586D01*
X13652170Y13370514D01*
X13579969Y13392864D01*
X13520810Y13432116D01*
X13492263Y13497120D01*
X13503392Y13567239D01*
X13550663Y13620210D01*
X13581020Y13633914D01*
X13632587Y13649385D01*
X13732426Y13679338D01*
X13732432Y13679340D01*
X13737384Y13680826D01*
X13937994Y13779104D01*
X14119860Y13908827D01*
X14278096Y14066511D01*
X14408453Y14247923D01*
X14507430Y14448189D01*
X14556849Y14610844D01*
X14570865Y14656977D01*
X14570865Y14656979D01*
X14572370Y14661931D01*
X14601529Y14883410D01*
X14603156Y14950000D01*
X14584852Y15172639D01*
X14562352Y15262218D01*
X14548139Y15318803D01*
X14550944Y15389744D01*
X14581248Y15438593D01*
X19425103Y20282448D01*
X19433377Y20289434D01*
X19433179Y20289664D01*
X19437724Y20293588D01*
X19442611Y20297054D01*
X19446997Y20301635D01*
X19447148Y20301722D01*
X19451296Y20305303D01*
X19451987Y20304503D01*
X19508553Y20337008D01*
X19538010Y20340500D01*
X20882364Y20340500D01*
X20884037Y20340591D01*
X20884052Y20340591D01*
X20935599Y20343383D01*
X20939957Y20343619D01*
X21170393Y20388620D01*
X21389952Y20471804D01*
X21592356Y20590791D01*
X21771819Y20742181D01*
X21923209Y20921644D01*
X22042196Y21124048D01*
X22044171Y21129260D01*
X22047174Y21137185D01*
X22090014Y21193800D01*
X22156661Y21218267D01*
X22225956Y21202817D01*
G37*
%TD.AperFunction*%
%TD*%
%TA.AperFunction,Conductor*%
%TO.N,GND*%
G36*
X41852121Y78359998D02*
G01*
X41898614Y78306342D01*
X41910000Y78254000D01*
X41910000Y72864500D01*
X41889998Y72796379D01*
X41836342Y72749886D01*
X41784000Y72738500D01*
X41350430Y72738500D01*
X41336822Y72739237D01*
X41323736Y72740659D01*
X41323732Y72740659D01*
X41317611Y72741324D01*
X41293756Y72739237D01*
X41290807Y72738979D01*
X41279826Y72738500D01*
X40844500Y72738500D01*
X40776379Y72758502D01*
X40729886Y72812158D01*
X40718500Y72864500D01*
X40718500Y73128134D01*
X40711745Y73190316D01*
X40660615Y73326705D01*
X40573261Y73443261D01*
X40456705Y73530615D01*
X40320316Y73581745D01*
X40258134Y73588500D01*
X38361866Y73588500D01*
X38299684Y73581745D01*
X38163295Y73530615D01*
X38046739Y73443261D01*
X37959385Y73326705D01*
X37908255Y73190316D01*
X37901500Y73128134D01*
X37901500Y71758503D01*
X37881498Y71690382D01*
X37864595Y71669408D01*
X37362092Y71166905D01*
X37299780Y71132879D01*
X37272997Y71130000D01*
X31344000Y71130000D01*
X31275879Y71150002D01*
X31229386Y71203658D01*
X31218000Y71256000D01*
X31218000Y71557885D01*
X31213525Y71573124D01*
X31212135Y71574329D01*
X31204452Y71576000D01*
X28920116Y71576000D01*
X28904877Y71571525D01*
X28903672Y71570135D01*
X28902001Y71562452D01*
X28902001Y71256000D01*
X28881999Y71187879D01*
X28828343Y71141386D01*
X28776001Y71130000D01*
X28244500Y71130000D01*
X28176379Y71150002D01*
X28129886Y71203658D01*
X28118500Y71256000D01*
X28118500Y72102115D01*
X28902000Y72102115D01*
X28906475Y72086876D01*
X28907865Y72085671D01*
X28915548Y72084000D01*
X29787885Y72084000D01*
X29803124Y72088475D01*
X29804329Y72089865D01*
X29806000Y72097548D01*
X29806000Y72102115D01*
X30314000Y72102115D01*
X30318475Y72086876D01*
X30319865Y72085671D01*
X30327548Y72084000D01*
X31199884Y72084000D01*
X31215123Y72088475D01*
X31216328Y72089865D01*
X31217999Y72097548D01*
X31217999Y72502095D01*
X31217662Y72508614D01*
X31207743Y72604206D01*
X31204851Y72617600D01*
X31153412Y72771784D01*
X31147239Y72784962D01*
X31061937Y72922807D01*
X31052901Y72934208D01*
X30938171Y73048739D01*
X30926760Y73057751D01*
X30788757Y73142816D01*
X30775576Y73148963D01*
X30621290Y73200138D01*
X30607914Y73203005D01*
X30513562Y73212672D01*
X30507145Y73213000D01*
X30332115Y73213000D01*
X30316876Y73208525D01*
X30315671Y73207135D01*
X30314000Y73199452D01*
X30314000Y72102115D01*
X29806000Y72102115D01*
X29806000Y73194884D01*
X29801525Y73210123D01*
X29800135Y73211328D01*
X29792452Y73212999D01*
X29612905Y73212999D01*
X29606386Y73212662D01*
X29510794Y73202743D01*
X29497400Y73199851D01*
X29343216Y73148412D01*
X29330038Y73142239D01*
X29192193Y73056937D01*
X29180792Y73047901D01*
X29066261Y72933171D01*
X29057249Y72921760D01*
X28972184Y72783757D01*
X28966037Y72770576D01*
X28914862Y72616290D01*
X28911995Y72602914D01*
X28902328Y72508562D01*
X28902000Y72502145D01*
X28902000Y72102115D01*
X28118500Y72102115D01*
X28118500Y72505400D01*
X28111897Y72569040D01*
X28108238Y72604308D01*
X28108237Y72604312D01*
X28107526Y72611166D01*
X28051550Y72778946D01*
X27958478Y72929348D01*
X27833303Y73054305D01*
X27708020Y73131531D01*
X27688968Y73143275D01*
X27688966Y73143276D01*
X27682738Y73147115D01*
X27576176Y73182460D01*
X27521389Y73200632D01*
X27521387Y73200632D01*
X27514861Y73202797D01*
X27508025Y73203497D01*
X27508022Y73203498D01*
X27464969Y73207909D01*
X27410400Y73213500D01*
X26509600Y73213500D01*
X26506354Y73213163D01*
X26506350Y73213163D01*
X26410692Y73203238D01*
X26410688Y73203237D01*
X26403834Y73202526D01*
X26397298Y73200345D01*
X26397296Y73200345D01*
X26380928Y73194884D01*
X26236054Y73146550D01*
X26085652Y73053478D01*
X25960695Y72928303D01*
X25956855Y72922073D01*
X25956854Y72922072D01*
X25879376Y72796379D01*
X25867885Y72777738D01*
X25812203Y72609861D01*
X25811503Y72603025D01*
X25811502Y72603022D01*
X25807091Y72559969D01*
X25801500Y72505400D01*
X25801500Y71256000D01*
X25781498Y71187879D01*
X25727842Y71141386D01*
X25675500Y71130000D01*
X20786000Y71130000D01*
X20717879Y71150002D01*
X20671386Y71203658D01*
X20660000Y71256000D01*
X20660000Y74535331D01*
X37902001Y74535331D01*
X37902371Y74528510D01*
X37907895Y74477648D01*
X37911521Y74462396D01*
X37956676Y74341946D01*
X37965214Y74326351D01*
X38041715Y74224276D01*
X38054276Y74211715D01*
X38156351Y74135214D01*
X38171946Y74126676D01*
X38292394Y74081522D01*
X38307649Y74077895D01*
X38358514Y74072369D01*
X38365328Y74072000D01*
X39037885Y74072000D01*
X39053124Y74076475D01*
X39054329Y74077865D01*
X39056000Y74085548D01*
X39056000Y74090116D01*
X39564000Y74090116D01*
X39568475Y74074877D01*
X39569865Y74073672D01*
X39577548Y74072001D01*
X40254669Y74072001D01*
X40261490Y74072371D01*
X40312352Y74077895D01*
X40327604Y74081521D01*
X40448054Y74126676D01*
X40463649Y74135214D01*
X40565724Y74211715D01*
X40578285Y74224276D01*
X40654786Y74326351D01*
X40663324Y74341946D01*
X40708478Y74462394D01*
X40712105Y74477649D01*
X40717631Y74528514D01*
X40718000Y74535328D01*
X40718000Y75557885D01*
X40713525Y75573124D01*
X40712135Y75574329D01*
X40704452Y75576000D01*
X39582115Y75576000D01*
X39566876Y75571525D01*
X39565671Y75570135D01*
X39564000Y75562452D01*
X39564000Y74090116D01*
X39056000Y74090116D01*
X39056000Y75557885D01*
X39051525Y75573124D01*
X39050135Y75574329D01*
X39042452Y75576000D01*
X37920116Y75576000D01*
X37904877Y75571525D01*
X37903672Y75570135D01*
X37902001Y75562452D01*
X37902001Y74535331D01*
X20660000Y74535331D01*
X20660000Y76102115D01*
X37902000Y76102115D01*
X37906475Y76086876D01*
X37907865Y76085671D01*
X37915548Y76084000D01*
X39037885Y76084000D01*
X39053124Y76088475D01*
X39054329Y76089865D01*
X39056000Y76097548D01*
X39056000Y76102115D01*
X39564000Y76102115D01*
X39568475Y76086876D01*
X39569865Y76085671D01*
X39577548Y76084000D01*
X40699884Y76084000D01*
X40715123Y76088475D01*
X40716328Y76089865D01*
X40717999Y76097548D01*
X40717999Y77124669D01*
X40717629Y77131490D01*
X40712105Y77182352D01*
X40708479Y77197604D01*
X40663324Y77318054D01*
X40654786Y77333649D01*
X40578285Y77435724D01*
X40565724Y77448285D01*
X40463649Y77524786D01*
X40448054Y77533324D01*
X40327606Y77578478D01*
X40312351Y77582105D01*
X40261486Y77587631D01*
X40254672Y77588000D01*
X39582115Y77588000D01*
X39566876Y77583525D01*
X39565671Y77582135D01*
X39564000Y77574452D01*
X39564000Y76102115D01*
X39056000Y76102115D01*
X39056000Y77569884D01*
X39051525Y77585123D01*
X39050135Y77586328D01*
X39042452Y77587999D01*
X38365331Y77587999D01*
X38358510Y77587629D01*
X38307648Y77582105D01*
X38292396Y77578479D01*
X38171946Y77533324D01*
X38156351Y77524786D01*
X38054276Y77448285D01*
X38041715Y77435724D01*
X37965214Y77333649D01*
X37956676Y77318054D01*
X37911522Y77197606D01*
X37907895Y77182351D01*
X37902369Y77131486D01*
X37902000Y77124672D01*
X37902000Y76102115D01*
X20660000Y76102115D01*
X20660000Y78254000D01*
X20680002Y78322121D01*
X20733658Y78368614D01*
X20786000Y78380000D01*
X41784000Y78380000D01*
X41852121Y78359998D01*
G37*
%TD.AperFunction*%
%TD*%
%TA.AperFunction,Conductor*%
%TO.N,GND*%
G36*
X71496885Y43069998D02*
G01*
X71543378Y43016342D01*
X71553482Y42946068D01*
X71536024Y42897884D01*
X71447184Y42753757D01*
X71441037Y42740576D01*
X71389862Y42586290D01*
X71386995Y42572914D01*
X71377328Y42478562D01*
X71377000Y42472145D01*
X71377000Y41822115D01*
X71381475Y41806876D01*
X71382865Y41805671D01*
X71390548Y41804000D01*
X74724884Y41804000D01*
X74740123Y41808475D01*
X74741328Y41809865D01*
X74742999Y41817548D01*
X74742999Y42472095D01*
X74742662Y42478614D01*
X74732743Y42574206D01*
X74729851Y42587600D01*
X74678412Y42741784D01*
X74672239Y42754962D01*
X74583911Y42897697D01*
X74565073Y42966149D01*
X74586234Y43033918D01*
X74640675Y43079490D01*
X74691055Y43090000D01*
X94511663Y43090000D01*
X94579784Y43069998D01*
X94626277Y43016342D01*
X94637663Y42963979D01*
X94632490Y13827223D01*
X94632009Y11120683D01*
X94630509Y11101327D01*
X94626814Y11077590D01*
X94629059Y11060423D01*
X94629892Y11036481D01*
X94614290Y10778550D01*
X94612456Y10763446D01*
X94560962Y10482447D01*
X94557321Y10467673D01*
X94472326Y10194916D01*
X94466930Y10180690D01*
X94349686Y9920184D01*
X94342615Y9906711D01*
X94194818Y9662225D01*
X94186175Y9649703D01*
X94009984Y9424813D01*
X93999894Y9413425D01*
X93797895Y9211426D01*
X93786507Y9201336D01*
X93561617Y9025145D01*
X93549095Y9016502D01*
X93304609Y8868705D01*
X93291140Y8861636D01*
X93030630Y8744390D01*
X93016408Y8738995D01*
X92743641Y8653998D01*
X92728879Y8650360D01*
X92518648Y8611834D01*
X92447874Y8598864D01*
X92432770Y8597030D01*
X92182071Y8581865D01*
X92155361Y8583122D01*
X92155141Y8583125D01*
X92146270Y8584506D01*
X92137368Y8583342D01*
X92137365Y8583342D01*
X92114749Y8580384D01*
X92098411Y8579320D01*
X65426000Y8579320D01*
X65357879Y8599322D01*
X65311386Y8652978D01*
X65300000Y8705320D01*
X65300000Y13716844D01*
X65320002Y13784965D01*
X65373658Y13831458D01*
X65412835Y13842154D01*
X65427046Y13843647D01*
X65433616Y13844164D01*
X65495308Y13847397D01*
X65495312Y13847398D01*
X65501903Y13847743D01*
X65508284Y13849453D01*
X65508286Y13849453D01*
X65515491Y13851383D01*
X65534925Y13854985D01*
X65542359Y13855767D01*
X65542363Y13855768D01*
X65548928Y13856458D01*
X65555203Y13858497D01*
X65555208Y13858498D01*
X65565091Y13861709D01*
X65633441Y13864395D01*
X65712289Y13845465D01*
X65949000Y13826835D01*
X66185711Y13845465D01*
X66190518Y13846619D01*
X66190524Y13846620D01*
X66336391Y13881640D01*
X66416594Y13900895D01*
X66451789Y13915473D01*
X66631389Y13989865D01*
X66631393Y13989867D01*
X66635963Y13991760D01*
X66640183Y13994346D01*
X66834202Y14113241D01*
X66834208Y14113245D01*
X66838416Y14115824D01*
X67018969Y14270031D01*
X67106006Y14371938D01*
X85249493Y14371938D01*
X85258789Y14359923D01*
X85309994Y14324069D01*
X85319489Y14318586D01*
X85516947Y14226510D01*
X85527239Y14222764D01*
X85737688Y14166375D01*
X85748481Y14164472D01*
X85965525Y14145483D01*
X85976475Y14145483D01*
X86193519Y14164472D01*
X86204312Y14166375D01*
X86414761Y14222764D01*
X86425053Y14226510D01*
X86622511Y14318586D01*
X86632006Y14324069D01*
X86684048Y14360509D01*
X86692424Y14370988D01*
X86685356Y14384434D01*
X85983812Y15085978D01*
X85969868Y15093592D01*
X85968035Y15093461D01*
X85961420Y15089210D01*
X85255923Y14383713D01*
X85249493Y14371938D01*
X67106006Y14371938D01*
X67173176Y14450584D01*
X67175755Y14454792D01*
X67175759Y14454798D01*
X67294654Y14648817D01*
X67297240Y14653037D01*
X67331809Y14736493D01*
X67386211Y14867833D01*
X67386212Y14867835D01*
X67388105Y14872406D01*
X67443535Y15103289D01*
X67462165Y15340000D01*
X67453309Y15452525D01*
X84658483Y15452525D01*
X84677472Y15235481D01*
X84679375Y15224688D01*
X84735764Y15014239D01*
X84739510Y15003947D01*
X84831586Y14806489D01*
X84837069Y14796994D01*
X84873509Y14744952D01*
X84883988Y14736576D01*
X84897434Y14743644D01*
X85598978Y15445188D01*
X85605356Y15456868D01*
X86335408Y15456868D01*
X86335539Y15455035D01*
X86339790Y15448420D01*
X87045287Y14742923D01*
X87057062Y14736493D01*
X87069077Y14745789D01*
X87104931Y14796994D01*
X87110414Y14806489D01*
X87202490Y15003947D01*
X87206236Y15014239D01*
X87262625Y15224688D01*
X87264528Y15235481D01*
X87283517Y15452525D01*
X87283517Y15463475D01*
X87264528Y15680519D01*
X87262625Y15691312D01*
X87206236Y15901761D01*
X87202490Y15912053D01*
X87110414Y16109511D01*
X87104931Y16119006D01*
X87068491Y16171048D01*
X87058012Y16179424D01*
X87044566Y16172356D01*
X86343022Y15470812D01*
X86335408Y15456868D01*
X85605356Y15456868D01*
X85606592Y15459132D01*
X85606461Y15460965D01*
X85602210Y15467580D01*
X84896713Y16173077D01*
X84884938Y16179507D01*
X84872923Y16170211D01*
X84837069Y16119006D01*
X84831586Y16109511D01*
X84739510Y15912053D01*
X84735764Y15901761D01*
X84679375Y15691312D01*
X84677472Y15680519D01*
X84658483Y15463475D01*
X84658483Y15452525D01*
X67453309Y15452525D01*
X67443535Y15576711D01*
X67427491Y15643542D01*
X67389260Y15802782D01*
X67388105Y15807594D01*
X67349029Y15901933D01*
X67299135Y16022389D01*
X67299133Y16022393D01*
X67297240Y16026963D01*
X67281185Y16053162D01*
X67175759Y16225202D01*
X67175755Y16225208D01*
X67173176Y16229416D01*
X67018969Y16409969D01*
X66860854Y16545012D01*
X85249576Y16545012D01*
X85256644Y16531566D01*
X85958188Y15830022D01*
X85972132Y15822408D01*
X85973965Y15822539D01*
X85980580Y15826790D01*
X86686077Y16532287D01*
X86692507Y16544062D01*
X86683211Y16556077D01*
X86632006Y16591931D01*
X86622511Y16597414D01*
X86425053Y16689490D01*
X86414761Y16693236D01*
X86204312Y16749625D01*
X86193519Y16751528D01*
X85976475Y16770517D01*
X85965525Y16770517D01*
X85748481Y16751528D01*
X85737688Y16749625D01*
X85527239Y16693236D01*
X85516947Y16689490D01*
X85319489Y16597414D01*
X85309994Y16591931D01*
X85257952Y16555491D01*
X85249576Y16545012D01*
X66860854Y16545012D01*
X66838416Y16564176D01*
X66834208Y16566755D01*
X66834202Y16566759D01*
X66640183Y16685654D01*
X66635963Y16688240D01*
X66631393Y16690133D01*
X66631389Y16690135D01*
X66421167Y16777211D01*
X66421165Y16777212D01*
X66416594Y16779105D01*
X66328219Y16800322D01*
X66190524Y16833380D01*
X66190518Y16833381D01*
X66185711Y16834535D01*
X65949000Y16853165D01*
X65712289Y16834535D01*
X65707482Y16833381D01*
X65707476Y16833380D01*
X65569781Y16800322D01*
X65481406Y16779105D01*
X65476838Y16777213D01*
X65476829Y16777210D01*
X65474213Y16776126D01*
X65473139Y16776011D01*
X65472125Y16775681D01*
X65472056Y16775894D01*
X65403623Y16768540D01*
X65340137Y16800322D01*
X65303913Y16861382D01*
X65300000Y16892537D01*
X65300000Y18705500D01*
X65320002Y18773621D01*
X65373658Y18820114D01*
X65426000Y18831500D01*
X66997134Y18831500D01*
X67059316Y18838255D01*
X67195705Y18889385D01*
X67312261Y18976739D01*
X67399615Y19093295D01*
X67450745Y19229684D01*
X67457500Y19291866D01*
X67457500Y21388134D01*
X67450745Y21450316D01*
X67399615Y21586705D01*
X67390873Y21598369D01*
X71807000Y21598369D01*
X71807091Y21594984D01*
X71809882Y21543455D01*
X71810955Y21534811D01*
X71854080Y21313982D01*
X71856994Y21303754D01*
X71936364Y21094260D01*
X71940962Y21084662D01*
X72054493Y20891540D01*
X72060646Y20882851D01*
X72205101Y20711608D01*
X72212608Y20704101D01*
X72383851Y20559646D01*
X72392540Y20553493D01*
X72585662Y20439962D01*
X72595260Y20435364D01*
X72804754Y20355994D01*
X72814982Y20353080D01*
X73035811Y20309955D01*
X73044455Y20308882D01*
X73095984Y20306091D01*
X73099369Y20306000D01*
X74792885Y20306000D01*
X74808124Y20310475D01*
X74809329Y20311865D01*
X74811000Y20319548D01*
X74811000Y20324115D01*
X75319000Y20324115D01*
X75323475Y20308876D01*
X75324865Y20307671D01*
X75332548Y20306000D01*
X77030631Y20306000D01*
X77034016Y20306091D01*
X77085545Y20308882D01*
X77094189Y20309955D01*
X77315018Y20353080D01*
X77325246Y20355994D01*
X77534740Y20435364D01*
X77544338Y20439962D01*
X77737460Y20553493D01*
X77746149Y20559646D01*
X77917392Y20704101D01*
X77924899Y20711608D01*
X78069354Y20882851D01*
X78075507Y20891540D01*
X78189038Y21084662D01*
X78193636Y21094260D01*
X78197173Y21103595D01*
X78240011Y21160211D01*
X78306658Y21184679D01*
X78375954Y21169230D01*
X78425897Y21118770D01*
X78432827Y21103595D01*
X78436364Y21094260D01*
X78440962Y21084662D01*
X78554493Y20891540D01*
X78560646Y20882851D01*
X78705101Y20711608D01*
X78712608Y20704101D01*
X78883851Y20559646D01*
X78892540Y20553493D01*
X79085662Y20439962D01*
X79095260Y20435364D01*
X79304754Y20355994D01*
X79314982Y20353080D01*
X79535811Y20309955D01*
X79544455Y20308882D01*
X79595984Y20306091D01*
X79599369Y20306000D01*
X81292885Y20306000D01*
X81308124Y20310475D01*
X81309329Y20311865D01*
X81311000Y20319548D01*
X81311000Y20324115D01*
X81819000Y20324115D01*
X81823475Y20308876D01*
X81824865Y20307671D01*
X81832548Y20306000D01*
X83530631Y20306000D01*
X83534016Y20306091D01*
X83585545Y20308882D01*
X83594189Y20309955D01*
X83815018Y20353080D01*
X83825246Y20355994D01*
X84034740Y20435364D01*
X84044338Y20439962D01*
X84237460Y20553493D01*
X84246149Y20559646D01*
X84417392Y20704101D01*
X84424899Y20711608D01*
X84569354Y20882851D01*
X84575507Y20891540D01*
X84689038Y21084662D01*
X84693636Y21094260D01*
X84697173Y21103595D01*
X84740011Y21160211D01*
X84806658Y21184679D01*
X84875954Y21169230D01*
X84925897Y21118770D01*
X84932827Y21103595D01*
X84936364Y21094260D01*
X84940962Y21084662D01*
X85054493Y20891540D01*
X85060646Y20882851D01*
X85205101Y20711608D01*
X85212608Y20704101D01*
X85383851Y20559646D01*
X85392540Y20553493D01*
X85585662Y20439962D01*
X85595260Y20435364D01*
X85804754Y20355994D01*
X85814982Y20353080D01*
X86035811Y20309955D01*
X86044455Y20308882D01*
X86095984Y20306091D01*
X86099369Y20306000D01*
X87792885Y20306000D01*
X87808124Y20310475D01*
X87809329Y20311865D01*
X87811000Y20319548D01*
X87811000Y22291885D01*
X87806525Y22307124D01*
X87805135Y22308329D01*
X87797452Y22310000D01*
X81837115Y22310000D01*
X81821876Y22305525D01*
X81820671Y22304135D01*
X81819000Y22296452D01*
X81819000Y20324115D01*
X81311000Y20324115D01*
X81311000Y22291885D01*
X81306525Y22307124D01*
X81305135Y22308329D01*
X81297452Y22310000D01*
X75337115Y22310000D01*
X75321876Y22305525D01*
X75320671Y22304135D01*
X75319000Y22296452D01*
X75319000Y20324115D01*
X74811000Y20324115D01*
X74811000Y22291885D01*
X74806525Y22307124D01*
X74805135Y22308329D01*
X74797452Y22310000D01*
X71825115Y22310000D01*
X71809876Y22305525D01*
X71808671Y22304135D01*
X71807000Y22296452D01*
X71807000Y21598369D01*
X67390873Y21598369D01*
X67312261Y21703261D01*
X67195705Y21790615D01*
X67059316Y21841745D01*
X66997134Y21848500D01*
X65777503Y21848500D01*
X65709382Y21868502D01*
X65688408Y21885405D01*
X65440405Y22133408D01*
X65406379Y22195720D01*
X65403500Y22222503D01*
X65403500Y22836115D01*
X71807000Y22836115D01*
X71811475Y22820876D01*
X71812865Y22819671D01*
X71820548Y22818000D01*
X74792885Y22818000D01*
X74808124Y22822475D01*
X74809329Y22823865D01*
X74811000Y22831548D01*
X74811000Y22836115D01*
X75319000Y22836115D01*
X75323475Y22820876D01*
X75324865Y22819671D01*
X75332548Y22818000D01*
X81292885Y22818000D01*
X81308124Y22822475D01*
X81309329Y22823865D01*
X81311000Y22831548D01*
X81311000Y22836115D01*
X81819000Y22836115D01*
X81823475Y22820876D01*
X81824865Y22819671D01*
X81832548Y22818000D01*
X87792885Y22818000D01*
X87808124Y22822475D01*
X87809329Y22823865D01*
X87811000Y22831548D01*
X87811000Y24803885D01*
X87806525Y24819124D01*
X87805135Y24820329D01*
X87797452Y24822000D01*
X86099370Y24822000D01*
X86095984Y24821909D01*
X86044455Y24819118D01*
X86035811Y24818045D01*
X85814982Y24774920D01*
X85804754Y24772006D01*
X85595260Y24692636D01*
X85585662Y24688038D01*
X85392540Y24574507D01*
X85383851Y24568354D01*
X85212608Y24423899D01*
X85205101Y24416392D01*
X85060646Y24245149D01*
X85054493Y24236460D01*
X84940962Y24043338D01*
X84936364Y24033740D01*
X84932827Y24024405D01*
X84889989Y23967789D01*
X84823342Y23943321D01*
X84754046Y23958770D01*
X84704103Y24009230D01*
X84697173Y24024405D01*
X84693636Y24033740D01*
X84689038Y24043338D01*
X84575507Y24236460D01*
X84569354Y24245149D01*
X84424899Y24416392D01*
X84417392Y24423899D01*
X84246149Y24568354D01*
X84237460Y24574507D01*
X84044338Y24688038D01*
X84034740Y24692636D01*
X83825246Y24772006D01*
X83815018Y24774920D01*
X83594189Y24818045D01*
X83585545Y24819118D01*
X83534016Y24821909D01*
X83530630Y24822000D01*
X81837115Y24822000D01*
X81821876Y24817525D01*
X81820671Y24816135D01*
X81819000Y24808452D01*
X81819000Y22836115D01*
X81311000Y22836115D01*
X81311000Y24803885D01*
X81306525Y24819124D01*
X81305135Y24820329D01*
X81297452Y24822000D01*
X79599370Y24822000D01*
X79595984Y24821909D01*
X79544455Y24819118D01*
X79535811Y24818045D01*
X79314982Y24774920D01*
X79304754Y24772006D01*
X79095260Y24692636D01*
X79085662Y24688038D01*
X78892540Y24574507D01*
X78883851Y24568354D01*
X78712608Y24423899D01*
X78705101Y24416392D01*
X78560646Y24245149D01*
X78554493Y24236460D01*
X78440962Y24043338D01*
X78436364Y24033740D01*
X78432827Y24024405D01*
X78389989Y23967789D01*
X78323342Y23943321D01*
X78254046Y23958770D01*
X78204103Y24009230D01*
X78197173Y24024405D01*
X78193636Y24033740D01*
X78189038Y24043338D01*
X78075507Y24236460D01*
X78069354Y24245149D01*
X77924899Y24416392D01*
X77917392Y24423899D01*
X77746149Y24568354D01*
X77737460Y24574507D01*
X77544338Y24688038D01*
X77534740Y24692636D01*
X77325246Y24772006D01*
X77315018Y24774920D01*
X77094189Y24818045D01*
X77085545Y24819118D01*
X77034016Y24821909D01*
X77030630Y24822000D01*
X75337115Y24822000D01*
X75321876Y24817525D01*
X75320671Y24816135D01*
X75319000Y24808452D01*
X75319000Y22836115D01*
X74811000Y22836115D01*
X74811000Y24803885D01*
X74806525Y24819124D01*
X74805135Y24820329D01*
X74797452Y24822000D01*
X73099370Y24822000D01*
X73095984Y24821909D01*
X73044455Y24819118D01*
X73035811Y24818045D01*
X72814982Y24774920D01*
X72804754Y24772006D01*
X72595260Y24692636D01*
X72585662Y24688038D01*
X72392540Y24574507D01*
X72383851Y24568354D01*
X72212608Y24423899D01*
X72205101Y24416392D01*
X72060646Y24245149D01*
X72054493Y24236460D01*
X71940962Y24043338D01*
X71936364Y24033740D01*
X71856994Y23824246D01*
X71854080Y23814018D01*
X71810955Y23593189D01*
X71809882Y23584545D01*
X71807091Y23533016D01*
X71807000Y23529630D01*
X71807000Y22836115D01*
X65403500Y22836115D01*
X65403500Y32913583D01*
X65405051Y32933295D01*
X65406220Y32940675D01*
X65407252Y32947190D01*
X65403673Y33015480D01*
X65403500Y33022074D01*
X65403500Y33042610D01*
X65403156Y33045884D01*
X65401353Y33063042D01*
X65400836Y33069616D01*
X65397603Y33131304D01*
X65397603Y33131306D01*
X65397257Y33137903D01*
X65393615Y33151496D01*
X65390014Y33170925D01*
X65389232Y33178361D01*
X65388542Y33184928D01*
X65367407Y33249975D01*
X65365535Y33256294D01*
X65349538Y33315997D01*
X65349537Y33316000D01*
X65347830Y33322370D01*
X65341438Y33334915D01*
X65333874Y33353177D01*
X65331568Y33360274D01*
X65329527Y33366556D01*
X65316880Y33388461D01*
X65300000Y33451459D01*
X65300000Y37860000D01*
X64262190Y37860000D01*
X64194069Y37880002D01*
X64173095Y37896905D01*
X62809095Y39260905D01*
X62775069Y39323217D01*
X62780134Y39394032D01*
X62809095Y39439095D01*
X63997905Y40627905D01*
X71377001Y40627905D01*
X71377338Y40621386D01*
X71387257Y40525794D01*
X71390149Y40512400D01*
X71441588Y40358216D01*
X71447761Y40345038D01*
X71533063Y40207193D01*
X71542099Y40195792D01*
X71656829Y40081261D01*
X71668240Y40072249D01*
X71806243Y39987184D01*
X71819424Y39981037D01*
X71946206Y39938985D01*
X72004565Y39898554D01*
X72031802Y39832990D01*
X72019268Y39763108D01*
X72015162Y39755543D01*
X71937804Y39623952D01*
X71854620Y39404393D01*
X71809619Y39173957D01*
X71806500Y39116364D01*
X71806500Y37181636D01*
X71809619Y37124043D01*
X71854620Y36893607D01*
X71937804Y36674048D01*
X72056791Y36471644D01*
X72208181Y36292181D01*
X72387644Y36140791D01*
X72590048Y36021804D01*
X72809607Y35938620D01*
X73040043Y35893619D01*
X73044401Y35893383D01*
X73095948Y35890591D01*
X73095963Y35890591D01*
X73097636Y35890500D01*
X77032364Y35890500D01*
X77034037Y35890591D01*
X77034052Y35890591D01*
X77085599Y35893383D01*
X77089957Y35893619D01*
X77320393Y35938620D01*
X77539952Y36021804D01*
X77742356Y36140791D01*
X77921819Y36292181D01*
X78073209Y36471644D01*
X78192196Y36674048D01*
X78197440Y36687889D01*
X78240277Y36744504D01*
X78306924Y36768973D01*
X78376220Y36753525D01*
X78426163Y36703065D01*
X78433093Y36687892D01*
X78436364Y36679260D01*
X78440962Y36669662D01*
X78554493Y36476540D01*
X78560646Y36467851D01*
X78705101Y36296608D01*
X78712608Y36289101D01*
X78883851Y36144646D01*
X78892540Y36138493D01*
X79085662Y36024962D01*
X79095260Y36020364D01*
X79304754Y35940994D01*
X79314982Y35938080D01*
X79535811Y35894955D01*
X79544455Y35893882D01*
X79595984Y35891091D01*
X79599369Y35891000D01*
X81292885Y35891000D01*
X81308124Y35895475D01*
X81309329Y35896865D01*
X81311000Y35904548D01*
X81311000Y35909115D01*
X81819000Y35909115D01*
X81823475Y35893876D01*
X81824865Y35892671D01*
X81832548Y35891000D01*
X83530631Y35891000D01*
X83534016Y35891091D01*
X83585545Y35893882D01*
X83594189Y35894955D01*
X83815018Y35938080D01*
X83825246Y35940994D01*
X84034740Y36020364D01*
X84044338Y36024962D01*
X84237460Y36138493D01*
X84246149Y36144646D01*
X84417392Y36289101D01*
X84424899Y36296608D01*
X84569354Y36467851D01*
X84575507Y36476540D01*
X84689038Y36669662D01*
X84693636Y36679260D01*
X84696907Y36687892D01*
X84739747Y36744507D01*
X84806395Y36768973D01*
X84875690Y36753522D01*
X84925632Y36703061D01*
X84932558Y36687895D01*
X84937804Y36674048D01*
X85056791Y36471644D01*
X85208181Y36292181D01*
X85387644Y36140791D01*
X85590048Y36021804D01*
X85809607Y35938620D01*
X86040043Y35893619D01*
X86044401Y35893383D01*
X86095948Y35890591D01*
X86095963Y35890591D01*
X86097636Y35890500D01*
X88703655Y35890500D01*
X88771776Y35870498D01*
X88792750Y35853595D01*
X91154595Y33491750D01*
X91188621Y33429438D01*
X91191500Y33402655D01*
X91191500Y24445131D01*
X91171498Y24377010D01*
X91117842Y24330517D01*
X91047568Y24320413D01*
X90982988Y24349907D01*
X90969191Y24363887D01*
X90924899Y24416392D01*
X90917392Y24423899D01*
X90746149Y24568354D01*
X90737460Y24574507D01*
X90544338Y24688038D01*
X90534740Y24692636D01*
X90325246Y24772006D01*
X90315018Y24774920D01*
X90094189Y24818045D01*
X90085545Y24819118D01*
X90034016Y24821909D01*
X90030630Y24822000D01*
X88337115Y24822000D01*
X88321876Y24817525D01*
X88320671Y24816135D01*
X88319000Y24808452D01*
X88319000Y20324115D01*
X88323475Y20308876D01*
X88324865Y20307671D01*
X88332548Y20306000D01*
X90030631Y20306000D01*
X90034016Y20306091D01*
X90085545Y20308882D01*
X90094189Y20309955D01*
X90315018Y20353080D01*
X90325246Y20355994D01*
X90534740Y20435364D01*
X90544338Y20439962D01*
X90737460Y20553493D01*
X90746149Y20559646D01*
X90917392Y20704101D01*
X90924899Y20711608D01*
X90969191Y20764113D01*
X91028404Y20803284D01*
X91099394Y20804225D01*
X91159623Y20766635D01*
X91189969Y20702451D01*
X91191500Y20682869D01*
X91191500Y17298345D01*
X91171498Y17230224D01*
X91154595Y17209250D01*
X90703915Y16758570D01*
X90647432Y16725958D01*
X90627382Y16720586D01*
X90527067Y16693707D01*
X90527065Y16693706D01*
X90521757Y16692284D01*
X90516776Y16689961D01*
X90516775Y16689961D01*
X90319238Y16597849D01*
X90319233Y16597846D01*
X90314251Y16595523D01*
X90257428Y16555735D01*
X90131211Y16467357D01*
X90131208Y16467355D01*
X90126700Y16464198D01*
X89964802Y16302300D01*
X89833477Y16114749D01*
X89831154Y16109767D01*
X89831151Y16109762D01*
X89739039Y15912225D01*
X89736716Y15907243D01*
X89735294Y15901935D01*
X89735293Y15901933D01*
X89678881Y15691402D01*
X89677457Y15686087D01*
X89657502Y15458000D01*
X89677457Y15229913D01*
X89678881Y15224600D01*
X89678881Y15224598D01*
X89716025Y15085978D01*
X89736716Y15008757D01*
X89739039Y15003776D01*
X89739039Y15003775D01*
X89831151Y14806238D01*
X89831154Y14806233D01*
X89833477Y14801251D01*
X89964802Y14613700D01*
X90126700Y14451802D01*
X90131208Y14448645D01*
X90131211Y14448643D01*
X90209389Y14393902D01*
X90314251Y14320477D01*
X90319233Y14318154D01*
X90319238Y14318151D01*
X90515765Y14226510D01*
X90521757Y14223716D01*
X90527065Y14222294D01*
X90527067Y14222293D01*
X90737598Y14165881D01*
X90737600Y14165881D01*
X90742913Y14164457D01*
X90971000Y14144502D01*
X91199087Y14164457D01*
X91204400Y14165881D01*
X91204402Y14165881D01*
X91414933Y14222293D01*
X91414935Y14222294D01*
X91420243Y14223716D01*
X91426235Y14226510D01*
X91622762Y14318151D01*
X91622767Y14318154D01*
X91627749Y14320477D01*
X91732611Y14393902D01*
X91810789Y14448643D01*
X91810792Y14448645D01*
X91815300Y14451802D01*
X91977198Y14613700D01*
X92108523Y14801251D01*
X92110846Y14806233D01*
X92110849Y14806238D01*
X92202961Y15003775D01*
X92202961Y15003776D01*
X92205284Y15008757D01*
X92228016Y15093592D01*
X92238958Y15134430D01*
X92271570Y15190915D01*
X93010109Y15929453D01*
X93018379Y15936435D01*
X93018180Y15936665D01*
X93022725Y15940588D01*
X93027611Y15944054D01*
X93091714Y16011017D01*
X93093637Y16012981D01*
X93121196Y16040540D01*
X93125921Y16046261D01*
X93132043Y16053145D01*
X93173881Y16096850D01*
X93177133Y16101886D01*
X93177136Y16101890D01*
X93192053Y16124992D01*
X93200749Y16136874D01*
X93218262Y16158081D01*
X93218264Y16158084D01*
X93222080Y16162705D01*
X93251087Y16215797D01*
X93255798Y16223717D01*
X93288620Y16274548D01*
X93301142Y16305619D01*
X93307435Y16318932D01*
X93320618Y16343062D01*
X93323496Y16348329D01*
X93325324Y16354041D01*
X93325327Y16354047D01*
X93341941Y16405951D01*
X93345072Y16414625D01*
X93367686Y16470737D01*
X93374105Y16503608D01*
X93377768Y16517875D01*
X93386154Y16544073D01*
X93386154Y16544075D01*
X93387981Y16549781D01*
X93388695Y16555728D01*
X93388697Y16555735D01*
X93395198Y16609846D01*
X93396634Y16618967D01*
X93407357Y16673878D01*
X93408228Y16678337D01*
X93408500Y16683899D01*
X93408500Y16713040D01*
X93409399Y16728068D01*
X93412496Y16753845D01*
X93412496Y16753851D01*
X93413210Y16759793D01*
X93410341Y16800322D01*
X93408815Y16821867D01*
X93408500Y16830766D01*
X93408500Y33809748D01*
X93409410Y33820531D01*
X93409106Y33820553D01*
X93409545Y33826529D01*
X93410551Y33832446D01*
X93408530Y33925074D01*
X93408500Y33927822D01*
X93408500Y33966846D01*
X93407795Y33974231D01*
X93407256Y33983444D01*
X93406068Y34037921D01*
X93406068Y34037923D01*
X93405937Y34043918D01*
X93398885Y34076675D01*
X93396633Y34091226D01*
X93394022Y34118590D01*
X93393452Y34124566D01*
X93390049Y34136166D01*
X93376424Y34182612D01*
X93374152Y34191560D01*
X93362683Y34244832D01*
X93362679Y34244844D01*
X93361418Y34250702D01*
X93348304Y34281522D01*
X93343339Y34295386D01*
X93335594Y34321786D01*
X93333908Y34327534D01*
X93306204Y34381325D01*
X93302283Y34389677D01*
X93278599Y34445337D01*
X93259889Y34473128D01*
X93252398Y34485795D01*
X93239805Y34510248D01*
X93239801Y34510255D01*
X93237058Y34515580D01*
X93199691Y34563150D01*
X93194257Y34570615D01*
X93188964Y34578478D01*
X93160472Y34620799D01*
X93156731Y34624925D01*
X93136123Y34645533D01*
X93126132Y34656795D01*
X93110102Y34677203D01*
X93110098Y34677207D01*
X93106396Y34681920D01*
X93059391Y34722709D01*
X93052877Y34728779D01*
X91226538Y36555118D01*
X91192512Y36617430D01*
X91197806Y36688854D01*
X91273491Y36888622D01*
X91275380Y36893607D01*
X91320381Y37124043D01*
X91323500Y37181636D01*
X91323500Y39116364D01*
X91320381Y39173957D01*
X91275380Y39404393D01*
X91192196Y39623952D01*
X91073209Y39826356D01*
X90921819Y40005819D01*
X90742356Y40157209D01*
X90539952Y40276196D01*
X90320393Y40359380D01*
X90089957Y40404381D01*
X90084227Y40404691D01*
X90034052Y40407409D01*
X90034037Y40407409D01*
X90032364Y40407500D01*
X86097636Y40407500D01*
X86095963Y40407409D01*
X86095948Y40407409D01*
X86045773Y40404691D01*
X86040043Y40404381D01*
X85809607Y40359380D01*
X85590048Y40276196D01*
X85387644Y40157209D01*
X85208181Y40005819D01*
X85056791Y39826356D01*
X84937804Y39623952D01*
X84932560Y39610111D01*
X84889723Y39553496D01*
X84823076Y39529027D01*
X84753780Y39544475D01*
X84703837Y39594935D01*
X84696907Y39610108D01*
X84693636Y39618740D01*
X84689038Y39628338D01*
X84575507Y39821460D01*
X84569354Y39830149D01*
X84424899Y40001392D01*
X84417392Y40008899D01*
X84246149Y40153354D01*
X84237460Y40159507D01*
X84044338Y40273038D01*
X84034740Y40277636D01*
X83825246Y40357006D01*
X83815018Y40359920D01*
X83594189Y40403045D01*
X83585545Y40404118D01*
X83534016Y40406909D01*
X83530630Y40407000D01*
X81837115Y40407000D01*
X81821876Y40402525D01*
X81820671Y40401135D01*
X81819000Y40393452D01*
X81819000Y35909115D01*
X81311000Y35909115D01*
X81311000Y40388885D01*
X81306525Y40404124D01*
X81305135Y40405329D01*
X81297452Y40407000D01*
X79599370Y40407000D01*
X79595984Y40406909D01*
X79544455Y40404118D01*
X79535811Y40403045D01*
X79314982Y40359920D01*
X79304754Y40357006D01*
X79095260Y40277636D01*
X79085662Y40273038D01*
X78892540Y40159507D01*
X78883851Y40153354D01*
X78712608Y40008899D01*
X78705101Y40001392D01*
X78560646Y39830149D01*
X78554493Y39821460D01*
X78440962Y39628338D01*
X78436364Y39618740D01*
X78433093Y39610108D01*
X78390253Y39553493D01*
X78323605Y39529027D01*
X78254310Y39544478D01*
X78204368Y39594939D01*
X78197441Y39610108D01*
X78192196Y39623952D01*
X78073209Y39826356D01*
X77921819Y40005819D01*
X77742356Y40157209D01*
X77539952Y40276196D01*
X77320393Y40359380D01*
X77089957Y40404381D01*
X77084227Y40404691D01*
X77034052Y40407409D01*
X77034037Y40407409D01*
X77032364Y40407500D01*
X74860322Y40407500D01*
X74792201Y40427502D01*
X74745708Y40481158D01*
X74734978Y40546343D01*
X74742672Y40621440D01*
X74743000Y40627854D01*
X74743000Y41277885D01*
X74738525Y41293124D01*
X74737135Y41294329D01*
X74729452Y41296000D01*
X71395116Y41296000D01*
X71379877Y41291525D01*
X71378672Y41290135D01*
X71377001Y41282452D01*
X71377001Y40627905D01*
X63997905Y40627905D01*
X66423095Y43053095D01*
X66485407Y43087121D01*
X66512190Y43090000D01*
X71428764Y43090000D01*
X71496885Y43069998D01*
G37*
%TD.AperFunction*%
%TD*%
M02*
