M48
; DRILL file {KiCad (6.0.0-0)} date Monday, January 31, 2022 at 04:21:53 PM
; FORMAT={-:-/ absolute / metric / decimal}
; #@! TF.CreationDate,2022-01-31T16:21:53-05:00
; #@! TF.GenerationSoftware,Kicad,Pcbnew,(6.0.0-0)
; #@! TF.FileFunction,MixedPlating,1,2
FMAT,2
METRIC
; #@! TA.AperFunction,Plated,PTH,ViaDrill
T1C0.400
; #@! TA.AperFunction,Plated,PTH,ComponentDrill
T2C0.800
; #@! TA.AperFunction,Plated,PTH,ComponentDrill
T3C0.900
; #@! TA.AperFunction,Plated,PTH,ComponentDrill
T4C1.000
; #@! TA.AperFunction,Plated,PTH,ComponentDrill
T5C1.500
; #@! TA.AperFunction,Plated,PTH,ComponentDrill
T6C2.000
; #@! TA.AperFunction,NonPlated,NPTH,ComponentDrill
T7C1.000
; #@! TA.AperFunction,NonPlated,NPTH,ComponentDrill
T8C2.000
%
G90
G05
T1
X7.8Y38.33
X7.96Y40.38
X8.05Y22.7
X8.05Y13.1
X8.07Y32.29
X8.09Y35.89
X8.09Y30.28
X8.1Y20.45
X8.11Y34.16
X8.35Y27.65
X8.45Y25.05
X8.5Y17.2
X9.12Y31.14
X9.121Y19.183
X9.23Y41.34
X9.45Y33.26
X9.55Y34.92
X10.0Y29.25
X10.74Y27.08
X10.81Y25.62
X11.3Y33.38
X11.35Y30.9
X11.52Y41.15
X11.53Y34.87
X11.72Y17.98
X11.74Y28.41
X12.6Y25.76
X13.1Y32.3
X13.16Y35.04
X13.26Y29.87
X13.53Y27.22
X13.63Y41.25
X13.823Y19.386
X13.93Y28.41
X14.59Y25.42
X14.7Y33.8
X14.86Y30.01
X15.14Y12.73
X15.25Y31.67
X15.52Y27.02
X15.65Y41.08
X15.85Y35.55
X15.98Y28.28
X16.37Y14.55
X16.85Y29.81
X16.85Y25.62
X16.91Y33.19
X17.34Y41.11
X17.5Y34.8
X17.71Y12.59
X17.78Y27.08
X18.05Y16.895
X18.11Y31.67
X18.31Y28.15
X19.23Y19.52
X19.24Y33.26
X19.24Y25.56
X19.37Y35.05
X19.37Y29.87
X19.7Y14.55
X19.8Y41.43
X20.3Y26.69
X20.5Y31.73
X20.83Y17.25
X21.03Y28.48
X21.03Y12.63
X21.23Y33.33
X21.56Y34.99
X21.96Y29.67
X22.08Y41.08
X22.09Y31.4
X22.29Y25.23
X22.69Y26.62
X22.7Y14.44
X23.02Y28.01
X23.09Y33.06
X23.24Y19.35
X23.55Y34.85
X23.915Y17.02
X23.95Y29.41
X24.33Y41.18
X24.42Y31.4
X24.42Y26.02
X24.484Y73.306
X24.66Y71.88
X24.68Y27.42
X25.3Y62.85
X25.35Y67.25
X25.4Y64.5
X25.4Y61.1
X25.45Y66.05
X25.48Y33.06
X25.94Y35.05
X26.08Y30.87
X26.14Y28.15
X26.64Y41.26
X26.66Y74.63
X26.74Y25.62
X26.871Y19.707
X27.038Y67.603
X27.27Y29.34
X27.589Y75.951
X27.6Y34.39
X27.74Y27.28
X27.8Y32.06
X28.16Y74.63
X28.25Y66.15
X28.3Y64.4
X28.35Y62.65
X28.4Y60.55
X29.1Y18.15
X29.174Y75.887
X29.61Y39.22
X29.91Y74.63
X30.78Y36.5
X30.91Y75.88
X31.0Y16.15
X31.07Y34.82
X31.16Y73.88
X31.19Y24.75
X31.29Y21.82
X31.33Y38.25
X31.37Y13.08
X31.46Y19.57
X31.53Y32.51
X31.66Y29.15
X32.15Y17.25
X32.16Y71.88
X32.52Y39.52
X32.52Y36.4
X32.55Y14.98
X32.688Y75.939
X32.76Y22.92
X32.77Y20.93
X32.85Y33.96
X32.93Y26.76
X32.98Y30.99
X33.375Y18.525
X36.31Y19.805
X36.41Y76.13
X36.66Y72.13
X39.25Y21.45
X39.66Y32.88
X40.91Y28.13
X40.91Y26.555
X42.2Y21.7
X43.41Y31.38
X45.46Y23.205
X49.517Y38.647
X51.5Y18.35
X55.35Y39.6
X56.05Y36.4
X57.732Y30.873
X58.35Y21.35
X59.41Y36.38
X60.95Y42.0
X62.15Y42.85
X62.16Y38.13
X63.4Y39.55
X65.85Y41.4
X65.85Y38.86
X65.85Y36.32
X65.85Y33.78
X65.85Y31.24
X65.85Y28.7
X65.85Y26.16
X65.85Y23.62
X65.85Y18.54
X68.173Y16.519
X68.39Y41.4
X68.39Y38.86
X68.39Y36.32
X68.39Y33.78
X68.39Y31.24
X68.39Y28.7
X68.39Y26.16
X68.39Y23.62
X68.39Y21.08
X69.001Y18.699
X69.928Y9.382
X70.08Y34.86
X70.93Y41.4
X70.93Y38.86
X70.93Y36.32
X71.198Y10.652
X71.999Y30.196
X71.999Y27.465
X71.999Y23.831
X73.47Y31.24
X73.47Y28.7
X73.47Y26.16
X73.47Y18.54
X73.47Y16.0
X73.47Y10.92
X73.677Y13.419
X73.823Y33.684
X76.01Y41.4
X76.01Y33.78
X76.01Y31.24
X76.01Y28.7
X76.01Y26.16
X76.01Y18.54
X76.01Y16.0
X76.01Y13.46
X76.01Y10.92
X78.55Y41.4
X78.55Y33.78
X78.55Y31.24
X78.55Y28.7
X78.55Y26.16
X78.55Y18.54
X78.55Y16.0
X78.55Y13.46
X78.55Y10.92
X81.09Y41.4
X81.09Y33.78
X81.09Y28.7
X81.09Y26.16
X81.09Y18.54
X81.09Y16.0
X81.09Y13.46
X81.09Y10.92
X83.63Y41.4
X83.63Y33.78
X83.63Y31.24
X83.63Y28.7
X83.63Y26.16
X83.63Y18.54
X83.63Y16.0
X83.63Y13.46
X83.63Y10.92
X86.17Y41.4
X86.17Y18.54
X86.17Y10.92
X86.3Y13.25
X86.408Y30.579
X88.71Y41.4
X88.71Y31.24
X88.71Y28.7
X88.71Y26.16
X88.71Y18.54
X88.71Y16.0
X88.71Y13.46
X88.71Y10.92
X89.3Y33.35
X90.471Y32.01
X90.471Y29.305
X90.471Y26.533
X90.471Y18.54
X91.25Y41.4
X91.25Y13.46
X91.25Y10.92
X92.957Y35.095
X93.79Y41.4
X93.79Y38.86
X93.79Y36.32
X93.79Y33.78
X93.79Y31.24
X93.79Y28.7
X93.79Y18.54
X93.79Y16.0
X93.79Y13.46
X93.79Y10.96
X93.929Y20.941
X93.989Y26.282
X94.067Y23.479
T2
X18.01Y44.773
X23.01Y44.773
X31.91Y59.38
X31.91Y54.38
X37.81Y36.43
X37.81Y33.89
X37.81Y31.35
X37.81Y28.81
X41.76Y48.92
X41.76Y43.92
X45.43Y36.43
X45.43Y33.89
X45.43Y31.35
X45.43Y28.81
X57.66Y45.88
X57.66Y40.88
X85.971Y15.458
X90.971Y15.458
T3
X50.275Y24.2
X52.815Y24.2
T4
X10.7Y14.95
X13.24Y14.95
X16.62Y49.4
X19.12Y49.4
X21.62Y49.4
X26.31Y14.77
X28.85Y14.77
X38.4Y14.75
X40.94Y14.75
X45.55Y54.75
X45.84Y14.77
X48.38Y14.77
X50.55Y54.75
X54.6Y14.75
X57.14Y14.75
X65.949Y20.34
X65.949Y15.34
X68.04Y49.39
X70.54Y49.39
X73.04Y49.39
T6
X14.32Y57.53
X23.92Y57.53
X65.74Y57.52
X75.34Y57.52
T7
X10.69Y12.39
X13.24Y12.39
T8
X26.3Y12.21
X28.85Y12.21
X38.39Y12.19
X40.94Y12.19
X45.83Y12.21
X48.38Y12.21
X54.59Y12.19
X57.14Y12.19
T4
G00X47.035Y66.4
M15
G01X47.035Y68.6
M16
G05
G00X52.935Y70.9
M15
G01X50.735Y70.9
M16
G05
G00X53.135Y64.6
M15
G01X50.535Y64.6
M16
G05
T5
G00X10.665Y38.184
M15
G01X14.165Y38.184
M16
G05
G00X10.665Y22.599
M15
G01X14.165Y22.599
M16
G05
G00X17.165Y38.184
M15
G01X20.665Y38.184
M16
G05
G00X17.165Y22.599
M15
G01X20.665Y22.599
M16
G05
G00X23.665Y38.184
M15
G01X27.165Y38.184
M16
G05
G00X23.665Y22.599
M15
G01X27.165Y22.599
M16
G05
G00X76.815Y38.149
M15
G01X73.315Y38.149
M16
G05
G00X76.815Y22.564
M15
G01X73.315Y22.564
M16
G05
G00X83.315Y38.149
M15
G01X79.815Y38.149
M16
G05
G00X83.315Y22.564
M15
G01X79.815Y22.564
M16
G05
G00X89.815Y38.149
M15
G01X86.315Y38.149
M16
G05
G00X89.815Y22.564
M15
G01X86.315Y22.564
M16
G05
T0
M30
